<svg xmlns="http://www.w3.org/2000/svg" xmlns:xlink="http://www.w3.org/1999/xlink" width="300" zoomAndPan="magnify" viewBox="0 0 224.87999 149.999998" height="200" preserveAspectRatio="xMidYMid meet" version="1.0"><defs><clipPath id="ebc82f62fc"><path d="M 15 0.0390625 L 209.886719 0.0390625 L 209.886719 149.960938 L 15 149.960938 Z M 15 0.0390625 " clip-rule="nonzero"/></clipPath></defs><g clip-path="url(#ebc82f62fc)"><path fill="#ffffff" d="M 184.820312 0.0195312 L 120.027344 0.0195312 C 119.230469 0.015625 118.4375 0.0546875 117.648438 0.132812 C 116.855469 0.210938 116.070312 0.324219 115.292969 0.480469 C 114.511719 0.632812 113.742188 0.824219 112.980469 1.054688 C 112.222656 1.285156 111.472656 1.550781 110.738281 1.855469 C 110.003906 2.160156 109.285156 2.5 108.585938 2.871094 C 107.882812 3.246094 107.203125 3.652344 106.542969 4.09375 C 105.882812 4.535156 105.242188 5.007812 104.628906 5.511719 C 104.011719 6.015625 103.425781 6.546875 102.863281 7.109375 C 102.300781 7.671875 101.765625 8.257812 101.261719 8.871094 C 100.757812 9.484375 100.285156 10.121094 99.839844 10.78125 C 99.398438 11.441406 98.992188 12.125 98.617188 12.824219 C 98.238281 13.523438 97.898438 14.242188 97.59375 14.976562 C 97.289062 15.710938 97.023438 16.457031 96.792969 17.21875 C 96.558594 17.976562 96.367188 18.746094 96.210938 19.527344 C 96.054688 20.304688 95.9375 21.089844 95.859375 21.882812 C 95.78125 22.671875 95.742188 23.464844 95.738281 24.257812 L 95.738281 37.664062 L 40.082031 37.664062 C 39.289062 37.664062 38.496094 37.707031 37.703125 37.785156 C 36.914062 37.863281 36.128906 37.980469 35.347656 38.136719 C 34.570312 38.292969 33.800781 38.484375 33.039062 38.714844 C 32.277344 38.949219 31.53125 39.214844 30.796875 39.519531 C 30.0625 39.824219 29.34375 40.164062 28.644531 40.539062 C 27.941406 40.914062 27.261719 41.324219 26.601562 41.765625 C 25.941406 42.207031 25.304688 42.679688 24.6875 43.1875 C 24.074219 43.691406 23.488281 44.222656 22.925781 44.785156 C 22.363281 45.347656 21.832031 45.9375 21.328125 46.550781 C 20.820312 47.167969 20.347656 47.804688 19.90625 48.464844 C 19.464844 49.128906 19.058594 49.808594 18.683594 50.507812 C 18.308594 51.210938 17.96875 51.929688 17.667969 52.664062 C 17.363281 53.398438 17.09375 54.144531 16.863281 54.90625 C 16.632812 55.667969 16.441406 56.4375 16.285156 57.214844 C 16.128906 57.996094 16.015625 58.78125 15.9375 59.574219 C 15.859375 60.363281 15.820312 61.15625 15.820312 61.953125 L 15.820312 98.773438 C 15.820312 99.496094 15.855469 100.21875 15.917969 100.941406 C 15.984375 101.660156 16.082031 102.378906 16.210938 103.089844 C 16.34375 103.804688 16.503906 104.507812 16.695312 105.207031 C 16.890625 105.902344 17.113281 106.59375 17.367188 107.269531 C 17.621094 107.949219 17.90625 108.613281 18.21875 109.265625 C 18.53125 109.917969 18.875 110.554688 19.246094 111.175781 C 19.617188 111.800781 20.015625 112.402344 20.4375 112.988281 C 20.863281 113.574219 21.3125 114.140625 21.789062 114.6875 C 22.265625 115.234375 22.765625 115.757812 23.285156 116.257812 C 23.808594 116.761719 24.351562 117.238281 24.917969 117.691406 C 25.480469 118.144531 26.066406 118.570312 26.667969 118.972656 C 27.273438 119.371094 27.890625 119.746094 28.527344 120.089844 C 29.164062 120.433594 29.816406 120.75 30.480469 121.039062 C 31.144531 121.324219 31.820312 121.582031 32.507812 121.808594 C 33.199219 122.035156 33.894531 122.230469 34.597656 122.394531 C 35.304688 122.558594 36.015625 122.691406 36.734375 122.792969 L 36.734375 146.429688 C 36.734375 147.039062 36.894531 147.605469 37.207031 148.125 C 37.515625 148.648438 37.941406 149.058594 38.472656 149.347656 C 39.007812 149.640625 39.578125 149.777344 40.1875 149.761719 C 40.796875 149.742188 41.355469 149.570312 41.871094 149.246094 L 83.40625 123.015625 L 105.035156 123.015625 C 105.824219 123.011719 106.617188 122.96875 107.402344 122.886719 C 108.191406 122.808594 108.972656 122.6875 109.746094 122.53125 C 110.523438 122.371094 111.289062 122.175781 112.046875 121.945312 C 112.804688 121.710938 113.546875 121.441406 114.277344 121.136719 C 115.007812 120.832031 115.722656 120.492188 116.417969 120.117188 C 117.113281 119.742188 117.792969 119.332031 118.449219 118.890625 C 119.105469 118.449219 119.738281 117.976562 120.351562 117.472656 C 120.960938 116.96875 121.546875 116.4375 122.105469 115.875 C 122.664062 115.3125 123.191406 114.726562 123.691406 114.113281 C 124.195312 113.5 124.664062 112.863281 125.101562 112.207031 C 125.539062 111.546875 125.945312 110.867188 126.320312 110.167969 C 126.691406 109.472656 127.027344 108.753906 127.328125 108.023438 C 127.632812 107.292969 127.898438 106.546875 128.125 105.789062 C 128.355469 105.03125 128.546875 104.265625 128.703125 103.488281 C 128.855469 102.710938 128.972656 101.929688 129.046875 101.140625 C 129.125 100.355469 129.164062 99.5625 129.164062 98.773438 L 129.164062 85.367188 L 141.609375 85.367188 L 182.988281 111.554688 C 183.535156 111.890625 184.132812 112.0625 184.777344 112.066406 C 185.351562 112.066406 185.894531 111.933594 186.40625 111.664062 C 186.9375 111.363281 187.359375 110.953125 187.667969 110.421875 C 187.976562 109.894531 188.128906 109.328125 188.128906 108.714844 L 188.128906 85.097656 C 188.84375 85 189.554688 84.867188 190.261719 84.703125 C 190.964844 84.539062 191.664062 84.34375 192.351562 84.117188 C 193.039062 83.890625 193.714844 83.632812 194.378906 83.34375 C 195.042969 83.058594 195.695312 82.742188 196.332031 82.398438 C 196.96875 82.050781 197.585938 81.679688 198.191406 81.277344 C 198.792969 80.878906 199.378906 80.453125 199.941406 80 C 200.507812 79.546875 201.050781 79.070312 201.574219 78.566406 C 202.09375 78.066406 202.59375 77.542969 203.070312 76.996094 C 203.546875 76.449219 203.996094 75.882812 204.421875 75.296875 C 204.84375 74.710938 205.242188 74.105469 205.613281 73.484375 C 205.984375 72.863281 206.328125 72.226562 206.640625 71.574219 C 206.953125 70.921875 207.238281 70.253906 207.492188 69.578125 C 207.746094 68.898438 207.96875 68.210938 208.164062 67.515625 C 208.355469 66.816406 208.515625 66.109375 208.648438 65.398438 C 208.777344 64.6875 208.875 63.96875 208.941406 63.25 C 209.003906 62.527344 209.039062 61.804688 209.039062 61.082031 L 209.039062 24.257812 C 209.039062 23.464844 209 22.675781 208.917969 21.886719 C 208.839844 21.097656 208.722656 20.3125 208.566406 19.535156 C 208.410156 18.757812 208.21875 17.988281 207.988281 17.230469 C 207.757812 16.472656 207.488281 15.726562 207.183594 14.996094 C 206.882812 14.261719 206.542969 13.546875 206.167969 12.847656 C 205.792969 12.148438 205.386719 11.46875 204.945312 10.808594 C 204.503906 10.148438 204.03125 9.511719 203.53125 8.898438 C 203.027344 8.285156 202.496094 7.699219 201.933594 7.140625 C 201.375 6.578125 200.789062 6.046875 200.175781 5.542969 C 199.5625 5.039062 198.925781 4.566406 198.265625 4.125 C 197.609375 3.683594 196.929688 3.273438 196.230469 2.902344 C 195.53125 2.527344 194.816406 2.1875 194.082031 1.882812 C 193.351562 1.578125 192.605469 1.308594 191.847656 1.078125 C 191.089844 0.84375 190.320312 0.652344 189.542969 0.496094 C 188.765625 0.339844 187.984375 0.21875 187.195312 0.140625 C 186.40625 0.0625 185.613281 0.0195312 184.820312 0.0195312 Z M 122.460938 98.773438 C 122.460938 99.347656 122.433594 99.917969 122.375 100.492188 C 122.316406 101.0625 122.234375 101.628906 122.121094 102.191406 C 122.007812 102.757812 121.867188 103.3125 121.703125 103.863281 C 121.535156 104.410156 121.339844 104.949219 121.121094 105.480469 C 120.902344 106.011719 120.65625 106.53125 120.382812 107.035156 C 120.113281 107.542969 119.816406 108.035156 119.5 108.511719 C 119.179688 108.988281 118.839844 109.449219 118.472656 109.894531 C 118.109375 110.335938 117.722656 110.761719 117.316406 111.167969 C 116.910156 111.574219 116.488281 111.960938 116.042969 112.324219 C 115.597656 112.6875 115.140625 113.03125 114.660156 113.347656 C 114.183594 113.667969 113.691406 113.964844 113.1875 114.234375 C 112.679688 114.503906 112.160156 114.75 111.632812 114.972656 C 111.101562 115.191406 110.5625 115.382812 110.011719 115.550781 C 109.460938 115.71875 108.90625 115.859375 108.34375 115.972656 C 107.78125 116.082031 107.210938 116.167969 106.640625 116.226562 C 106.070312 116.28125 105.496094 116.3125 104.921875 116.3125 L 82.335938 116.3125 C 81.675781 116.308594 81.074219 116.484375 80.523438 116.847656 L 43.457031 140.332031 L 43.457031 119.574219 C 43.457031 119.128906 43.371094 118.703125 43.203125 118.292969 C 43.03125 117.878906 42.789062 117.519531 42.476562 117.203125 C 42.160156 116.890625 41.800781 116.648438 41.390625 116.476562 C 40.976562 116.308594 40.550781 116.222656 40.105469 116.222656 C 39.53125 116.222656 38.957031 116.191406 38.386719 116.136719 C 37.816406 116.078125 37.246094 115.996094 36.683594 115.882812 C 36.121094 115.769531 35.566406 115.628906 35.015625 115.460938 C 34.464844 115.296875 33.925781 115.101562 33.394531 114.882812 C 32.863281 114.660156 32.34375 114.417969 31.839844 114.144531 C 31.332031 113.875 30.839844 113.578125 30.363281 113.261719 C 29.882812 112.941406 29.421875 112.601562 28.980469 112.234375 C 28.535156 111.871094 28.109375 111.484375 27.703125 111.082031 C 27.296875 110.675781 26.910156 110.25 26.546875 109.804688 C 26.179688 109.363281 25.839844 108.902344 25.519531 108.425781 C 25.199219 107.945312 24.902344 107.453125 24.632812 106.949219 C 24.359375 106.441406 24.113281 105.925781 23.894531 105.394531 C 23.671875 104.863281 23.480469 104.324219 23.3125 103.773438 C 23.144531 103.222656 23.003906 102.667969 22.890625 102.105469 C 22.777344 101.542969 22.691406 100.972656 22.632812 100.402344 C 22.574219 99.832031 22.546875 99.257812 22.542969 98.683594 L 22.542969 61.953125 C 22.546875 61.378906 22.574219 60.804688 22.632812 60.234375 C 22.691406 59.660156 22.777344 59.09375 22.890625 58.53125 C 23.003906 57.96875 23.144531 57.410156 23.3125 56.863281 C 23.480469 56.3125 23.671875 55.773438 23.894531 55.242188 C 24.113281 54.710938 24.359375 54.191406 24.632812 53.6875 C 24.902344 53.179688 25.199219 52.6875 25.519531 52.210938 C 25.839844 51.734375 26.179688 51.273438 26.546875 50.828125 C 26.910156 50.386719 27.296875 49.960938 27.703125 49.554688 C 28.109375 49.148438 28.535156 48.765625 28.980469 48.398438 C 29.421875 48.035156 29.882812 47.695312 30.363281 47.375 C 30.839844 47.054688 31.332031 46.761719 31.839844 46.488281 C 32.34375 46.21875 32.863281 45.972656 33.394531 45.753906 C 33.925781 45.535156 34.464844 45.339844 35.015625 45.171875 C 35.566406 45.003906 36.121094 44.867188 36.683594 44.753906 C 37.246094 44.640625 37.816406 44.554688 38.386719 44.5 C 38.957031 44.441406 39.53125 44.414062 40.105469 44.414062 L 104.898438 44.414062 C 105.472656 44.414062 106.046875 44.441406 106.617188 44.5 C 107.191406 44.554688 107.757812 44.640625 108.320312 44.753906 C 108.882812 44.867188 109.441406 45.003906 109.988281 45.171875 C 110.539062 45.339844 111.078125 45.535156 111.609375 45.753906 C 112.140625 45.972656 112.65625 46.21875 113.164062 46.492188 C 113.671875 46.761719 114.160156 47.054688 114.640625 47.375 C 115.117188 47.695312 115.578125 48.035156 116.019531 48.402344 C 116.464844 48.765625 116.890625 49.148438 117.296875 49.554688 C 117.703125 49.960938 118.085938 50.386719 118.453125 50.832031 C 118.816406 51.273438 119.15625 51.734375 119.476562 52.214844 C 119.796875 52.691406 120.089844 53.183594 120.363281 53.6875 C 120.632812 54.195312 120.878906 54.714844 121.097656 55.242188 C 121.320312 55.773438 121.511719 56.3125 121.679688 56.863281 C 121.847656 57.414062 121.984375 57.96875 122.097656 58.53125 C 122.210938 59.09375 122.296875 59.660156 122.351562 60.234375 C 122.410156 60.804688 122.4375 61.378906 122.4375 61.953125 Z M 202.382812 61.082031 C 202.378906 61.65625 202.351562 62.226562 202.292969 62.800781 C 202.234375 63.371094 202.148438 63.9375 202.035156 64.5 C 201.921875 65.066406 201.78125 65.621094 201.617188 66.171875 C 201.449219 66.71875 201.253906 67.261719 201.03125 67.789062 C 200.8125 68.320312 200.566406 68.839844 200.292969 69.34375 C 200.023438 69.851562 199.726562 70.34375 199.40625 70.820312 C 199.089844 71.296875 198.746094 71.757812 198.378906 72.203125 C 198.015625 72.644531 197.628906 73.070312 197.222656 73.476562 C 196.816406 73.882812 196.390625 74.269531 195.949219 74.632812 C 195.503906 74.996094 195.042969 75.339844 194.566406 75.65625 C 194.085938 75.976562 193.59375 76.273438 193.089844 76.542969 C 192.582031 76.8125 192.0625 77.058594 191.53125 77.277344 C 191 77.5 190.460938 77.691406 189.910156 77.859375 C 189.363281 78.027344 188.804688 78.167969 188.242188 78.277344 C 187.679688 78.390625 187.109375 78.476562 186.539062 78.53125 C 185.96875 78.589844 185.394531 78.617188 184.820312 78.621094 C 184.375 78.621094 183.949219 78.703125 183.539062 78.875 C 183.128906 79.042969 182.765625 79.285156 182.449219 79.601562 C 182.136719 79.914062 181.894531 80.277344 181.722656 80.6875 C 181.554688 81.097656 181.46875 81.527344 181.46875 81.972656 L 181.46875 102.636719 L 144.378906 79.15625 C 143.832031 78.792969 143.226562 78.613281 142.570312 78.621094 L 129.164062 78.621094 L 129.164062 61.953125 C 129.164062 61.15625 129.125 60.367188 129.046875 59.578125 C 128.96875 58.785156 128.851562 58.003906 128.695312 57.222656 C 128.539062 56.445312 128.347656 55.675781 128.117188 54.917969 C 127.886719 54.15625 127.617188 53.410156 127.3125 52.679688 C 127.007812 51.945312 126.667969 51.230469 126.296875 50.527344 C 125.921875 49.828125 125.511719 49.148438 125.070312 48.488281 C 124.632812 47.828125 124.160156 47.191406 123.65625 46.578125 C 123.152344 45.964844 122.617188 45.378906 122.058594 44.816406 C 121.496094 44.253906 120.910156 43.722656 120.296875 43.21875 C 119.683594 42.714844 119.046875 42.242188 118.386719 41.800781 C 117.726562 41.359375 117.046875 40.953125 116.347656 40.578125 C 115.644531 40.203125 114.929688 39.867188 114.195312 39.5625 C 113.464844 39.257812 112.714844 38.988281 111.957031 38.757812 C 111.199219 38.527344 110.429688 38.335938 109.652344 38.179688 C 108.871094 38.023438 108.089844 37.90625 107.296875 37.828125 C 106.507812 37.75 105.714844 37.710938 104.921875 37.710938 L 102.441406 37.710938 L 102.441406 24.304688 C 102.441406 23.730469 102.472656 23.15625 102.527344 22.585938 C 102.585938 22.015625 102.671875 21.445312 102.785156 20.882812 C 102.894531 20.320312 103.035156 19.765625 103.203125 19.214844 C 103.371094 18.667969 103.5625 18.125 103.785156 17.597656 C 104.003906 17.066406 104.25 16.546875 104.519531 16.039062 C 104.792969 15.535156 105.085938 15.042969 105.40625 14.566406 C 105.722656 14.089844 106.066406 13.628906 106.429688 13.183594 C 106.796875 12.738281 107.179688 12.316406 107.585938 11.910156 C 107.992188 11.503906 108.417969 11.117188 108.859375 10.753906 C 109.304688 10.390625 109.765625 10.046875 110.242188 9.726562 C 110.71875 9.410156 111.210938 9.113281 111.71875 8.84375 C 112.222656 8.570312 112.742188 8.328125 113.273438 8.105469 C 113.804688 7.886719 114.34375 7.691406 114.894531 7.527344 C 115.441406 7.359375 116 7.21875 116.5625 7.105469 C 117.125 6.992188 117.691406 6.910156 118.261719 6.851562 C 118.835938 6.792969 119.40625 6.765625 119.980469 6.765625 L 184.777344 6.765625 C 185.351562 6.765625 185.921875 6.792969 186.496094 6.851562 C 187.066406 6.910156 187.632812 6.992188 188.199219 7.105469 C 188.761719 7.21875 189.316406 7.359375 189.867188 7.523438 C 190.417969 7.691406 190.957031 7.886719 191.488281 8.105469 C 192.019531 8.324219 192.535156 8.570312 193.042969 8.84375 C 193.550781 9.113281 194.042969 9.40625 194.519531 9.726562 C 194.996094 10.046875 195.457031 10.386719 195.902344 10.753906 C 196.347656 11.117188 196.773438 11.5 197.179688 11.90625 C 197.585938 12.3125 197.972656 12.738281 198.335938 13.183594 C 198.699219 13.625 199.042969 14.085938 199.363281 14.5625 C 199.683594 15.039062 199.976562 15.53125 200.25 16.039062 C 200.519531 16.546875 200.765625 17.0625 200.988281 17.59375 C 201.207031 18.125 201.402344 18.664062 201.570312 19.214844 C 201.738281 19.761719 201.878906 20.320312 201.992188 20.882812 C 202.105469 21.445312 202.191406 22.011719 202.25 22.585938 C 202.304688 23.15625 202.335938 23.730469 202.335938 24.304688 Z M 202.382812 61.082031 " fill-opacity="1" fill-rule="nonzero"/></g><path fill="#ffffff" d="M 75.496094 58.109375 C 75.210938 57.542969 74.800781 57.09375 74.261719 56.761719 C 73.722656 56.429688 73.136719 56.261719 72.503906 56.261719 C 71.871094 56.261719 71.285156 56.429688 70.746094 56.761719 C 70.207031 57.09375 69.792969 57.542969 69.507812 58.109375 L 48.84375 98.816406 C 48.613281 99.214844 48.472656 99.640625 48.421875 100.097656 C 48.367188 100.554688 48.40625 101 48.539062 101.441406 C 48.671875 101.878906 48.882812 102.277344 49.175781 102.628906 C 49.46875 102.980469 49.820312 103.261719 50.230469 103.46875 C 50.636719 103.675781 51.070312 103.796875 51.527344 103.828125 C 51.988281 103.855469 52.433594 103.796875 52.863281 103.644531 C 53.296875 103.492188 53.683594 103.261719 54.019531 102.949219 C 54.355469 102.640625 54.621094 102.273438 54.808594 101.855469 L 61.933594 87.824219 L 83.070312 87.824219 L 90.109375 101.855469 C 90.296875 102.273438 90.558594 102.640625 90.898438 102.949219 C 91.234375 103.261719 91.621094 103.492188 92.054688 103.644531 C 92.484375 103.796875 92.929688 103.855469 93.386719 103.828125 C 93.847656 103.796875 94.277344 103.675781 94.6875 103.46875 C 95.097656 103.261719 95.449219 102.980469 95.742188 102.628906 C 96.035156 102.277344 96.246094 101.878906 96.378906 101.441406 C 96.507812 101 96.546875 100.554688 96.496094 100.097656 C 96.441406 99.640625 96.304688 99.214844 96.074219 98.816406 Z M 65.332031 81.121094 L 72.503906 67.023438 L 79.652344 81.121094 Z M 65.332031 81.121094 " fill-opacity="1" fill-rule="nonzero"/><path fill="#ffffff" d="M 171.996094 58.421875 L 158.925781 49.617188 C 161.640625 45.328125 163.875 40.800781 165.628906 36.035156 L 170.097656 36.035156 C 170.539062 36.035156 170.96875 35.949219 171.378906 35.777344 C 171.789062 35.609375 172.152344 35.367188 172.464844 35.050781 C 172.78125 34.738281 173.023438 34.375 173.191406 33.964844 C 173.363281 33.554688 173.449219 33.128906 173.449219 32.683594 C 173.449219 32.238281 173.363281 31.8125 173.191406 31.398438 C 173.023438 30.988281 172.78125 30.628906 172.464844 30.3125 C 172.152344 30 171.789062 29.757812 171.378906 29.585938 C 170.96875 29.417969 170.539062 29.332031 170.097656 29.332031 L 156.558594 29.332031 L 156.558594 22.359375 C 156.558594 21.914062 156.472656 21.488281 156.300781 21.078125 C 156.132812 20.667969 155.890625 20.304688 155.574219 19.992188 C 155.261719 19.675781 154.898438 19.433594 154.488281 19.265625 C 154.078125 19.09375 153.648438 19.007812 153.207031 19.007812 C 152.761719 19.007812 152.332031 19.09375 151.921875 19.265625 C 151.511719 19.433594 151.148438 19.675781 150.835938 19.992188 C 150.519531 20.304688 150.277344 20.667969 150.109375 21.078125 C 149.9375 21.488281 149.855469 21.914062 149.855469 22.359375 L 149.855469 29.332031 L 134.796875 29.332031 C 134.351562 29.332031 133.921875 29.417969 133.511719 29.585938 C 133.101562 29.757812 132.738281 30 132.425781 30.3125 C 132.109375 30.628906 131.867188 30.988281 131.699219 31.398438 C 131.527344 31.8125 131.445312 32.238281 131.445312 32.683594 C 131.445312 33.128906 131.527344 33.554688 131.699219 33.964844 C 131.867188 34.375 132.109375 34.738281 132.425781 35.050781 C 132.738281 35.367188 133.101562 35.609375 133.511719 35.777344 C 133.921875 35.949219 134.351562 36.035156 134.796875 36.035156 L 158.5 36.035156 C 157.070312 39.453125 155.355469 42.722656 153.363281 45.84375 L 144.9375 40.167969 C 144.5625 39.917969 144.152344 39.75 143.710938 39.664062 C 143.265625 39.578125 142.824219 39.578125 142.382812 39.667969 C 141.9375 39.757812 141.53125 39.929688 141.15625 40.183594 C 140.78125 40.433594 140.46875 40.75 140.222656 41.125 C 139.972656 41.503906 139.804688 41.914062 139.71875 42.355469 C 139.632812 42.800781 139.636719 43.242188 139.726562 43.683594 C 139.816406 44.125 139.988281 44.535156 140.242188 44.910156 C 140.492188 45.28125 140.808594 45.59375 141.183594 45.84375 L 149.496094 51.429688 C 146.890625 54.722656 144.007812 57.753906 140.851562 60.523438 C 140.515625 60.820312 140.253906 61.167969 140.058594 61.566406 C 139.867188 61.96875 139.757812 62.390625 139.730469 62.835938 C 139.703125 63.28125 139.765625 63.714844 139.910156 64.136719 C 140.058594 64.554688 140.277344 64.933594 140.574219 65.265625 C 140.871094 65.597656 141.21875 65.863281 141.621094 66.058594 C 142.019531 66.253906 142.441406 66.363281 142.886719 66.390625 C 143.332031 66.414062 143.765625 66.355469 144.1875 66.210938 C 144.609375 66.066406 144.984375 65.84375 145.320312 65.550781 C 148.910156 62.398438 152.179688 58.945312 155.125 55.183594 L 168.308594 64.117188 C 168.871094 64.496094 169.488281 64.683594 170.164062 64.675781 C 170.519531 64.675781 170.871094 64.621094 171.210938 64.507812 C 171.550781 64.394531 171.863281 64.230469 172.152344 64.019531 C 172.4375 63.804688 172.683594 63.550781 172.890625 63.261719 C 173.097656 62.96875 173.253906 62.652344 173.359375 62.308594 C 173.464844 61.964844 173.511719 61.617188 173.503906 61.257812 C 173.5 60.902344 173.433594 60.554688 173.316406 60.214844 C 173.199219 59.878906 173.03125 59.566406 172.8125 59.285156 C 172.59375 59 172.335938 58.757812 172.039062 58.554688 Z M 171.996094 58.421875 " fill-opacity="1" fill-rule="nonzero"/></svg>