<svg xmlns="http://www.w3.org/2000/svg" xmlns:xlink="http://www.w3.org/1999/xlink" width="800" zoomAndPan="magnify" viewBox="0 0 600 599.999999" height="800" preserveAspectRatio="xMidYMid meet" version="1.0"><defs><g/><clipPath id="e33294862a"><path d="M 114 75.179688 L 486.984375 75.179688 L 486.984375 363.929688 L 114 363.929688 Z M 114 75.179688 " clip-rule="nonzero"/></clipPath></defs><g clip-path="url(#e33294862a)"><path fill="#ffffff" d="M 439.421875 75.136719 L 314.785156 75.136719 C 313.253906 75.136719 311.730469 75.210938 310.207031 75.359375 C 308.6875 75.507812 307.175781 75.730469 305.675781 76.027344 C 304.175781 76.324219 302.695312 76.695312 301.234375 77.136719 C 299.769531 77.578125 298.332031 78.089844 296.917969 78.675781 C 295.507812 79.257812 294.125 79.910156 292.777344 80.628906 C 291.425781 81.347656 290.117188 82.132812 288.84375 82.980469 C 287.574219 83.828125 286.347656 84.738281 285.164062 85.707031 C 283.980469 86.675781 282.847656 87.699219 281.765625 88.777344 C 280.683594 89.859375 279.660156 90.988281 278.6875 92.171875 C 277.71875 93.351562 276.804688 94.578125 275.957031 95.847656 C 275.105469 97.117188 274.320312 98.425781 273.597656 99.773438 C 272.875 101.121094 272.222656 102.5 271.636719 103.910156 C 271.050781 105.324219 270.535156 106.761719 270.089844 108.222656 C 269.644531 109.6875 269.269531 111.167969 268.972656 112.664062 C 268.671875 114.164062 268.445312 115.675781 268.296875 117.195312 C 268.144531 118.71875 268.066406 120.242188 268.066406 121.769531 L 268.066406 147.558594 L 161.007812 147.558594 C 159.476562 147.558594 157.953125 147.636719 156.429688 147.785156 C 154.910156 147.9375 153.398438 148.164062 151.898438 148.460938 C 150.398438 148.761719 148.917969 149.132812 147.453125 149.578125 C 145.992188 150.023438 144.554688 150.539062 143.140625 151.125 C 141.730469 151.710938 140.347656 152.367188 139 153.089844 C 137.652344 153.808594 136.34375 154.59375 135.070312 155.445312 C 133.800781 156.296875 132.574219 157.207031 131.394531 158.175781 C 130.210938 159.148438 129.082031 160.175781 128 161.257812 C 126.917969 162.339844 125.894531 163.46875 124.925781 164.652344 C 123.953125 165.835938 123.042969 167.0625 122.195312 168.332031 C 121.347656 169.605469 120.5625 170.914062 119.839844 172.265625 C 119.121094 173.613281 118.46875 174.996094 117.882812 176.40625 C 117.296875 177.820312 116.785156 179.257812 116.339844 180.722656 C 115.898438 182.183594 115.527344 183.667969 115.226562 185.167969 C 114.929688 186.667969 114.707031 188.175781 114.554688 189.699219 C 114.40625 191.222656 114.332031 192.746094 114.332031 194.277344 L 114.332031 265.105469 C 114.332031 266.496094 114.398438 267.886719 114.523438 269.273438 C 114.648438 270.660156 114.835938 272.039062 115.085938 273.410156 C 115.335938 274.78125 115.648438 276.136719 116.015625 277.480469 C 116.386719 278.820312 116.816406 280.144531 117.308594 281.449219 C 117.796875 282.753906 118.34375 284.03125 118.945312 285.289062 C 119.550781 286.542969 120.207031 287.769531 120.921875 288.964844 C 121.636719 290.160156 122.402344 291.324219 123.21875 292.453125 C 124.035156 293.578125 124.902344 294.667969 125.816406 295.71875 C 126.730469 296.769531 127.691406 297.777344 128.695312 298.742188 C 129.699219 299.707031 130.746094 300.625 131.832031 301.496094 C 132.917969 302.367188 134.042969 303.1875 135.203125 303.957031 C 136.363281 304.726562 137.554688 305.445312 138.777344 306.109375 C 140.003906 306.773438 141.253906 307.382812 142.535156 307.933594 C 143.8125 308.484375 145.113281 308.980469 146.4375 309.414062 C 147.757812 309.851562 149.097656 310.226562 150.457031 310.542969 C 151.8125 310.859375 153.179688 311.113281 154.558594 311.304688 L 154.558594 356.777344 C 154.5625 357.351562 154.640625 357.917969 154.796875 358.46875 C 154.949219 359.023438 155.175781 359.546875 155.46875 360.042969 C 155.761719 360.535156 156.117188 360.980469 156.53125 361.382812 C 156.945312 361.78125 157.40625 362.117188 157.910156 362.394531 C 158.414062 362.667969 158.945312 362.875 159.503906 363.007812 C 160.0625 363.144531 160.628906 363.199219 161.203125 363.183594 C 161.777344 363.164062 162.339844 363.074219 162.890625 362.90625 C 163.441406 362.738281 163.957031 362.5 164.445312 362.191406 L 244.339844 311.734375 L 285.945312 311.734375 C 287.46875 311.730469 288.988281 311.648438 290.5 311.492188 C 292.015625 311.335938 293.519531 311.105469 295.011719 310.804688 C 296.503906 310.5 297.976562 310.125 299.433594 309.675781 C 300.890625 309.230469 302.320312 308.710938 303.722656 308.125 C 305.128906 307.539062 306.5 306.882812 307.84375 306.160156 C 309.183594 305.4375 310.484375 304.652344 311.75 303.804688 C 313.011719 302.953125 314.230469 302.042969 315.40625 301.074219 C 316.582031 300.105469 317.707031 299.082031 318.78125 298.003906 C 319.855469 296.921875 320.871094 295.792969 321.835938 294.613281 C 322.800781 293.4375 323.703125 292.210938 324.546875 290.945312 C 325.390625 289.675781 326.171875 288.371094 326.886719 287.027344 C 327.601562 285.683594 328.25 284.308594 328.832031 282.898438 C 329.414062 281.492188 329.925781 280.058594 330.367188 278.601562 C 330.804688 277.144531 331.175781 275.667969 331.472656 274.175781 C 331.765625 272.683594 331.988281 271.175781 332.140625 269.660156 C 332.289062 268.144531 332.363281 266.628906 332.363281 265.105469 L 332.363281 239.316406 L 356.300781 239.316406 L 435.898438 289.6875 C 436.949219 290.339844 438.097656 290.667969 439.335938 290.675781 C 440.445312 290.675781 441.492188 290.417969 442.472656 289.902344 C 442.976562 289.621094 443.433594 289.277344 443.84375 288.871094 C 444.257812 288.464844 444.609375 288.015625 444.898438 287.515625 C 445.191406 287.015625 445.410156 286.488281 445.558594 285.933594 C 445.710938 285.375 445.785156 284.808594 445.78125 284.230469 L 445.78125 238.800781 C 447.160156 238.609375 448.53125 238.351562 449.886719 238.039062 C 451.242188 237.722656 452.582031 237.347656 453.90625 236.910156 C 455.230469 236.472656 456.53125 235.980469 457.808594 235.429688 C 459.085938 234.875 460.339844 234.269531 461.5625 233.605469 C 462.789062 232.941406 463.980469 232.222656 465.140625 231.453125 C 466.300781 230.683594 467.421875 229.863281 468.511719 228.992188 C 469.597656 228.121094 470.644531 227.203125 471.648438 226.238281 C 472.652344 225.273438 473.613281 224.265625 474.527344 223.214844 C 475.441406 222.164062 476.308594 221.074219 477.125 219.945312 C 477.941406 218.820312 478.707031 217.65625 479.421875 216.460938 C 480.132812 215.265625 480.792969 214.039062 481.394531 212.785156 C 482 211.527344 482.546875 210.25 483.035156 208.945312 C 483.523438 207.640625 483.953125 206.316406 484.324219 204.972656 C 484.695312 203.632812 485.003906 202.277344 485.253906 200.90625 C 485.503906 199.535156 485.691406 198.15625 485.820312 196.769531 C 485.945312 195.382812 486.007812 193.992188 486.011719 192.597656 L 486.011719 121.769531 C 486.007812 120.246094 485.929688 118.722656 485.777344 117.203125 C 485.625 115.6875 485.402344 114.179688 485.101562 112.683594 C 484.800781 111.1875 484.429688 109.710938 483.984375 108.25 C 483.542969 106.792969 483.027344 105.359375 482.441406 103.949219 C 481.859375 102.539062 481.207031 101.164062 480.484375 99.816406 C 479.765625 98.472656 478.980469 97.164062 478.132812 95.898438 C 477.285156 94.628906 476.378906 93.40625 475.410156 92.226562 C 474.445312 91.046875 473.421875 89.917969 472.34375 88.835938 C 471.265625 87.757812 470.136719 86.734375 468.957031 85.765625 C 467.777344 84.796875 466.554688 83.886719 465.289062 83.039062 C 464.019531 82.191406 462.714844 81.40625 461.371094 80.683594 C 460.027344 79.964844 458.648438 79.308594 457.242188 78.722656 C 455.832031 78.136719 454.398438 77.621094 452.9375 77.175781 C 451.480469 76.730469 450.003906 76.355469 448.507812 76.054688 C 447.011719 75.753906 445.503906 75.527344 443.988281 75.375 C 442.46875 75.222656 440.949219 75.144531 439.421875 75.136719 Z M 319.46875 265.105469 C 319.46875 266.207031 319.410156 267.3125 319.300781 268.410156 C 319.191406 269.507812 319.03125 270.601562 318.8125 271.683594 C 318.597656 272.765625 318.328125 273.835938 318.007812 274.894531 C 317.683594 275.949219 317.3125 276.988281 316.890625 278.007812 C 316.464844 279.027344 315.992188 280.027344 315.472656 281 C 314.949219 281.972656 314.382812 282.917969 313.769531 283.839844 C 313.15625 284.757812 312.496094 285.640625 311.796875 286.496094 C 311.097656 287.351562 310.355469 288.167969 309.574219 288.949219 C 308.792969 289.730469 307.976562 290.46875 307.121094 291.171875 C 306.269531 291.871094 305.382812 292.53125 304.464844 293.144531 C 303.546875 293.757812 302.601562 294.324219 301.625 294.847656 C 300.652344 295.367188 299.65625 295.839844 298.632812 296.261719 C 297.613281 296.6875 296.574219 297.058594 295.519531 297.378906 C 294.460938 297.703125 293.390625 297.96875 292.308594 298.1875 C 291.226562 298.402344 290.136719 298.566406 289.035156 298.675781 C 287.9375 298.785156 286.835938 298.839844 285.730469 298.84375 L 242.277344 298.84375 C 241.011719 298.832031 239.851562 299.175781 238.796875 299.875 L 167.496094 345.042969 L 167.496094 305.117188 C 167.496094 304.695312 167.453125 304.273438 167.371094 303.859375 C 167.289062 303.445312 167.167969 303.042969 167.003906 302.648438 C 166.84375 302.257812 166.644531 301.886719 166.410156 301.535156 C 166.175781 301.183594 165.90625 300.859375 165.609375 300.558594 C 165.308594 300.257812 164.984375 299.992188 164.628906 299.757812 C 164.277344 299.523438 163.90625 299.324219 163.515625 299.160156 C 163.125 299 162.722656 298.878906 162.308594 298.792969 C 161.890625 298.710938 161.472656 298.671875 161.050781 298.671875 C 159.945312 298.667969 158.839844 298.613281 157.742188 298.503906 C 156.640625 298.394531 155.550781 298.230469 154.46875 298.015625 C 153.382812 297.800781 152.3125 297.53125 151.253906 297.207031 C 150.199219 296.886719 149.160156 296.515625 148.136719 296.089844 C 147.117188 295.667969 146.121094 295.195312 145.144531 294.675781 C 144.171875 294.15625 143.222656 293.585938 142.304688 292.972656 C 141.386719 292.359375 140.5 291.703125 139.644531 291 C 138.789062 290.300781 137.972656 289.558594 137.191406 288.777344 C 136.40625 287.996094 135.667969 287.179688 134.964844 286.328125 C 134.261719 285.472656 133.605469 284.585938 132.988281 283.667969 C 132.375 282.75 131.804688 281.804688 131.285156 280.832031 C 130.761719 279.855469 130.289062 278.859375 129.863281 277.839844 C 129.4375 276.820312 129.066406 275.78125 128.742188 274.722656 C 128.417969 273.667969 128.148438 272.597656 127.929688 271.511719 C 127.714844 270.429688 127.550781 269.339844 127.4375 268.238281 C 127.328125 267.140625 127.269531 266.039062 127.269531 264.933594 L 127.269531 194.277344 C 127.269531 193.171875 127.328125 192.066406 127.4375 190.96875 C 127.550781 189.867188 127.714844 188.777344 127.929688 187.695312 C 128.148438 186.609375 128.417969 185.539062 128.742188 184.484375 C 129.066406 183.425781 129.4375 182.386719 129.863281 181.367188 C 130.289062 180.347656 130.761719 179.351562 131.285156 178.375 C 131.804688 177.402344 132.375 176.457031 132.988281 175.539062 C 133.605469 174.621094 134.261719 173.734375 134.964844 172.878906 C 135.667969 172.027344 136.40625 171.210938 137.191406 170.429688 C 137.972656 169.648438 138.789062 168.90625 139.644531 168.207031 C 140.5 167.503906 141.386719 166.847656 142.304688 166.234375 C 143.222656 165.621094 144.171875 165.054688 145.144531 164.53125 C 146.121094 164.011719 147.117188 163.539062 148.136719 163.117188 C 149.160156 162.691406 150.199219 162.320312 151.253906 162 C 152.3125 161.675781 153.382812 161.410156 154.46875 161.191406 C 155.550781 160.976562 156.640625 160.8125 157.742188 160.703125 C 158.839844 160.59375 159.945312 160.539062 161.050781 160.539062 L 285.6875 160.539062 C 286.792969 160.539062 287.894531 160.59375 288.992188 160.703125 C 290.09375 160.8125 291.183594 160.976562 292.265625 161.191406 C 293.347656 161.410156 294.417969 161.679688 295.476562 162 C 296.53125 162.320312 297.570312 162.695312 298.589844 163.117188 C 299.613281 163.539062 300.609375 164.011719 301.582031 164.535156 C 302.558594 165.054688 303.503906 165.621094 304.421875 166.234375 C 305.339844 166.851562 306.226562 167.507812 307.078125 168.207031 C 307.933594 168.910156 308.75 169.648438 309.53125 170.429688 C 310.3125 171.210938 311.054688 172.03125 311.753906 172.882812 C 312.453125 173.738281 313.113281 174.625 313.726562 175.542969 C 314.339844 176.460938 314.90625 177.40625 315.429688 178.378906 C 315.949219 179.355469 316.421875 180.351562 316.847656 181.371094 C 317.269531 182.390625 317.640625 183.429688 317.964844 184.488281 C 318.285156 185.542969 318.554688 186.613281 318.769531 187.695312 C 318.988281 188.78125 319.148438 189.871094 319.257812 190.96875 C 319.367188 192.070312 319.425781 193.171875 319.425781 194.277344 Z M 473.203125 192.597656 C 473.199219 193.703125 473.144531 194.804688 473.03125 195.90625 C 472.921875 197.003906 472.757812 198.097656 472.539062 199.179688 C 472.320312 200.265625 472.050781 201.335938 471.730469 202.390625 C 471.40625 203.449219 471.03125 204.488281 470.609375 205.507812 C 470.183594 206.527344 469.710938 207.523438 469.1875 208.5 C 468.664062 209.472656 468.097656 210.417969 467.480469 211.335938 C 466.867188 212.253906 466.207031 213.140625 465.507812 213.992188 C 464.804688 214.847656 464.0625 215.664062 463.28125 216.445312 C 462.5 217.226562 461.679688 217.96875 460.828125 218.667969 C 459.972656 219.367188 459.085938 220.027344 458.167969 220.640625 C 457.246094 221.253906 456.300781 221.820312 455.324219 222.34375 C 454.351562 222.863281 453.355469 223.335938 452.332031 223.757812 C 451.3125 224.183594 450.273438 224.554688 449.214844 224.875 C 448.15625 225.195312 447.085938 225.464844 446.003906 225.683594 C 444.921875 225.898438 443.828125 226.0625 442.730469 226.171875 C 441.628906 226.28125 440.527344 226.335938 439.421875 226.335938 C 439 226.335938 438.578125 226.378906 438.164062 226.460938 C 437.75 226.542969 437.347656 226.667969 436.953125 226.828125 C 436.5625 226.988281 436.191406 227.1875 435.839844 227.425781 C 435.488281 227.660156 435.164062 227.925781 434.863281 228.226562 C 434.5625 228.523438 434.296875 228.851562 434.0625 229.203125 C 433.828125 229.554688 433.628906 229.925781 433.464844 230.316406 C 433.304688 230.707031 433.179688 231.113281 433.097656 231.527344 C 433.015625 231.941406 432.976562 232.359375 432.976562 232.785156 L 432.976562 272.539062 L 361.628906 227.367188 C 360.574219 226.671875 359.414062 226.328125 358.148438 226.335938 L 332.363281 226.335938 L 332.363281 194.277344 C 332.359375 192.75 332.285156 191.226562 332.132812 189.707031 C 331.984375 188.1875 331.757812 186.679688 331.457031 185.179688 C 331.160156 183.683594 330.789062 182.203125 330.34375 180.742188 C 329.898438 179.28125 329.386719 177.847656 328.800781 176.4375 C 328.214844 175.027344 327.5625 173.648438 326.84375 172.300781 C 326.121094 170.957031 325.339844 169.648438 324.488281 168.378906 C 323.640625 167.109375 322.734375 165.882812 321.765625 164.703125 C 320.796875 163.523438 319.769531 162.394531 318.691406 161.3125 C 317.613281 160.234375 316.480469 159.210938 315.300781 158.242188 C 314.121094 157.273438 312.898438 156.363281 311.628906 155.515625 C 310.359375 154.667969 309.050781 153.882812 307.703125 153.164062 C 306.359375 152.441406 304.980469 151.789062 303.570312 151.203125 C 302.160156 150.621094 300.722656 150.105469 299.261719 149.660156 C 297.800781 149.21875 296.320312 148.84375 294.824219 148.546875 C 293.328125 148.246094 291.820312 148.023438 290.300781 147.871094 C 288.78125 147.722656 287.257812 147.644531 285.730469 147.644531 L 280.960938 147.644531 L 280.960938 121.855469 C 280.960938 120.75 281.015625 119.648438 281.125 118.550781 C 281.234375 117.453125 281.398438 116.359375 281.613281 115.277344 C 281.832031 114.195312 282.101562 113.125 282.421875 112.066406 C 282.742188 111.011719 283.117188 109.972656 283.539062 108.953125 C 283.960938 107.933594 284.433594 106.933594 284.957031 105.960938 C 285.476562 104.988281 286.042969 104.039062 286.660156 103.121094 C 287.273438 102.203125 287.929688 101.316406 288.632812 100.464844 C 289.332031 99.609375 290.074219 98.792969 290.855469 98.011719 C 291.636719 97.230469 292.453125 96.492188 293.304688 95.789062 C 294.160156 95.089844 295.046875 94.429688 295.964844 93.816406 C 296.882812 93.203125 297.828125 92.636719 298.800781 92.113281 C 299.777344 91.59375 300.773438 91.121094 301.792969 90.699219 C 302.8125 90.273438 303.851562 89.902344 304.910156 89.582031 C 305.964844 89.257812 307.035156 88.988281 308.117188 88.773438 C 309.203125 88.558594 310.292969 88.394531 311.390625 88.285156 C 312.492188 88.175781 313.59375 88.121094 314.699219 88.117188 L 439.335938 88.117188 C 440.441406 88.121094 441.542969 88.175781 442.644531 88.285156 C 443.742188 88.394531 444.835938 88.558594 445.917969 88.773438 C 447 88.988281 448.070312 89.257812 449.128906 89.578125 C 450.1875 89.902344 451.226562 90.273438 452.246094 90.695312 C 453.269531 91.121094 454.265625 91.59375 455.238281 92.113281 C 456.214844 92.632812 457.160156 93.203125 458.082031 93.816406 C 459 94.429688 459.886719 95.085938 460.742188 95.789062 C 461.59375 96.488281 462.414062 97.230469 463.195312 98.011719 C 463.976562 98.789062 464.71875 99.609375 465.421875 100.460938 C 466.121094 101.316406 466.78125 102.199219 467.394531 103.121094 C 468.011719 104.039062 468.578125 104.984375 469.101562 105.957031 C 469.625 106.929688 470.097656 107.929688 470.523438 108.949219 C 470.945312 109.96875 471.320312 111.007812 471.644531 112.066406 C 471.964844 113.121094 472.234375 114.191406 472.453125 115.273438 C 472.671875 116.359375 472.835938 117.449219 472.945312 118.550781 C 473.058594 119.648438 473.113281 120.75 473.117188 121.855469 Z M 473.203125 192.597656 " fill-opacity="1" fill-rule="nonzero"/></g><path fill="#ffffff" d="M 229.128906 186.882812 C 228.859375 186.347656 228.523438 185.863281 228.117188 185.421875 C 227.714844 184.980469 227.257812 184.605469 226.75 184.292969 C 226.242188 183.980469 225.699219 183.742188 225.125 183.578125 C 224.550781 183.414062 223.964844 183.332031 223.367188 183.332031 C 222.769531 183.332031 222.183594 183.414062 221.609375 183.578125 C 221.035156 183.742188 220.492188 183.980469 219.984375 184.292969 C 219.476562 184.605469 219.019531 184.980469 218.617188 185.421875 C 218.214844 185.863281 217.878906 186.347656 217.609375 186.882812 L 177.855469 265.191406 C 177.636719 265.570312 177.460938 265.964844 177.324219 266.378906 C 177.1875 266.796875 177.09375 267.21875 177.042969 267.652344 C 176.996094 268.085938 176.988281 268.519531 177.027344 268.957031 C 177.0625 269.390625 177.144531 269.816406 177.269531 270.234375 C 177.394531 270.652344 177.5625 271.054688 177.765625 271.441406 C 177.972656 271.824219 178.214844 272.183594 178.496094 272.519531 C 178.777344 272.855469 179.085938 273.160156 179.425781 273.433594 C 179.769531 273.703125 180.132812 273.941406 180.523438 274.136719 C 180.910156 274.335938 181.316406 274.492188 181.738281 274.609375 C 182.15625 274.726562 182.585938 274.796875 183.023438 274.824219 C 183.457031 274.855469 183.890625 274.839844 184.324219 274.78125 C 184.757812 274.722656 185.179688 274.617188 185.589844 274.472656 C 186.003906 274.328125 186.394531 274.144531 186.769531 273.917969 C 187.144531 273.695312 187.492188 273.433594 187.8125 273.136719 C 188.132812 272.84375 188.421875 272.519531 188.679688 272.164062 C 188.933594 271.808594 189.148438 271.433594 189.328125 271.035156 L 203.039062 244.042969 L 243.695312 244.042969 L 257.234375 271.035156 C 257.414062 271.433594 257.632812 271.808594 257.886719 272.164062 C 258.140625 272.519531 258.429688 272.84375 258.75 273.136719 C 259.074219 273.433594 259.421875 273.695312 259.792969 273.917969 C 260.167969 274.144531 260.5625 274.328125 260.972656 274.472656 C 261.386719 274.617188 261.808594 274.722656 262.242188 274.78125 C 262.671875 274.839844 263.105469 274.855469 263.542969 274.828125 C 263.976562 274.796875 264.40625 274.726562 264.828125 274.609375 C 265.25 274.492188 265.652344 274.335938 266.042969 274.136719 C 266.429688 273.941406 266.796875 273.703125 267.136719 273.433594 C 267.480469 273.160156 267.789062 272.855469 268.070312 272.519531 C 268.347656 272.183594 268.589844 271.824219 268.796875 271.441406 C 269.003906 271.054688 269.167969 270.65625 269.292969 270.234375 C 269.417969 269.816406 269.5 269.390625 269.539062 268.957031 C 269.578125 268.519531 269.570312 268.085938 269.519531 267.652344 C 269.46875 267.21875 269.375 266.796875 269.242188 266.378906 C 269.105469 265.964844 268.925781 265.570312 268.710938 265.191406 Z M 209.570312 231.152344 L 223.367188 204.03125 L 237.121094 231.152344 Z M 209.570312 231.152344 " fill-opacity="1" fill-rule="nonzero"/><path fill="#ffffff" d="M 414.753906 187.484375 L 389.609375 170.550781 C 394.828125 162.296875 399.128906 153.585938 402.503906 144.421875 L 411.097656 144.421875 C 411.523438 144.421875 411.941406 144.378906 412.355469 144.296875 C 412.773438 144.214844 413.175781 144.089844 413.566406 143.929688 C 413.957031 143.765625 414.328125 143.570312 414.679688 143.332031 C 415.03125 143.097656 415.359375 142.832031 415.65625 142.53125 C 415.957031 142.234375 416.222656 141.90625 416.460938 141.554688 C 416.695312 141.203125 416.894531 140.832031 417.054688 140.441406 C 417.21875 140.050781 417.339844 139.644531 417.421875 139.230469 C 417.503906 138.816406 417.546875 138.398438 417.546875 137.972656 C 417.546875 137.550781 417.503906 137.128906 417.421875 136.714844 C 417.339844 136.300781 417.21875 135.898438 417.054688 135.507812 C 416.894531 135.113281 416.695312 134.742188 416.460938 134.390625 C 416.222656 134.039062 415.957031 133.714844 415.65625 133.414062 C 415.359375 133.117188 415.03125 132.847656 414.679688 132.613281 C 414.328125 132.378906 413.957031 132.179688 413.566406 132.015625 C 413.175781 131.855469 412.773438 131.734375 412.355469 131.652344 C 411.941406 131.566406 411.523438 131.527344 411.097656 131.527344 L 385.054688 131.527344 L 385.054688 118.117188 C 385.054688 117.695312 385.011719 117.273438 384.929688 116.859375 C 384.847656 116.445312 384.726562 116.042969 384.5625 115.648438 C 384.402344 115.257812 384.203125 114.886719 383.96875 114.535156 C 383.730469 114.183594 383.464844 113.859375 383.164062 113.558594 C 382.867188 113.257812 382.539062 112.992188 382.1875 112.757812 C 381.835938 112.523438 381.464844 112.324219 381.074219 112.160156 C 380.683594 112 380.28125 111.875 379.863281 111.792969 C 379.449219 111.710938 379.03125 111.671875 378.605469 111.671875 C 378.183594 111.671875 377.765625 111.710938 377.347656 111.792969 C 376.933594 111.875 376.53125 112 376.140625 112.160156 C 375.75 112.324219 375.378906 112.523438 375.023438 112.757812 C 374.671875 112.992188 374.347656 113.257812 374.046875 113.558594 C 373.75 113.859375 373.480469 114.183594 373.246094 114.535156 C 373.011719 114.886719 372.8125 115.257812 372.652344 115.648438 C 372.488281 116.042969 372.367188 116.445312 372.285156 116.859375 C 372.203125 117.273438 372.160156 117.695312 372.160156 118.117188 L 372.160156 131.527344 L 343.191406 131.527344 C 342.769531 131.527344 342.351562 131.566406 341.933594 131.652344 C 341.519531 131.734375 341.117188 131.855469 340.726562 132.015625 C 340.335938 132.179688 339.964844 132.378906 339.609375 132.613281 C 339.257812 132.847656 338.933594 133.117188 338.632812 133.414062 C 338.335938 133.714844 338.066406 134.039062 337.832031 134.390625 C 337.597656 134.742188 337.398438 135.113281 337.238281 135.507812 C 337.074219 135.898438 336.953125 136.300781 336.871094 136.714844 C 336.789062 137.128906 336.746094 137.550781 336.746094 137.972656 C 336.746094 138.398438 336.789062 138.816406 336.871094 139.230469 C 336.953125 139.644531 337.074219 140.050781 337.238281 140.441406 C 337.398438 140.832031 337.597656 141.203125 337.832031 141.554688 C 338.066406 141.90625 338.335938 142.234375 338.632812 142.53125 C 338.933594 142.832031 339.257812 143.097656 339.609375 143.332031 C 339.964844 143.570312 340.335938 143.765625 340.726562 143.929688 C 341.117188 144.089844 341.519531 144.214844 341.933594 144.296875 C 342.351562 144.378906 342.769531 144.421875 343.191406 144.421875 L 388.792969 144.421875 C 386.039062 150.992188 382.746094 157.28125 378.90625 163.289062 L 362.703125 152.371094 C 362.347656 152.132812 361.96875 151.933594 361.570312 151.769531 C 361.171875 151.605469 360.761719 151.484375 360.339844 151.402344 C 359.917969 151.320312 359.492188 151.28125 359.0625 151.28125 C 358.632812 151.28125 358.207031 151.328125 357.785156 151.414062 C 357.363281 151.496094 356.953125 151.625 356.558594 151.789062 C 356.160156 151.957031 355.785156 152.160156 355.429688 152.398438 C 355.074219 152.640625 354.742188 152.914062 354.441406 153.21875 C 354.136719 153.523438 353.867188 153.855469 353.628906 154.214844 C 353.394531 154.574219 353.191406 154.953125 353.03125 155.351562 C 352.867188 155.75 352.746094 156.160156 352.664062 156.582031 C 352.582031 157.003906 352.542969 157.429688 352.542969 157.859375 C 352.546875 158.289062 352.589844 158.714844 352.675781 159.136719 C 352.761719 159.558594 352.890625 159.964844 353.054688 160.363281 C 353.222656 160.757812 353.425781 161.136719 353.667969 161.492188 C 353.910156 161.847656 354.183594 162.175781 354.488281 162.480469 C 354.792969 162.78125 355.125 163.050781 355.484375 163.289062 L 371.472656 174.03125 C 366.460938 180.371094 360.917969 186.199219 354.839844 191.523438 C 354.523438 191.808594 354.238281 192.117188 353.980469 192.457031 C 353.726562 192.796875 353.503906 193.15625 353.320312 193.539062 C 353.136719 193.917969 352.988281 194.316406 352.882812 194.726562 C 352.777344 195.136719 352.710938 195.554688 352.6875 195.976562 C 352.660156 196.402344 352.679688 196.824219 352.738281 197.246094 C 352.796875 197.664062 352.894531 198.074219 353.035156 198.476562 C 353.171875 198.878906 353.351562 199.261719 353.566406 199.625 C 353.777344 199.992188 354.027344 200.335938 354.308594 200.652344 C 354.589844 200.96875 354.902344 201.253906 355.238281 201.511719 C 355.578125 201.769531 355.9375 201.988281 356.320312 202.171875 C 356.703125 202.359375 357.097656 202.503906 357.507812 202.613281 C 357.917969 202.71875 358.335938 202.785156 358.761719 202.8125 C 359.183594 202.835938 359.605469 202.820312 360.027344 202.761719 C 360.445312 202.703125 360.859375 202.605469 361.257812 202.46875 C 361.660156 202.328125 362.042969 202.152344 362.410156 201.9375 C 362.777344 201.722656 363.117188 201.476562 363.4375 201.195312 C 370.347656 195.136719 376.636719 188.488281 382.304688 181.253906 L 407.660156 198.445312 C 408.738281 199.167969 409.929688 199.527344 411.226562 199.519531 C 411.917969 199.515625 412.585938 199.40625 413.242188 199.191406 C 413.894531 198.972656 414.496094 198.660156 415.050781 198.25 C 415.601562 197.839844 416.078125 197.355469 416.476562 196.792969 C 416.871094 196.230469 417.171875 195.621094 417.375 194.960938 C 417.574219 194.304688 417.671875 193.628906 417.65625 192.941406 C 417.640625 192.253906 417.519531 191.585938 417.292969 190.933594 C 417.066406 190.285156 416.742188 189.6875 416.320312 189.140625 C 415.902344 188.597656 415.40625 188.128906 414.839844 187.742188 Z M 414.753906 187.484375 " fill-opacity="1" fill-rule="nonzero"/><g fill="#ffffff" fill-opacity="1"><g transform="translate(243.134757, 530.291589)"><g><path d="M 0.625 8.625 C -0.78125 8.625 -2.003906 8.476562 -3.046875 8.1875 L -3.046875 3 C -1.972656 3.269531 -1 3.40625 -0.125 3.40625 C 1.238281 3.40625 2.210938 2.976562 2.796875 2.125 C 3.390625 1.28125 3.6875 -0.0390625 3.6875 -1.84375 L 3.6875 -29.3125 L 9.90625 -29.3125 L 9.90625 -1.890625 C 9.90625 1.535156 9.125 4.144531 7.5625 5.9375 C 6 7.726562 3.6875 8.625 0.625 8.625 Z M 0.625 8.625 "/></g></g></g><g fill="#ffffff" fill-opacity="1"><g transform="translate(256.728689, 530.291589)"><g><path d="M 20.578125 0 L 3.6875 0 L 3.6875 -29.3125 L 20.578125 -29.3125 L 20.578125 -24.21875 L 9.90625 -24.21875 L 9.90625 -17.78125 L 19.828125 -17.78125 L 19.828125 -12.6875 L 9.90625 -12.6875 L 9.90625 -5.140625 L 20.578125 -5.140625 Z M 20.578125 0 "/></g></g></g><g fill="#ffffff" fill-opacity="1"><g transform="translate(279.726094, 530.291589)"><g><path d="M 22.796875 0 L 0.984375 0 L 0.984375 -4.03125 L 15.03125 -24.1875 L 1.359375 -24.1875 L 1.359375 -29.3125 L 22.421875 -29.3125 L 22.421875 -25.296875 L 8.375 -5.140625 L 22.796875 -5.140625 Z M 22.796875 0 "/></g></g></g><g fill="#ffffff" fill-opacity="1"><g transform="translate(303.505451, 530.291589)"><g><path d="M 3.6875 0 L 3.6875 -29.3125 L 9.90625 -29.3125 L 9.90625 0 Z M 3.6875 0 "/></g></g></g><g fill="#ffffff" fill-opacity="1"><g transform="translate(317.099384, 530.291589)"><g><path d="M 16.140625 -24.5625 C 13.796875 -24.5625 11.984375 -23.679688 10.703125 -21.921875 C 9.421875 -20.160156 8.78125 -17.710938 8.78125 -14.578125 C 8.78125 -8.035156 11.234375 -4.765625 16.140625 -4.765625 C 18.203125 -4.765625 20.695312 -5.28125 23.625 -6.3125 L 23.625 -1.109375 C 21.21875 -0.0976562 18.53125 0.40625 15.5625 0.40625 C 11.289062 0.40625 8.023438 -0.882812 5.765625 -3.46875 C 3.515625 -6.0625 2.390625 -9.773438 2.390625 -14.609375 C 2.390625 -17.660156 2.941406 -20.332031 4.046875 -22.625 C 5.160156 -24.914062 6.753906 -26.671875 8.828125 -27.890625 C 10.910156 -29.117188 13.347656 -29.734375 16.140625 -29.734375 C 18.984375 -29.734375 21.84375 -29.046875 24.71875 -27.671875 L 22.71875 -22.609375 C 21.625 -23.128906 20.519531 -23.582031 19.40625 -23.96875 C 18.300781 -24.363281 17.210938 -24.5625 16.140625 -24.5625 Z M 16.140625 -24.5625 "/></g></g></g><g fill="#ffffff" fill-opacity="1"><g transform="translate(343.264696, 530.291589)"><g><path d="M 3.6875 0 L 3.6875 -29.3125 L 9.90625 -29.3125 L 9.90625 0 Z M 3.6875 0 "/></g></g></g></svg>