<svg xmlns="http://www.w3.org/2000/svg" xmlns:xlink="http://www.w3.org/1999/xlink" width="300" zoomAndPan="magnify" viewBox="0 0 224.87999 149.999998" height="200" preserveAspectRatio="xMidYMid meet" version="1.0"><defs><clipPath id="39db0c139e"><path d="M 18.738281 69 L 136 69 L 136 149.960938 L 18.738281 149.960938 Z M 18.738281 69 " clip-rule="nonzero"/></clipPath><clipPath id="b15094ce7c"><path d="M 146 0.0390625 L 206.140625 0.0390625 L 206.140625 60 L 146 60 Z M 146 0.0390625 " clip-rule="nonzero"/></clipPath></defs><g clip-path="url(#39db0c139e)"><path fill="#ffffff" d="M 130.304688 141.402344 L 97.511719 107.761719 L 113.898438 92.65625 C 113.859375 92.617188 113.820312 92.578125 113.78125 92.539062 C 112.675781 91.414062 111.574219 90.273438 110.507812 89.128906 L 80.753906 116.496094 C 78.644531 118.449219 75.3125 118.449219 73.199219 116.496094 L 27.496094 74.417969 L 99.089844 74.417969 C 98.027344 72.800781 97.019531 71.144531 96.113281 69.488281 L 21.203125 69.488281 C 19.84375 69.488281 18.738281 70.59375 18.738281 71.953125 L 18.738281 147.453125 C 18.738281 148.8125 19.84375 149.917969 21.203125 149.917969 L 132.769531 149.917969 C 134.148438 149.917969 135.234375 148.8125 135.234375 147.453125 L 135.234375 109.300781 C 133.578125 108.3125 131.941406 107.289062 130.304688 106.203125 Z M 23.667969 77.574219 L 56.441406 107.761719 L 23.667969 141.402344 Z M 27.042969 145.007812 L 60.089844 111.09375 L 69.886719 120.125 C 71.878906 121.9375 74.445312 122.886719 77.007812 122.886719 C 79.570312 122.886719 82.09375 121.957031 84.085938 120.125 L 93.886719 111.09375 L 126.933594 145.007812 Z M 27.042969 145.007812 " fill-opacity="1" fill-rule="nonzero"/></g><path fill="#ffffff" d="M 146.710938 39.042969 C 146.492188 40.386719 147.398438 41.648438 148.742188 41.882812 C 152.664062 42.535156 156.214844 44.367188 159.054688 47.1875 C 161.871094 50.007812 163.707031 53.578125 164.378906 57.5 C 164.574219 58.703125 165.621094 59.550781 166.800781 59.550781 C 166.941406 59.550781 167.078125 59.53125 167.214844 59.511719 C 168.558594 59.292969 169.464844 58.011719 169.246094 56.671875 C 168.417969 51.742188 166.113281 47.246094 162.5625 43.699219 C 159.015625 40.148438 154.519531 37.820312 149.589844 37.011719 C 148.1875 36.796875 146.945312 37.703125 146.710938 39.042969 Z M 146.710938 39.042969 " fill-opacity="1" fill-rule="nonzero"/><path fill="#ffffff" d="M 182.773438 57.324219 C 182.890625 58.605469 183.957031 59.570312 185.21875 59.570312 C 185.296875 59.570312 185.375 59.570312 185.4375 59.550781 C 186.796875 59.433594 187.78125 58.230469 187.664062 56.871094 C 186.777344 47.03125 182.4375 37.761719 175.4375 30.761719 C 168.457031 23.78125 159.191406 19.445312 149.332031 18.539062 C 147.972656 18.398438 146.789062 19.40625 146.652344 20.765625 C 146.53125 22.125 147.519531 23.308594 148.878906 23.445312 C 157.574219 24.234375 165.777344 28.082031 171.949219 34.253906 C 178.160156 40.425781 181.984375 48.628906 182.773438 57.324219 Z M 182.773438 57.324219 " fill-opacity="1" fill-rule="nonzero"/><g clip-path="url(#b15094ce7c)"><path fill="#ffffff" d="M 188.414062 17.828125 C 177.941406 7.355469 164.0625 1.105469 149.292969 0.179688 C 147.953125 0.0820312 146.769531 1.125 146.691406 2.488281 C 146.609375 3.847656 147.636719 5.011719 148.996094 5.089844 C 162.5625 5.9375 175.320312 11.675781 184.941406 21.296875 C 194.566406 30.921875 200.324219 43.679688 201.152344 57.242188 C 201.230469 58.546875 202.316406 59.550781 203.597656 59.550781 C 203.65625 59.550781 203.695312 59.550781 203.753906 59.550781 C 205.113281 59.472656 206.140625 58.308594 206.0625 56.949219 C 205.152344 42.179688 198.882812 28.277344 188.414062 17.828125 Z M 188.414062 17.828125 " fill-opacity="1" fill-rule="nonzero"/></g><path fill="#ffffff" d="M 186.226562 82.089844 L 167.296875 72.289062 C 162.820312 69.980469 157.316406 71.183594 154.222656 75.148438 L 149.511719 81.203125 C 144.914062 78.519531 140.675781 75.523438 135.726562 70.574219 C 130.601562 65.445312 127.640625 61.265625 124.941406 56.496094 L 130.914062 51.820312 C 134.878906 48.726562 136.082031 43.222656 133.773438 38.75 L 124.035156 19.957031 C 122.652344 17.316406 120.230469 15.363281 117.351562 14.632812 C 114.472656 13.882812 111.394531 14.417969 108.910156 16.054688 L 96.84375 24.097656 C 92.800781 26.800781 90.492188 31.492188 90.808594 36.324219 C 91.046875 39.714844 91.5 44.464844 92.386719 47.878906 C 96.074219 62.09375 104.90625 76.707031 117.25 89.050781 C 129.59375 101.390625 144.207031 110.226562 158.421875 113.914062 C 161.851562 114.800781 166.625 115.253906 170.054688 115.472656 C 170.351562 115.492188 170.628906 115.492188 170.921875 115.492188 C 175.578125 115.492188 179.855469 113.164062 182.359375 109.242188 L 190.207031 97.054688 C 191.804688 94.570312 192.277344 91.515625 191.507812 88.675781 C 190.78125 85.855469 188.847656 83.449219 186.226562 82.089844 Z M 186.085938 94.414062 L 178.21875 106.597656 C 176.621094 109.101562 173.882812 110.582031 170.921875 110.582031 C 170.726562 110.582031 170.527344 110.582031 170.371094 110.5625 C 167.175781 110.34375 162.742188 109.929688 159.683594 109.140625 C 146.296875 105.652344 132.472656 97.292969 120.742188 85.558594 C 109.007812 73.828125 100.628906 60.003906 97.160156 46.636719 C 96.371094 43.578125 95.957031 39.164062 95.738281 35.988281 C 95.542969 32.890625 97 29.894531 99.582031 28.179688 L 111.652344 20.132812 C 112.558594 19.523438 113.644531 19.207031 114.726562 19.207031 C 115.199219 19.207031 115.652344 19.265625 116.128906 19.386719 C 117.664062 19.78125 118.945312 20.804688 119.675781 22.203125 L 129.417969 41.035156 C 130.640625 43.402344 130.007812 46.320312 127.898438 47.976562 L 120.25 53.929688 C 119.300781 54.679688 119.027344 55.980469 119.597656 57.046875 C 122.734375 62.804688 126.085938 67.910156 132.238281 74.0625 C 138.230469 80.058594 143.238281 83.390625 148.9375 86.542969 C 150.003906 87.136719 151.324219 86.859375 152.074219 85.914062 L 158.105469 78.183594 C 159.742188 76.074219 162.660156 75.445312 165.046875 76.667969 L 183.976562 86.445312 C 185.355469 87.175781 186.402344 88.4375 186.796875 89.957031 C 187.171875 91.472656 186.933594 93.089844 186.085938 94.414062 Z M 186.085938 94.414062 " fill-opacity="1" fill-rule="nonzero"/></svg>