<svg xmlns="http://www.w3.org/2000/svg" xmlns:xlink="http://www.w3.org/1999/xlink" width="800" zoomAndPan="magnify" viewBox="0 0 600 599.999999" height="800" preserveAspectRatio="xMidYMid meet" version="1.0"><defs><g/><clipPath id="e82aa9ffbd"><path d="M 153 61 L 458.402344 61 L 458.402344 409 L 153 409 Z M 153 61 " clip-rule="nonzero"/></clipPath></defs><g clip-path="url(#e82aa9ffbd)"><path fill="#ffffff" d="M 208.675781 353.019531 C 218.152344 362.492188 228.292969 371.1875 239.101562 379.109375 C 249.910156 387.027344 261.261719 394.078125 273.148438 400.257812 C 278.425781 403.035156 283.957031 405.136719 289.746094 406.5625 C 295.535156 407.988281 301.410156 408.695312 307.371094 408.691406 C 344.148438 411.695312 403.1875 362.339844 360.492188 330.785156 L 338.535156 317.625 C 337.539062 317.03125 336.515625 316.496094 335.460938 316.019531 C 334.40625 315.539062 333.324219 315.125 332.222656 314.769531 C 331.121094 314.414062 330.003906 314.121094 328.867188 313.894531 C 327.730469 313.667969 326.585938 313.503906 325.433594 313.40625 C 324.277344 313.308594 323.125 313.277344 321.964844 313.308594 C 320.808594 313.34375 319.65625 313.441406 318.511719 313.605469 C 317.363281 313.769531 316.230469 314 315.109375 314.292969 C 313.988281 314.585938 312.890625 314.941406 311.808594 315.359375 C 310.730469 315.777344 309.675781 316.253906 308.648438 316.789062 C 307.625 317.328125 306.632812 317.921875 305.675781 318.574219 C 304.714844 319.222656 303.796875 319.925781 302.917969 320.679688 C 302.039062 321.433594 301.207031 322.234375 300.417969 323.085938 C 299.632812 323.933594 298.894531 324.824219 298.210938 325.757812 C 297.523438 326.691406 296.890625 327.660156 296.316406 328.664062 C 295.738281 329.667969 295.222656 330.703125 294.761719 331.765625 C 294.304688 332.828125 293.90625 333.914062 293.570312 335.023438 C 293.40625 335.617188 293.117188 336.140625 292.703125 336.597656 C 292.289062 337.050781 291.796875 337.390625 291.222656 337.613281 C 290.710938 337.820312 290.179688 337.894531 289.628906 337.84375 C 289.078125 337.792969 288.570312 337.621094 288.105469 337.324219 C 281.578125 333.421875 275.316406 329.132812 269.316406 324.457031 C 263.320312 319.78125 257.628906 314.757812 252.25 309.382812 C 246.867188 304.011719 241.835938 298.328125 237.15625 292.335938 C 232.472656 286.339844 228.175781 280.085938 224.265625 273.5625 C 224.117188 273.339844 223.996094 273.101562 223.898438 272.847656 C 223.804688 272.597656 223.742188 272.335938 223.707031 272.070312 C 223.667969 271.804688 223.664062 271.535156 223.691406 271.269531 C 223.714844 271 223.773438 270.738281 223.859375 270.484375 C 223.945312 270.226562 224.058594 269.984375 224.199219 269.753906 C 224.339844 269.527344 224.503906 269.316406 224.691406 269.125 C 224.882812 268.933594 225.089844 268.761719 225.316406 268.621094 C 225.542969 268.476562 225.785156 268.359375 226.039062 268.269531 C 228.953125 267.433594 231.6875 266.1875 234.234375 264.539062 C 236.78125 262.890625 239.03125 260.910156 240.988281 258.589844 L 433.535156 258.589844 C 434.34375 258.589844 435.152344 258.546875 435.953125 258.464844 C 436.757812 258.386719 437.554688 258.265625 438.347656 258.105469 C 439.140625 257.945312 439.921875 257.75 440.695312 257.511719 C 441.46875 257.277344 442.230469 257.003906 442.976562 256.691406 C 443.722656 256.382812 444.449219 256.035156 445.160156 255.652344 C 445.875 255.269531 446.566406 254.855469 447.238281 254.40625 C 447.90625 253.953125 448.554688 253.472656 449.179688 252.960938 C 449.804688 252.445312 450.402344 251.902344 450.972656 251.332031 C 451.542969 250.757812 452.082031 250.160156 452.59375 249.535156 C 453.105469 248.910156 453.585938 248.261719 454.035156 247.585938 C 454.484375 246.914062 454.898438 246.222656 455.277344 245.507812 C 455.660156 244.796875 456.003906 244.066406 456.3125 243.320312 C 456.621094 242.574219 456.890625 241.8125 457.125 241.039062 C 457.359375 240.265625 457.554688 239.484375 457.710938 238.691406 C 457.871094 237.898438 457.988281 237.097656 458.066406 236.292969 C 458.144531 235.488281 458.183594 234.683594 458.183594 233.875 L 458.183594 86.144531 C 458.183594 85.339844 458.144531 84.535156 458.0625 83.730469 C 457.980469 82.929688 457.863281 82.132812 457.703125 81.339844 C 457.546875 80.550781 457.351562 79.765625 457.113281 78.996094 C 456.878906 78.222656 456.609375 77.464844 456.296875 76.71875 C 455.988281 75.972656 455.644531 75.246094 455.261719 74.535156 C 454.882812 73.824219 454.46875 73.132812 454.019531 72.460938 C 453.570312 71.789062 453.089844 71.140625 452.578125 70.519531 C 452.066406 69.894531 451.523438 69.296875 450.953125 68.726562 C 450.382812 68.15625 449.785156 67.617188 449.164062 67.101562 C 448.539062 66.589844 447.890625 66.109375 447.222656 65.660156 C 446.550781 65.214844 445.859375 64.796875 445.148438 64.417969 C 444.4375 64.035156 443.707031 63.691406 442.964844 63.382812 C 442.21875 63.074219 441.460938 62.800781 440.6875 62.566406 C 439.914062 62.332031 439.132812 62.132812 438.34375 61.976562 C 437.550781 61.816406 436.753906 61.699219 435.949219 61.617188 C 435.148438 61.539062 434.34375 61.496094 433.535156 61.496094 L 221.097656 61.496094 C 220.292969 61.496094 219.488281 61.539062 218.683594 61.617188 C 217.882812 61.699219 217.085938 61.820312 216.292969 61.976562 C 215.503906 62.136719 214.71875 62.332031 213.949219 62.570312 C 213.175781 62.804688 212.417969 63.078125 211.671875 63.386719 C 210.929688 63.695312 210.199219 64.039062 209.488281 64.421875 C 208.777344 64.800781 208.085938 65.21875 207.417969 65.664062 C 206.746094 66.113281 206.097656 66.59375 205.476562 67.105469 C 204.851562 67.617188 204.253906 68.160156 203.683594 68.730469 C 203.113281 69.300781 202.570312 69.898438 202.058594 70.523438 C 201.546875 71.144531 201.066406 71.792969 200.621094 72.464844 C 200.171875 73.132812 199.757812 73.824219 199.375 74.535156 C 198.996094 75.246094 198.648438 75.976562 198.339844 76.722656 C 198.03125 77.464844 197.757812 78.226562 197.523438 78.996094 C 197.289062 79.769531 197.089844 80.550781 196.933594 81.339844 C 196.773438 82.132812 196.652344 82.929688 196.574219 83.730469 C 196.492188 84.535156 196.453125 85.339844 196.449219 86.144531 L 196.449219 187.53125 C 157.429688 203.027344 141.96875 252.261719 161.449219 288.746094 C 167.65625 300.585938 174.71875 311.890625 182.636719 322.664062 C 190.550781 333.4375 199.230469 343.554688 208.675781 353.019531 Z M 228.777344 198.125 C 227.554688 196.585938 226.195312 195.171875 224.703125 193.886719 C 223.210938 192.601562 221.613281 191.46875 219.910156 190.484375 C 218.203125 189.5 216.421875 188.683594 214.5625 188.039062 C 212.703125 187.390625 210.796875 186.925781 208.851562 186.636719 L 208.851562 86.144531 C 208.859375 85.214844 208.96875 84.296875 209.1875 83.394531 L 294.570312 171.933594 L 239.457031 215.460938 C 237.847656 212.949219 230.535156 200.136719 228.777344 198.125 Z M 247.425781 246.191406 C 248.210938 242.875 248.453125 239.523438 248.152344 236.132812 C 247.851562 232.738281 247.023438 229.480469 245.667969 226.359375 L 303.257812 180.875 C 304.042969 181.667969 304.867188 182.417969 305.726562 183.128906 C 306.589844 183.839844 307.480469 184.503906 308.410156 185.125 C 309.335938 185.75 310.289062 186.324219 311.273438 186.851562 C 312.253906 187.378906 313.261719 187.855469 314.292969 188.285156 C 315.324219 188.714844 316.371094 189.089844 317.4375 189.414062 C 318.507812 189.738281 319.585938 190.011719 320.679688 190.230469 C 321.777344 190.449219 322.878906 190.613281 323.988281 190.722656 C 325.097656 190.832031 326.210938 190.886719 327.328125 190.886719 C 328.441406 190.886719 329.554688 190.828125 330.667969 190.71875 C 331.777344 190.609375 332.878906 190.445312 333.972656 190.226562 C 335.066406 190.007812 336.148438 189.734375 337.214844 189.410156 C 338.28125 189.085938 339.332031 188.707031 340.359375 188.277344 C 341.390625 187.851562 342.398438 187.371094 343.378906 186.84375 C 344.363281 186.316406 345.316406 185.742188 346.242188 185.117188 C 347.167969 184.496094 348.0625 183.828125 348.921875 183.121094 C 349.785156 182.410156 350.605469 181.65625 351.394531 180.867188 L 434.078125 246.136719 C 434.0625 246.367188 247.625 246.085938 247.425781 246.191406 Z M 445.445312 83.394531 C 445.664062 84.296875 445.777344 85.214844 445.785156 86.144531 L 445.785156 233.875 C 445.785156 235.578125 445.441406 237.210938 444.761719 238.773438 L 360.074219 171.925781 Z M 433.535156 73.894531 C 434.675781 73.910156 435.785156 74.085938 436.875 74.417969 L 342.796875 171.984375 C 342.285156 172.484375 341.753906 172.964844 341.199219 173.414062 C 340.644531 173.867188 340.066406 174.289062 339.46875 174.683594 C 338.875 175.078125 338.257812 175.445312 337.625 175.78125 C 336.992188 176.113281 336.347656 176.417969 335.683594 176.691406 C 335.023438 176.960938 334.347656 177.203125 333.664062 177.40625 C 332.976562 177.613281 332.285156 177.785156 331.582031 177.925781 C 330.878906 178.0625 330.171875 178.167969 329.460938 178.238281 C 328.746094 178.308594 328.03125 178.34375 327.316406 178.339844 C 326.601562 178.339844 325.886719 178.308594 325.175781 178.238281 C 324.460938 178.167969 323.753906 178.0625 323.050781 177.925781 C 322.351562 177.785156 321.65625 177.613281 320.972656 177.40625 C 320.285156 177.199219 319.613281 176.960938 318.949219 176.6875 C 318.289062 176.417969 317.640625 176.113281 317.007812 175.777344 C 316.375 175.441406 315.761719 175.078125 315.164062 174.683594 C 314.566406 174.285156 313.992188 173.863281 313.433594 173.410156 C 312.878906 172.960938 312.347656 172.484375 311.839844 171.980469 L 217.757812 74.417969 C 218.847656 74.085938 219.960938 73.910156 221.097656 73.894531 Z M 195.378906 201.347656 C 195.890625 201.046875 196.414062 200.769531 196.949219 200.515625 C 197.488281 200.265625 198.035156 200.042969 198.597656 199.84375 C 199.15625 199.644531 199.722656 199.476562 200.300781 199.335938 C 200.875 199.191406 201.457031 199.078125 202.042969 198.992188 C 202.628906 198.90625 203.21875 198.851562 203.8125 198.820312 C 204.40625 198.792969 205 198.796875 205.589844 198.824219 C 206.183594 198.855469 206.773438 198.914062 207.359375 199 C 207.945312 199.085938 208.527344 199.203125 209.101562 199.347656 C 209.679688 199.492188 210.246094 199.664062 210.804688 199.863281 C 211.363281 200.0625 211.910156 200.289062 212.449219 200.539062 C 212.984375 200.792969 213.507812 201.070312 214.015625 201.375 C 214.527344 201.679688 215.019531 202.007812 215.5 202.359375 C 215.976562 202.710938 216.433594 203.085938 216.875 203.480469 C 217.316406 203.878906 217.738281 204.296875 218.136719 204.734375 C 218.539062 205.171875 218.917969 205.628906 219.273438 206.101562 C 219.628906 206.578125 219.960938 207.066406 220.269531 207.574219 L 232.460938 227.96875 C 232.894531 228.574219 233.289062 229.203125 233.644531 229.855469 C 234 230.507812 234.3125 231.175781 234.585938 231.867188 C 234.863281 232.558594 235.09375 233.261719 235.28125 233.980469 C 235.472656 234.699219 235.617188 235.425781 235.71875 236.160156 C 235.820312 236.894531 235.875 237.632812 235.886719 238.378906 C 235.902344 239.121094 235.867188 239.859375 235.789062 240.597656 C 235.710938 241.335938 235.589844 242.070312 235.425781 242.792969 C 235.257812 243.515625 235.050781 244.226562 234.796875 244.925781 C 234.546875 245.625 234.253906 246.304688 233.917969 246.96875 C 233.582031 247.632812 233.210938 248.273438 232.800781 248.890625 C 232.386719 249.507812 231.941406 250.097656 231.457031 250.664062 C 230.972656 251.226562 230.457031 251.757812 229.910156 252.261719 C 229.363281 252.761719 228.785156 253.230469 228.183594 253.660156 C 227.578125 254.09375 226.949219 254.488281 226.300781 254.84375 C 225.648438 255.199219 224.976562 255.515625 224.289062 255.789062 C 223.597656 256.0625 222.894531 256.296875 222.175781 256.488281 C 221.613281 256.683594 221.066406 256.90625 220.53125 257.164062 C 219.992188 257.417969 219.472656 257.703125 218.96875 258.019531 C 218.464844 258.332031 217.976562 258.671875 217.511719 259.039062 C 217.042969 259.40625 216.597656 259.800781 216.175781 260.214844 C 215.75 260.632812 215.351562 261.070312 214.976562 261.53125 C 214.601562 261.992188 214.253906 262.472656 213.929688 262.972656 C 213.609375 263.472656 213.316406 263.988281 213.050781 264.519531 C 212.785156 265.050781 212.550781 265.597656 212.347656 266.15625 C 212.140625 266.710938 211.96875 267.28125 211.828125 267.855469 C 211.683594 268.433594 211.574219 269.015625 211.5 269.605469 C 211.421875 270.195312 211.375 270.789062 211.363281 271.382812 C 211.351562 271.976562 211.375 272.570312 211.429688 273.160156 C 211.480469 273.753906 211.570312 274.339844 211.6875 274.921875 C 211.804688 275.503906 211.957031 276.078125 212.140625 276.644531 C 212.320312 277.207031 212.535156 277.761719 212.777344 278.304688 C 213.023438 278.847656 213.296875 279.375 213.597656 279.886719 C 221.992188 293.871094 231.960938 306.628906 243.5 318.160156 C 254.988281 329.695312 267.726562 339.628906 281.71875 347.949219 C 282.246094 348.261719 282.789062 348.539062 283.347656 348.789062 C 283.910156 349.039062 284.480469 349.253906 285.066406 349.4375 C 285.652344 349.621094 286.242188 349.769531 286.84375 349.886719 C 287.445312 350.003906 288.054688 350.085938 288.664062 350.132812 C 289.273438 350.179688 289.886719 350.195312 290.5 350.171875 C 291.109375 350.152344 291.71875 350.09375 292.324219 350.003906 C 292.933594 349.914062 293.53125 349.789062 294.121094 349.628906 C 294.714844 349.46875 295.296875 349.277344 295.863281 349.054688 C 296.433594 348.828125 296.992188 348.570312 297.53125 348.285156 C 298.070312 347.996094 298.59375 347.679688 299.101562 347.332031 C 299.605469 346.984375 300.089844 346.609375 300.550781 346.207031 C 301.011719 345.804688 301.449219 345.378906 301.863281 344.925781 C 302.277344 344.476562 302.664062 344 303.027344 343.507812 C 303.386719 343.011719 303.71875 342.496094 304.019531 341.960938 C 304.320312 341.429688 304.589844 340.882812 304.832031 340.316406 C 305.070312 339.753906 305.277344 339.175781 305.449219 338.589844 C 305.65625 337.933594 305.894531 337.292969 306.171875 336.664062 C 306.449219 336.035156 306.761719 335.425781 307.105469 334.832031 C 307.449219 334.238281 307.828125 333.667969 308.238281 333.117188 C 308.648438 332.566406 309.085938 332.042969 309.554688 331.539062 C 310.023438 331.039062 310.519531 330.566406 311.042969 330.121094 C 311.566406 329.675781 312.109375 329.261719 312.679688 328.875 C 313.25 328.492188 313.835938 328.140625 314.445312 327.824219 C 315.054688 327.507812 315.679688 327.226562 316.320312 326.976562 C 316.957031 326.730469 317.609375 326.519531 318.273438 326.347656 C 318.9375 326.171875 319.609375 326.035156 320.289062 325.9375 C 320.96875 325.839844 321.652344 325.78125 322.335938 325.757812 C 323.023438 325.738281 323.707031 325.753906 324.390625 325.808594 C 325.078125 325.867188 325.753906 325.960938 326.429688 326.09375 C 327.101562 326.222656 327.765625 326.394531 328.421875 326.601562 C 329.074219 326.808594 329.714844 327.050781 330.34375 327.332031 C 330.96875 327.609375 331.578125 327.921875 332.171875 328.269531 L 354.101562 341.410156 C 354.609375 341.71875 355.097656 342.046875 355.574219 342.402344 C 356.050781 342.757812 356.507812 343.132812 356.945312 343.535156 C 357.382812 343.933594 357.800781 344.351562 358.199219 344.792969 C 358.59375 345.234375 358.96875 345.691406 359.320312 346.171875 C 359.675781 346.648438 360 347.140625 360.304688 347.648438 C 360.609375 348.160156 360.886719 348.683594 361.140625 349.21875 C 361.390625 349.753906 361.617188 350.304688 361.816406 350.863281 C 362.015625 351.421875 362.183594 351.988281 362.328125 352.5625 C 362.46875 353.140625 362.585938 353.71875 362.671875 354.308594 C 362.757812 354.894531 362.8125 355.484375 362.839844 356.074219 C 362.867188 356.667969 362.867188 357.261719 362.835938 357.851562 C 362.808594 358.445312 362.75 359.035156 362.660156 359.621094 C 362.570312 360.207031 362.457031 360.789062 362.3125 361.363281 C 362.164062 361.9375 361.992188 362.503906 361.792969 363.0625 C 361.589844 363.621094 361.363281 364.167969 361.109375 364.703125 C 360.855469 365.238281 360.574219 365.761719 360.269531 366.269531 C 358.902344 368.542969 357.394531 370.71875 355.746094 372.796875 C 354.101562 374.875 352.328125 376.839844 350.425781 378.695312 C 348.527344 380.546875 346.519531 382.265625 344.398438 383.859375 C 342.277344 385.453125 340.0625 386.90625 337.757812 388.214844 C 335.449219 389.523438 333.066406 390.679688 330.613281 391.683594 C 328.15625 392.6875 325.648438 393.53125 323.082031 394.210938 C 320.519531 394.894531 317.921875 395.40625 315.292969 395.753906 C 312.664062 396.101562 310.023438 396.28125 307.371094 396.289062 C 302.40625 396.296875 297.515625 395.703125 292.699219 394.515625 C 287.878906 393.324219 283.273438 391.574219 278.882812 389.261719 C 267.554688 383.371094 256.738281 376.65625 246.4375 369.109375 C 236.136719 361.566406 226.472656 353.277344 217.441406 344.25 C 208.441406 335.230469 200.167969 325.585938 192.621094 315.316406 C 185.078125 305.050781 178.34375 294.273438 172.425781 282.988281 C 171.523438 281.261719 170.703125 279.496094 169.96875 277.691406 C 169.234375 275.886719 168.585938 274.050781 168.023438 272.1875 C 167.460938 270.320312 166.988281 268.433594 166.605469 266.523438 C 166.222656 264.613281 165.929688 262.691406 165.730469 260.75 C 165.527344 258.8125 165.417969 256.871094 165.398438 254.921875 C 165.382812 252.976562 165.457031 251.03125 165.621094 249.089844 C 165.785156 247.148438 166.042969 245.21875 166.390625 243.300781 C 166.738281 241.386719 167.175781 239.488281 167.703125 237.613281 C 168.230469 235.738281 168.847656 233.890625 169.546875 232.074219 C 170.25 230.257812 171.035156 228.476562 171.90625 226.734375 C 172.777344 224.992188 173.726562 223.292969 174.757812 221.640625 C 175.789062 219.984375 176.894531 218.382812 178.074219 216.835938 C 179.257812 215.285156 180.507812 213.796875 181.832031 212.367188 C 183.15625 210.9375 184.542969 209.570312 185.992188 208.273438 C 187.445312 206.972656 188.953125 205.746094 190.523438 204.589844 C 192.089844 203.429688 193.707031 202.351562 195.378906 201.347656 Z M 195.378906 201.347656 " fill-opacity="1" fill-rule="nonzero"/></g><g fill="#ffffff" fill-opacity="1"><g transform="translate(59.999998, 531.211574)"><g><path d="M 27.28125 0 L 20.21875 0 L 12.53125 -12.359375 L 9.90625 -10.46875 L 9.90625 0 L 3.6875 0 L 3.6875 -29.328125 L 9.90625 -29.328125 L 9.90625 -15.90625 L 12.359375 -19.359375 L 20.296875 -29.328125 L 27.203125 -29.328125 L 16.96875 -16.34375 Z M 27.28125 0 "/></g></g></g><g fill="#ffffff" fill-opacity="1"><g transform="translate(87.274912, 531.211574)"><g><path d="M 30.3125 -14.703125 C 30.3125 -9.847656 29.109375 -6.113281 26.703125 -3.5 C 24.296875 -0.894531 20.84375 0.40625 16.34375 0.40625 C 11.851562 0.40625 8.40625 -0.894531 6 -3.5 C 3.59375 -6.113281 2.390625 -9.863281 2.390625 -14.75 C 2.390625 -19.625 3.59375 -23.347656 6 -25.921875 C 8.414062 -28.492188 11.878906 -29.78125 16.390625 -29.78125 C 20.890625 -29.78125 24.332031 -28.484375 26.71875 -25.890625 C 29.113281 -23.296875 30.3125 -19.566406 30.3125 -14.703125 Z M 8.90625 -14.703125 C 8.90625 -11.421875 9.523438 -8.953125 10.765625 -7.296875 C 12.015625 -5.640625 13.875 -4.8125 16.34375 -4.8125 C 21.300781 -4.8125 23.78125 -8.109375 23.78125 -14.703125 C 23.78125 -21.304688 21.316406 -24.609375 16.390625 -24.609375 C 13.910156 -24.609375 12.039062 -23.773438 10.78125 -22.109375 C 9.53125 -20.441406 8.90625 -17.972656 8.90625 -14.703125 Z M 8.90625 -14.703125 "/></g></g></g><g fill="#ffffff" fill-opacity="1"><g transform="translate(119.964698, 531.211574)"><g><path d="M 29.703125 0 L 21.796875 0 L 9.046875 -22.1875 L 8.859375 -22.1875 C 9.117188 -18.269531 9.25 -15.472656 9.25 -13.796875 L 9.25 0 L 3.6875 0 L 3.6875 -29.328125 L 11.53125 -29.328125 L 24.265625 -7.359375 L 24.40625 -7.359375 C 24.207031 -11.171875 24.109375 -13.863281 24.109375 -15.4375 L 24.109375 -29.328125 L 29.703125 -29.328125 Z M 29.703125 0 "/></g></g></g><g fill="#ffffff" fill-opacity="1"><g transform="translate(153.356417, 531.211574)"><g><path d="M 15 0 L 8.78125 0 L 8.78125 -24.15625 L 0.828125 -24.15625 L 0.828125 -29.328125 L 22.96875 -29.328125 L 22.96875 -24.15625 L 15 -24.15625 Z M 15 0 "/></g></g></g><g fill="#ffffff" fill-opacity="1"><g transform="translate(177.141747, 531.211574)"><g><path d="M 21.640625 0 L 19.515625 -6.984375 L 8.828125 -6.984375 L 6.703125 0 L 0 0 L 10.34375 -29.4375 L 17.953125 -29.4375 L 28.34375 0 Z M 18.03125 -12.1875 C 16.0625 -18.519531 14.953125 -22.097656 14.703125 -22.921875 C 14.460938 -23.753906 14.289062 -24.410156 14.1875 -24.890625 C 13.738281 -23.179688 12.472656 -18.945312 10.390625 -12.1875 Z M 18.03125 -12.1875 "/></g></g></g><g fill="#ffffff" fill-opacity="1"><g transform="translate(205.479586, 531.211574)"><g><path d="M 27.28125 0 L 20.21875 0 L 12.53125 -12.359375 L 9.90625 -10.46875 L 9.90625 0 L 3.6875 0 L 3.6875 -29.328125 L 9.90625 -29.328125 L 9.90625 -15.90625 L 12.359375 -19.359375 L 20.296875 -29.328125 L 27.203125 -29.328125 L 16.96875 -16.34375 Z M 27.28125 0 "/></g></g></g><g fill="#ffffff" fill-opacity="1"><g transform="translate(232.754499, 531.211574)"><g><path d="M 15 0 L 8.78125 0 L 8.78125 -24.15625 L 0.828125 -24.15625 L 0.828125 -29.328125 L 22.96875 -29.328125 L 22.96875 -24.15625 L 15 -24.15625 Z M 15 0 "/></g></g></g><g fill="#ffffff" fill-opacity="1"><g transform="translate(256.539818, 531.211574)"><g/></g></g><g fill="#ffffff" fill-opacity="1"><g transform="translate(267.209123, 531.211574)"><g><path d="M 3.6875 0 L 3.6875 -29.328125 L 9.90625 -29.328125 L 9.90625 0 Z M 3.6875 0 "/></g></g></g><g fill="#ffffff" fill-opacity="1"><g transform="translate(280.806458, 531.211574)"><g><path d="M 29.703125 0 L 21.796875 0 L 9.046875 -22.1875 L 8.859375 -22.1875 C 9.117188 -18.269531 9.25 -15.472656 9.25 -13.796875 L 9.25 0 L 3.6875 0 L 3.6875 -29.328125 L 11.53125 -29.328125 L 24.265625 -7.359375 L 24.40625 -7.359375 C 24.207031 -11.171875 24.109375 -13.863281 24.109375 -15.4375 L 24.109375 -29.328125 L 29.703125 -29.328125 Z M 29.703125 0 "/></g></g></g><g fill="#ffffff" fill-opacity="1"><g transform="translate(314.198189, 531.211574)"><g><path d="M 9.8125 0 L 3.6875 0 L 3.6875 -29.328125 L 20.5 -29.328125 L 20.5 -24.234375 L 9.8125 -24.234375 L 9.8125 -16.671875 L 19.75 -16.671875 L 19.75 -11.59375 L 9.8125 -11.59375 Z M 9.8125 0 "/></g></g></g><g fill="#ffffff" fill-opacity="1"><g transform="translate(336.740103, 531.211574)"><g><path d="M 30.3125 -14.703125 C 30.3125 -9.847656 29.109375 -6.113281 26.703125 -3.5 C 24.296875 -0.894531 20.84375 0.40625 16.34375 0.40625 C 11.851562 0.40625 8.40625 -0.894531 6 -3.5 C 3.59375 -6.113281 2.390625 -9.863281 2.390625 -14.75 C 2.390625 -19.625 3.59375 -23.347656 6 -25.921875 C 8.414062 -28.492188 11.878906 -29.78125 16.390625 -29.78125 C 20.890625 -29.78125 24.332031 -28.484375 26.71875 -25.890625 C 29.113281 -23.296875 30.3125 -19.566406 30.3125 -14.703125 Z M 8.90625 -14.703125 C 8.90625 -11.421875 9.523438 -8.953125 10.765625 -7.296875 C 12.015625 -5.640625 13.875 -4.8125 16.34375 -4.8125 C 21.300781 -4.8125 23.78125 -8.109375 23.78125 -14.703125 C 23.78125 -21.304688 21.316406 -24.609375 16.390625 -24.609375 C 13.910156 -24.609375 12.039062 -23.773438 10.78125 -22.109375 C 9.53125 -20.441406 8.90625 -17.972656 8.90625 -14.703125 Z M 8.90625 -14.703125 "/></g></g></g><g fill="#ffffff" fill-opacity="1"><g transform="translate(369.429878, 531.211574)"><g><path d="M 9.90625 -16.3125 L 11.921875 -16.3125 C 13.878906 -16.3125 15.328125 -16.632812 16.265625 -17.28125 C 17.203125 -17.9375 17.671875 -18.96875 17.671875 -20.375 C 17.671875 -21.769531 17.191406 -22.757812 16.234375 -23.34375 C 15.273438 -23.9375 13.796875 -24.234375 11.796875 -24.234375 L 9.90625 -24.234375 Z M 9.90625 -11.25 L 9.90625 0 L 3.6875 0 L 3.6875 -29.328125 L 12.234375 -29.328125 C 16.222656 -29.328125 19.171875 -28.597656 21.078125 -27.140625 C 22.992188 -25.691406 23.953125 -23.492188 23.953125 -20.546875 C 23.953125 -18.816406 23.472656 -17.28125 22.515625 -15.9375 C 21.566406 -14.59375 20.226562 -13.539062 18.5 -12.78125 C 22.90625 -6.1875 25.78125 -1.925781 27.125 0 L 20.21875 0 L 13.21875 -11.25 Z M 9.90625 -11.25 "/></g></g></g><g fill="#ffffff" fill-opacity="1"><g transform="translate(396.544352, 531.211574)"><g><path d="M 16.109375 0 L 9.046875 -23 L 8.859375 -23 C 9.117188 -18.320312 9.25 -15.203125 9.25 -13.640625 L 9.25 0 L 3.6875 0 L 3.6875 -29.328125 L 12.15625 -29.328125 L 19.09375 -6.90625 L 19.21875 -6.90625 L 26.578125 -29.328125 L 35.046875 -29.328125 L 35.046875 0 L 29.25 0 L 29.25 -13.875 C 29.25 -14.53125 29.253906 -15.285156 29.265625 -16.140625 C 29.285156 -17.003906 29.378906 -19.28125 29.546875 -22.96875 L 29.359375 -22.96875 L 21.796875 0 Z M 16.109375 0 "/></g></g></g><g fill="#ffffff" fill-opacity="1"><g transform="translate(435.270724, 531.211574)"><g><path d="M 21.640625 0 L 19.515625 -6.984375 L 8.828125 -6.984375 L 6.703125 0 L 0 0 L 10.34375 -29.4375 L 17.953125 -29.4375 L 28.34375 0 Z M 18.03125 -12.1875 C 16.0625 -18.519531 14.953125 -22.097656 14.703125 -22.921875 C 14.460938 -23.753906 14.289062 -24.410156 14.1875 -24.890625 C 13.738281 -23.179688 12.472656 -18.945312 10.390625 -12.1875 Z M 18.03125 -12.1875 "/></g></g></g><g fill="#ffffff" fill-opacity="1"><g transform="translate(463.608552, 531.211574)"><g><path d="M 16.140625 -24.578125 C 13.804688 -24.578125 11.992188 -23.695312 10.703125 -21.9375 C 9.421875 -20.175781 8.78125 -17.722656 8.78125 -14.578125 C 8.78125 -8.046875 11.234375 -4.78125 16.140625 -4.78125 C 18.203125 -4.78125 20.695312 -5.289062 23.625 -6.3125 L 23.625 -1.109375 C 21.21875 -0.0976562 18.53125 0.40625 15.5625 0.40625 C 11.300781 0.40625 8.039062 -0.882812 5.78125 -3.46875 C 3.519531 -6.0625 2.390625 -9.78125 2.390625 -14.625 C 2.390625 -17.664062 2.941406 -20.332031 4.046875 -22.625 C 5.160156 -24.925781 6.753906 -26.6875 8.828125 -27.90625 C 10.910156 -29.132812 13.347656 -29.75 16.140625 -29.75 C 18.992188 -29.75 21.859375 -29.054688 24.734375 -27.671875 L 22.71875 -22.625 C 21.625 -23.144531 20.519531 -23.597656 19.40625 -23.984375 C 18.300781 -24.378906 17.210938 -24.578125 16.140625 -24.578125 Z M 16.140625 -24.578125 "/></g></g></g><g fill="#ffffff" fill-opacity="1"><g transform="translate(489.780452, 531.211574)"><g><path d="M 3.6875 0 L 3.6875 -29.328125 L 9.90625 -29.328125 L 9.90625 0 Z M 3.6875 0 "/></g></g></g><g fill="#ffffff" fill-opacity="1"><g transform="translate(503.37781, 531.211574)"><g><path d="M 0.625 8.625 C -0.78125 8.625 -2.003906 8.476562 -3.046875 8.1875 L -3.046875 3.015625 C -1.972656 3.273438 -1 3.40625 -0.125 3.40625 C 1.238281 3.40625 2.210938 2.976562 2.796875 2.125 C 3.390625 1.28125 3.6875 -0.0390625 3.6875 -1.84375 L 3.6875 -29.328125 L 9.90625 -29.328125 L 9.90625 -1.890625 C 9.90625 1.535156 9.125 4.144531 7.5625 5.9375 C 6 7.726562 3.6875 8.625 0.625 8.625 Z M 0.625 8.625 "/></g></g></g><g fill="#ffffff" fill-opacity="1"><g transform="translate(516.975168, 531.211574)"><g><path d="M 20.578125 0 L 3.6875 0 L 3.6875 -29.328125 L 20.578125 -29.328125 L 20.578125 -24.234375 L 9.90625 -24.234375 L 9.90625 -17.796875 L 19.84375 -17.796875 L 19.84375 -12.703125 L 9.90625 -12.703125 L 9.90625 -5.140625 L 20.578125 -5.140625 Z M 20.578125 0 "/></g></g></g></svg>