<svg xmlns="http://www.w3.org/2000/svg" xmlns:xlink="http://www.w3.org/1999/xlink" width="300" zoomAndPan="magnify" viewBox="0 0 224.87999 149.999998" height="200" preserveAspectRatio="xMidYMid meet" version="1.0"><defs><clipPath id="e68aa15cef"><path d="M 36.144531 38 L 189 38 L 189 149.960938 L 36.144531 149.960938 Z M 36.144531 38 " clip-rule="nonzero"/></clipPath><clipPath id="70f3fd5047"><path d="M 109 0.0390625 L 115 0.0390625 L 115 11 L 109 11 Z M 109 0.0390625 " clip-rule="nonzero"/></clipPath></defs><g clip-path="url(#e68aa15cef)"><path fill="#ffffff" d="M 41.285156 144.878906 L 41.285156 139.796875 L 183.582031 139.796875 L 183.582031 144.878906 Z M 41.285156 58.484375 L 48.910156 58.484375 L 48.910156 121.164062 C 48.910156 122.574219 50.050781 123.707031 51.449219 123.707031 C 75.113281 123.707031 92.832031 130.109375 102.546875 134.714844 L 41.285156 134.714844 Z M 173.417969 123.707031 C 174.816406 123.707031 175.960938 122.574219 175.960938 121.164062 L 175.960938 58.484375 L 183.582031 58.484375 L 183.582031 134.714844 L 122.289062 134.714844 C 131.988281 130.109375 149.675781 123.707031 173.417969 123.707031 Z M 186.125 53.402344 L 175.960938 53.402344 L 175.960938 40.695312 C 175.960938 39.296875 174.816406 38.15625 173.417969 38.15625 C 166.421875 38.15625 159.453125 38.691406 152.695312 39.753906 L 153.488281 44.777344 C 159.164062 43.882812 165 43.375 170.878906 43.265625 L 170.878906 118.652344 C 142.53125 119.171875 122.964844 128.230469 114.976562 132.71875 L 114.976562 124.550781 L 109.894531 124.550781 L 109.894531 132.71875 C 101.902344 128.230469 82.339844 119.171875 53.992188 118.652344 L 53.992188 43.265625 C 59.867188 43.375 65.703125 43.882812 71.382812 44.777344 L 72.175781 39.761719 C 65.425781 38.691406 58.449219 38.15625 51.449219 38.15625 C 50.050781 38.15625 48.910156 39.296875 48.910156 40.695312 L 48.910156 53.402344 L 38.746094 53.402344 C 37.34375 53.402344 36.203125 54.542969 36.203125 55.941406 L 36.203125 147.417969 C 36.203125 148.820312 37.34375 149.960938 38.746094 149.960938 L 186.125 149.960938 C 187.523438 149.960938 188.664062 148.820312 188.664062 147.417969 L 188.664062 55.941406 C 188.664062 54.542969 187.523438 53.402344 186.125 53.402344 " fill-opacity="1" fill-rule="nonzero"/></g><path fill="#ffffff" d="M 112.433594 75.21875 L 100.78125 63.566406 L 104.8125 59.535156 L 110.636719 65.363281 C 111.628906 66.355469 113.238281 66.355469 114.230469 65.363281 L 120.058594 59.535156 L 124.085938 63.566406 Z M 134.460938 28.773438 C 141.457031 35.046875 145.46875 44.019531 145.46875 53.402344 C 145.46875 65.519531 138.828125 76.648438 128.128906 82.433594 C 124.722656 84.28125 122.597656 87.746094 122.597656 91.476562 L 114.976562 91.488281 L 114.976562 79.863281 L 129.476562 65.363281 C 130.46875 64.371094 130.46875 62.761719 129.476562 61.769531 L 121.855469 54.144531 C 120.859375 53.152344 119.253906 53.152344 118.261719 54.144531 L 112.433594 59.972656 L 106.609375 54.144531 C 105.613281 53.152344 104.007812 53.152344 103.015625 54.144531 L 95.390625 61.769531 C 94.398438 62.761719 94.398438 64.371094 95.390625 65.363281 L 109.894531 79.863281 L 109.894531 91.496094 L 102.269531 91.515625 L 102.269531 91.476562 C 102.269531 87.746094 100.144531 84.28125 96.730469 82.433594 C 84.542969 75.832031 77.863281 62.640625 79.707031 48.824219 C 81.683594 34.09375 93.851562 22.222656 108.640625 20.578125 C 118.191406 19.515625 127.363281 22.433594 134.460938 28.773438 Z M 102.269531 114.386719 L 102.269531 106.761719 L 122.597656 106.761719 L 122.597656 114.386719 Z M 122.597656 96.597656 L 122.597656 101.679688 L 102.269531 101.679688 L 102.269531 96.597656 Z M 74.675781 48.152344 C 72.53125 64.070312 80.246094 79.289062 94.320312 86.902344 C 96.085938 87.855469 97.1875 89.609375 97.1875 91.476562 L 97.1875 116.925781 C 97.1875 118.328125 98.328125 119.46875 99.730469 119.46875 L 125.140625 119.46875 C 126.539062 119.46875 127.679688 118.328125 127.679688 116.925781 L 127.679688 91.476562 C 127.679688 89.609375 128.78125 87.855469 130.550781 86.902344 C 142.886719 80.230469 150.550781 67.386719 150.550781 53.402344 C 150.550781 42.570312 145.914062 32.21875 137.84375 24.992188 C 129.664062 17.667969 119.113281 14.3125 108.078125 15.523438 C 91.003906 17.421875 76.949219 31.136719 74.675781 48.152344 " fill-opacity="1" fill-rule="nonzero"/><g clip-path="url(#70f3fd5047)"><path fill="#ffffff" d="M 114.976562 0.0390625 L 109.894531 0.0390625 L 109.894531 10.203125 L 114.976562 10.203125 L 114.976562 0.0390625 " fill-opacity="1" fill-rule="nonzero"/></g><path fill="#ffffff" d="M 151.292969 13.488281 L 143.671875 21.113281 L 147.265625 24.707031 L 154.886719 17.082031 L 151.292969 13.488281 " fill-opacity="1" fill-rule="nonzero"/><path fill="#ffffff" d="M 69.980469 17.082031 L 77.605469 24.707031 L 81.199219 21.113281 L 73.574219 13.488281 L 69.980469 17.082031 " fill-opacity="1" fill-rule="nonzero"/><path fill="#ffffff" d="M 165.796875 58.484375 L 155.632812 58.484375 L 155.632812 53.402344 L 165.796875 53.402344 L 165.796875 58.484375 " fill-opacity="1" fill-rule="nonzero"/><path fill="#ffffff" d="M 69.238281 58.492188 L 59.074219 58.484375 L 59.074219 53.402344 L 69.238281 53.410156 L 69.238281 58.492188 " fill-opacity="1" fill-rule="nonzero"/></svg>