<svg xmlns="http://www.w3.org/2000/svg" xmlns:xlink="http://www.w3.org/1999/xlink" width="800" zoomAndPan="magnify" viewBox="0 0 600 599.999999" height="800" preserveAspectRatio="xMidYMid meet" version="1.0"><defs><g/><clipPath id="77e4ff68aa"><path d="M 145.09375 152 L 454.84375 152 L 454.84375 379.679688 L 145.09375 379.679688 Z M 145.09375 152 " clip-rule="nonzero"/></clipPath><clipPath id="8e3a4cb664"><path d="M 294 75.179688 L 306 75.179688 L 306 96 L 294 96 Z M 294 75.179688 " clip-rule="nonzero"/></clipPath></defs><g clip-path="url(#77e4ff68aa)"><path fill="#ffffff" d="M 155.542969 369.246094 L 155.542969 358.929688 L 444.449219 358.929688 L 444.449219 369.246094 Z M 155.542969 193.839844 L 171.019531 193.839844 L 171.019531 321.101562 C 171.019531 323.964844 173.339844 326.261719 176.179688 326.261719 C 224.222656 326.261719 260.195312 339.257812 279.925781 348.609375 L 155.542969 348.609375 Z M 423.8125 326.261719 C 426.65625 326.261719 428.972656 323.964844 428.972656 321.101562 L 428.972656 193.839844 L 444.449219 193.839844 L 444.449219 348.609375 L 320.007812 348.609375 C 339.699219 339.257812 375.609375 326.261719 423.8125 326.261719 Z M 449.609375 183.519531 L 428.972656 183.519531 L 428.972656 157.726562 C 428.972656 154.882812 426.65625 152.566406 423.8125 152.566406 C 409.605469 152.566406 395.460938 153.65625 381.734375 155.8125 L 383.347656 166.007812 C 394.875 164.195312 406.722656 163.167969 418.65625 162.945312 L 418.65625 316.003906 C 361.097656 317.050781 321.378906 335.449219 305.15625 344.558594 L 305.15625 327.972656 L 294.839844 327.972656 L 294.839844 344.558594 C 278.617188 335.449219 238.894531 317.050781 181.339844 316.003906 L 181.339844 162.945312 C 193.269531 163.167969 205.121094 164.195312 216.648438 166.007812 L 218.257812 155.832031 C 204.554688 153.65625 190.386719 152.566406 176.179688 152.566406 C 173.339844 152.566406 171.019531 154.882812 171.019531 157.726562 L 171.019531 183.519531 L 150.386719 183.519531 C 147.542969 183.519531 145.226562 185.839844 145.226562 188.679688 L 145.226562 374.40625 C 145.226562 377.246094 147.542969 379.5625 150.386719 379.5625 L 449.609375 379.5625 C 452.449219 379.5625 454.769531 377.246094 454.769531 374.40625 L 454.769531 188.679688 C 454.769531 185.839844 452.449219 183.519531 449.609375 183.519531 " fill-opacity="1" fill-rule="nonzero"/></g><path fill="#ffffff" d="M 299.996094 227.816406 L 276.339844 204.15625 L 284.519531 195.976562 L 296.347656 207.804688 C 298.363281 209.820312 301.628906 209.820312 303.644531 207.804688 L 315.472656 195.976562 L 323.65625 204.15625 Z M 344.714844 133.523438 C 358.921875 146.257812 367.066406 164.476562 367.066406 183.519531 C 367.066406 208.128906 353.582031 230.71875 331.859375 242.46875 C 324.945312 246.214844 320.632812 253.25 320.632812 260.824219 L 305.15625 260.847656 L 305.15625 237.246094 L 334.597656 207.804688 C 336.613281 205.789062 336.613281 202.523438 334.597656 200.507812 L 319.121094 185.03125 C 317.105469 183.015625 313.84375 183.015625 311.828125 185.03125 L 299.996094 196.863281 L 288.167969 185.03125 C 286.152344 183.015625 282.886719 183.015625 280.871094 185.03125 L 265.394531 200.507812 C 263.378906 202.523438 263.378906 205.789062 265.394531 207.804688 L 294.839844 237.246094 L 294.839844 260.867188 L 279.359375 260.90625 L 279.359375 260.824219 C 279.359375 253.25 275.046875 246.214844 268.117188 242.46875 C 243.367188 229.066406 229.804688 202.28125 233.554688 174.230469 C 237.566406 144.324219 262.273438 120.222656 292.300781 116.878906 C 311.6875 114.722656 330.304688 120.644531 344.714844 133.523438 Z M 279.359375 307.339844 L 279.359375 291.859375 L 320.632812 291.859375 L 320.632812 307.339844 Z M 320.632812 271.226562 L 320.632812 281.542969 L 279.359375 281.542969 L 279.359375 271.226562 Z M 223.335938 172.859375 C 218.984375 205.183594 234.644531 236.078125 263.21875 251.535156 C 266.804688 253.46875 269.042969 257.039062 269.042969 260.824219 L 269.042969 312.496094 C 269.042969 315.339844 271.359375 317.65625 274.203125 317.65625 L 325.792969 317.65625 C 328.632812 317.65625 330.953125 315.339844 330.953125 312.496094 L 330.953125 260.824219 C 330.953125 257.039062 333.1875 253.46875 336.777344 251.535156 C 361.824219 237.992188 377.382812 211.917969 377.382812 183.519531 C 377.382812 161.535156 367.972656 140.515625 351.585938 125.84375 C 334.980469 110.972656 313.558594 104.160156 291.148438 106.621094 C 256.488281 110.46875 227.953125 138.320312 223.335938 172.859375 " fill-opacity="1" fill-rule="nonzero"/><g clip-path="url(#8e3a4cb664)"><path fill="#ffffff" d="M 305.15625 75.179688 L 294.839844 75.179688 L 294.839844 95.816406 L 305.15625 95.816406 L 305.15625 75.179688 " fill-opacity="1" fill-rule="nonzero"/></g><path fill="#ffffff" d="M 378.894531 102.488281 L 363.417969 117.964844 L 370.710938 125.261719 L 386.1875 109.785156 L 378.894531 102.488281 " fill-opacity="1" fill-rule="nonzero"/><path fill="#ffffff" d="M 213.804688 109.785156 L 229.28125 125.261719 L 236.578125 117.964844 L 221.101562 102.488281 L 213.804688 109.785156 " fill-opacity="1" fill-rule="nonzero"/><path fill="#ffffff" d="M 408.335938 193.839844 L 387.699219 193.839844 L 387.699219 183.519531 L 408.335938 183.519531 L 408.335938 193.839844 " fill-opacity="1" fill-rule="nonzero"/><path fill="#ffffff" d="M 212.292969 193.859375 L 191.65625 193.839844 L 191.65625 183.519531 L 212.292969 183.542969 L 212.292969 193.859375 " fill-opacity="1" fill-rule="nonzero"/><g fill="#ffffff" fill-opacity="1"><g transform="translate(151.412103, 530.291589)"><g><path d="M 30.296875 -14.703125 C 30.296875 -9.847656 29.09375 -6.113281 26.6875 -3.5 C 24.28125 -0.894531 20.832031 0.40625 16.34375 0.40625 C 11.851562 0.40625 8.40625 -0.894531 6 -3.5 C 3.59375 -6.113281 2.390625 -9.859375 2.390625 -14.734375 C 2.390625 -19.617188 3.59375 -23.347656 6 -25.921875 C 8.414062 -28.492188 11.875 -29.78125 16.375 -29.78125 C 20.882812 -29.78125 24.332031 -28.484375 26.71875 -25.890625 C 29.101562 -23.296875 30.296875 -19.566406 30.296875 -14.703125 Z M 8.90625 -14.703125 C 8.90625 -11.421875 9.523438 -8.953125 10.765625 -7.296875 C 12.003906 -5.640625 13.863281 -4.8125 16.34375 -4.8125 C 21.300781 -4.8125 23.78125 -8.109375 23.78125 -14.703125 C 23.78125 -21.296875 21.3125 -24.59375 16.375 -24.59375 C 13.90625 -24.59375 12.039062 -23.757812 10.78125 -22.09375 C 9.53125 -20.4375 8.90625 -17.972656 8.90625 -14.703125 Z M 8.90625 -14.703125 "/></g></g></g><g fill="#ffffff" fill-opacity="1"><g transform="translate(184.09368, 530.291589)"><g><path d="M 3.6875 -29.3125 L 12.8125 -29.3125 C 16.96875 -29.3125 19.984375 -28.71875 21.859375 -27.53125 C 23.742188 -26.351562 24.6875 -24.472656 24.6875 -21.890625 C 24.6875 -20.140625 24.273438 -18.703125 23.453125 -17.578125 C 22.628906 -16.460938 21.535156 -15.789062 20.171875 -15.5625 L 20.171875 -15.359375 C 22.023438 -14.941406 23.363281 -14.164062 24.1875 -13.03125 C 25.007812 -11.894531 25.421875 -10.382812 25.421875 -8.5 C 25.421875 -5.820312 24.453125 -3.734375 22.515625 -2.234375 C 20.585938 -0.742188 17.96875 0 14.65625 0 L 3.6875 0 Z M 9.90625 -17.703125 L 13.515625 -17.703125 C 15.203125 -17.703125 16.421875 -17.960938 17.171875 -18.484375 C 17.929688 -19.003906 18.3125 -19.867188 18.3125 -21.078125 C 18.3125 -22.191406 17.898438 -22.992188 17.078125 -23.484375 C 16.253906 -23.972656 14.953125 -24.21875 13.171875 -24.21875 L 9.90625 -24.21875 Z M 9.90625 -12.765625 L 9.90625 -5.140625 L 13.953125 -5.140625 C 15.660156 -5.140625 16.921875 -5.460938 17.734375 -6.109375 C 18.554688 -6.765625 18.96875 -7.769531 18.96875 -9.125 C 18.96875 -11.550781 17.226562 -12.765625 13.75 -12.765625 Z M 9.90625 -12.765625 "/></g></g></g><g fill="#ffffff" fill-opacity="1"><g transform="translate(211.682546, 530.291589)"><g><path d="M 9.90625 -16.296875 L 11.90625 -16.296875 C 13.875 -16.296875 15.328125 -16.625 16.265625 -17.28125 C 17.203125 -17.9375 17.671875 -18.96875 17.671875 -20.375 C 17.671875 -21.757812 17.191406 -22.742188 16.234375 -23.328125 C 15.273438 -23.921875 13.796875 -24.21875 11.796875 -24.21875 L 9.90625 -24.21875 Z M 9.90625 -11.25 L 9.90625 0 L 3.6875 0 L 3.6875 -29.3125 L 12.234375 -29.3125 C 16.210938 -29.3125 19.15625 -28.585938 21.0625 -27.140625 C 22.976562 -25.691406 23.9375 -23.488281 23.9375 -20.53125 C 23.9375 -18.800781 23.460938 -17.265625 22.515625 -15.921875 C 21.566406 -14.585938 20.222656 -13.535156 18.484375 -12.765625 C 22.898438 -6.179688 25.773438 -1.925781 27.109375 0 L 20.203125 0 L 13.21875 -11.25 Z M 9.90625 -11.25 "/></g></g></g><g fill="#ffffff" fill-opacity="1"><g transform="translate(238.790211, 530.291589)"><g><path d="M 21.640625 0 L 19.515625 -6.984375 L 8.828125 -6.984375 L 6.703125 0 L 0 0 L 10.34375 -29.4375 L 17.9375 -29.4375 L 28.328125 0 Z M 18.03125 -12.1875 C 16.0625 -18.507812 14.953125 -22.082031 14.703125 -22.90625 C 14.453125 -23.738281 14.273438 -24.394531 14.171875 -24.875 C 13.734375 -23.164062 12.472656 -18.9375 10.390625 -12.1875 Z M 18.03125 -12.1875 "/></g></g></g><g fill="#ffffff" fill-opacity="1"><g transform="translate(267.120929, 530.291589)"><g><path d="M 22.796875 0 L 0.984375 0 L 0.984375 -4.03125 L 15.03125 -24.1875 L 1.359375 -24.1875 L 1.359375 -29.3125 L 22.421875 -29.3125 L 22.421875 -25.296875 L 8.375 -5.140625 L 22.796875 -5.140625 Z M 22.796875 0 "/></g></g></g><g fill="#ffffff" fill-opacity="1"><g transform="translate(290.900286, 530.291589)"><g><path d="M 30.296875 -14.703125 C 30.296875 -9.847656 29.09375 -6.113281 26.6875 -3.5 C 24.28125 -0.894531 20.832031 0.40625 16.34375 0.40625 C 11.851562 0.40625 8.40625 -0.894531 6 -3.5 C 3.59375 -6.113281 2.390625 -9.859375 2.390625 -14.734375 C 2.390625 -19.617188 3.59375 -23.347656 6 -25.921875 C 8.414062 -28.492188 11.875 -29.78125 16.375 -29.78125 C 20.882812 -29.78125 24.332031 -28.484375 26.71875 -25.890625 C 29.101562 -23.296875 30.296875 -19.566406 30.296875 -14.703125 Z M 8.90625 -14.703125 C 8.90625 -11.421875 9.523438 -8.953125 10.765625 -7.296875 C 12.003906 -5.640625 13.863281 -4.8125 16.34375 -4.8125 C 21.300781 -4.8125 23.78125 -8.109375 23.78125 -14.703125 C 23.78125 -21.296875 21.3125 -24.59375 16.375 -24.59375 C 13.90625 -24.59375 12.039062 -23.757812 10.78125 -22.09375 C 9.53125 -20.4375 8.90625 -17.972656 8.90625 -14.703125 Z M 8.90625 -14.703125 "/></g></g></g><g fill="#ffffff" fill-opacity="1"><g transform="translate(323.581864, 530.291589)"><g><path d="M 20.40625 -29.3125 L 26.6875 -29.3125 L 16.71875 0 L 9.9375 0 L 0 -29.3125 L 6.28125 -29.3125 L 11.796875 -11.875 C 12.097656 -10.84375 12.410156 -9.640625 12.734375 -8.265625 C 13.066406 -6.898438 13.273438 -5.945312 13.359375 -5.40625 C 13.503906 -6.644531 14.003906 -8.800781 14.859375 -11.875 Z M 20.40625 -29.3125 "/></g></g></g><g fill="#ffffff" fill-opacity="1"><g transform="translate(350.268478, 530.291589)"><g><path d="M 21.640625 0 L 19.515625 -6.984375 L 8.828125 -6.984375 L 6.703125 0 L 0 0 L 10.34375 -29.4375 L 17.9375 -29.4375 L 28.328125 0 Z M 18.03125 -12.1875 C 16.0625 -18.507812 14.953125 -22.082031 14.703125 -22.90625 C 14.453125 -23.738281 14.273438 -24.394531 14.171875 -24.875 C 13.734375 -23.164062 12.472656 -18.9375 10.390625 -12.1875 Z M 18.03125 -12.1875 "/></g></g></g><g fill="#ffffff" fill-opacity="1"><g transform="translate(378.599196, 530.291589)"><g><path d="M 29.6875 0 L 21.796875 0 L 9.046875 -22.171875 L 8.859375 -22.171875 C 9.117188 -18.253906 9.25 -15.460938 9.25 -13.796875 L 9.25 0 L 3.6875 0 L 3.6875 -29.3125 L 11.53125 -29.3125 L 24.265625 -7.359375 L 24.40625 -7.359375 C 24.195312 -11.171875 24.09375 -13.863281 24.09375 -15.4375 L 24.09375 -29.3125 L 29.6875 -29.3125 Z M 29.6875 0 "/></g></g></g><g fill="#ffffff" fill-opacity="1"><g transform="translate(411.982525, 530.291589)"><g><path d="M 0.625 8.625 C -0.78125 8.625 -2.003906 8.476562 -3.046875 8.1875 L -3.046875 3 C -1.972656 3.269531 -1 3.40625 -0.125 3.40625 C 1.238281 3.40625 2.210938 2.976562 2.796875 2.125 C 3.390625 1.28125 3.6875 -0.0390625 3.6875 -1.84375 L 3.6875 -29.3125 L 9.90625 -29.3125 L 9.90625 -1.890625 C 9.90625 1.535156 9.125 4.144531 7.5625 5.9375 C 6 7.726562 3.6875 8.625 0.625 8.625 Z M 0.625 8.625 "/></g></g></g><g fill="#ffffff" fill-opacity="1"><g transform="translate(425.576458, 530.291589)"><g><path d="M 20.578125 0 L 3.6875 0 L 3.6875 -29.3125 L 20.578125 -29.3125 L 20.578125 -24.21875 L 9.90625 -24.21875 L 9.90625 -17.78125 L 19.828125 -17.78125 L 19.828125 -12.6875 L 9.90625 -12.6875 L 9.90625 -5.140625 L 20.578125 -5.140625 Z M 20.578125 0 "/></g></g></g></svg>