<svg xmlns="http://www.w3.org/2000/svg" xmlns:xlink="http://www.w3.org/1999/xlink" width="300" zoomAndPan="magnify" viewBox="0 0 224.87999 149.999998" height="200" preserveAspectRatio="xMidYMid meet" version="1.0"><defs><clipPath id="0cd9464d52"><path d="M 29.609375 0.0390625 L 195.273438 0.0390625 L 195.273438 149.960938 L 29.609375 149.960938 Z M 29.609375 0.0390625 " clip-rule="nonzero"/></clipPath></defs><g clip-path="url(#0cd9464d52)"><path fill="#ffffff" d="M 148.199219 100.445312 C 147.53125 97.527344 144.613281 95.695312 141.695312 96.367188 L 136.929688 97.457031 C 134.039062 98.117188 132.21875 100.988281 132.835938 103.878906 L 131.554688 104.4375 C 130.289062 104.988281 129.011719 104.914062 127.761719 104.214844 C 126.324219 103.410156 125.046875 102.664062 123.921875 102 C 118.625 98.894531 115.429688 97.019531 110.695312 98.789062 C 109.425781 99.265625 108.1875 100.148438 106.933594 101.300781 L 91.960938 101.300781 C 91.824219 100.800781 91.609375 100.320312 91.328125 99.867188 C 90.554688 98.636719 89.351562 97.78125 87.941406 97.457031 L 83.179688 96.367188 C 81.769531 96.042969 80.3125 96.289062 79.082031 97.0625 C 77.851562 97.832031 76.996094 99.035156 76.671875 100.445312 L 70.746094 126.328125 C 70.078125 129.246094 71.90625 132.164062 74.828125 132.832031 L 79.589844 133.925781 C 79.996094 134.015625 80.402344 134.0625 80.804688 134.0625 C 82.644531 134.0625 84.359375 133.117188 85.351562 131.59375 L 101.746094 147.804688 C 102.945312 149.007812 104.546875 149.667969 106.253906 149.667969 C 107.960938 149.667969 109.5625 149.007812 110.761719 147.804688 C 111.167969 147.398438 111.511719 146.945312 111.792969 146.460938 L 112.789062 147.457031 C 115.277344 149.945312 119.320312 149.941406 121.808594 147.457031 C 122.261719 147.003906 122.640625 146.492188 122.933594 145.9375 C 123.910156 146.519531 125.03125 146.832031 126.203125 146.832031 C 127.910156 146.832031 129.511719 146.171875 130.710938 144.96875 C 131.890625 143.792969 132.546875 142.230469 132.574219 140.5625 C 133.839844 140.332031 135.007812 139.726562 135.933594 138.800781 C 137.414062 137.320312 138.003906 135.289062 137.722656 133.359375 L 140.085938 132.316406 C 141.097656 133.410156 142.539062 134.0625 144.066406 134.0625 C 144.46875 134.0625 144.875 134.015625 145.28125 133.925781 L 150.046875 132.832031 C 152.964844 132.164062 154.792969 129.246094 154.125 126.328125 Z M 112.335938 103.1875 C 114.867188 102.242188 116.449219 103.0625 121.546875 106.050781 C 122.691406 106.722656 123.992188 107.484375 125.472656 108.3125 C 127.996094 109.722656 130.820312 109.875 133.429688 108.742188 L 133.898438 108.539062 L 138.34375 127.953125 L 135.402344 129.253906 L 121.140625 114.992188 C 118.042969 111.894531 113.183594 111.457031 109.582031 113.949219 C 104.644531 117.371094 101.917969 118.15625 99.515625 116.472656 C 101.636719 114.417969 103.605469 112.085938 105.390625 109.972656 C 107.929688 106.964844 110.558594 103.851562 112.335938 103.1875 Z M 80.636719 129.347656 L 75.875 128.257812 C 75.484375 128.167969 75.230469 127.765625 75.320312 127.375 L 81.25 101.496094 C 81.308594 101.242188 81.480469 101.101562 81.578125 101.039062 C 81.652344 100.992188 81.792969 100.921875 81.96875 100.921875 C 82.019531 100.921875 82.074219 100.929688 82.128906 100.941406 L 86.894531 102.03125 C 87.148438 102.089844 87.289062 102.261719 87.351562 102.359375 C 87.410156 102.457031 87.507812 102.660156 87.449219 102.914062 L 81.519531 128.796875 C 81.429688 129.183594 81.027344 129.4375 80.636719 129.347656 Z M 132.613281 135.480469 C 132.300781 135.796875 131.878906 135.96875 131.425781 135.96875 C 130.972656 135.96875 130.550781 135.796875 130.238281 135.484375 L 118.839844 124.082031 C 117.921875 123.167969 116.4375 123.167969 115.519531 124.082031 C 114.601562 125 114.601562 126.484375 115.519531 127.402344 L 126.917969 138.800781 C 127.019531 138.902344 127.121094 138.996094 127.226562 139.089844 C 127.277344 139.152344 127.332031 139.214844 127.394531 139.277344 C 127.707031 139.589844 127.878906 140.011719 127.878906 140.464844 C 127.878906 140.914062 127.707031 141.335938 127.390625 141.652344 C 127.078125 141.964844 126.65625 142.140625 126.203125 142.140625 C 125.75 142.140625 125.328125 141.964844 125.015625 141.652344 L 121.867188 138.503906 C 121.847656 138.484375 121.828125 138.460938 121.804688 138.441406 C 121.792969 138.429688 121.78125 138.417969 121.769531 138.40625 L 112.753906 129.390625 C 111.835938 128.472656 110.351562 128.472656 109.433594 129.390625 C 108.515625 130.304688 108.515625 131.792969 109.433594 132.707031 L 118.519531 141.792969 C 118.8125 142.105469 118.976562 142.511719 118.976562 142.949219 C 118.972656 143.402344 118.800781 143.824219 118.488281 144.136719 C 117.84375 144.785156 116.753906 144.78125 116.109375 144.140625 L 110.816406 138.84375 C 110.796875 138.828125 110.78125 138.808594 110.761719 138.789062 C 110.75 138.777344 110.742188 138.769531 110.730469 138.757812 L 106.152344 134.179688 C 105.238281 133.265625 103.75 133.265625 102.835938 134.179688 C 101.917969 135.097656 101.917969 136.585938 102.832031 137.5 L 107.46875 142.136719 C 107.765625 142.449219 107.929688 142.859375 107.929688 143.296875 C 107.929688 143.75 107.757812 144.171875 107.441406 144.484375 C 107.128906 144.800781 106.707031 144.972656 106.253906 144.972656 C 105.800781 144.972656 105.378906 144.800781 105.058594 144.476562 L 86.863281 126.488281 L 91.558594 105.996094 L 102.605469 105.996094 C 102.339844 106.308594 102.074219 106.621094 101.804688 106.941406 C 99.503906 109.667969 97.125 112.484375 94.578125 114.621094 C 93.585938 115.449219 93.453125 116.925781 94.28125 117.917969 C 96.808594 120.953125 99.519531 122.007812 102.109375 122.007812 C 106.195312 122.003906 109.976562 119.386719 112.253906 117.808594 C 114.015625 116.589844 116.304688 116.796875 117.820312 118.3125 L 132.613281 133.105469 C 133.257812 133.75 133.257812 134.839844 132.613281 135.480469 Z M 148.996094 128.257812 L 144.234375 129.347656 C 143.84375 129.4375 143.441406 129.183594 143.351562 128.796875 L 137.425781 102.914062 C 137.335938 102.527344 137.589844 102.121094 137.976562 102.03125 L 142.742188 100.941406 C 143.128906 100.851562 143.535156 101.105469 143.621094 101.496094 L 149.550781 127.375 C 149.640625 127.765625 149.386719 128.167969 148.996094 128.257812 Z M 67.792969 65.347656 C 69.183594 64.769531 70.644531 65.058594 71.703125 66.121094 C 73.304688 67.722656 75.914062 67.722656 77.515625 66.121094 L 81.308594 62.328125 C 82.085938 61.550781 82.511719 60.519531 82.511719 59.421875 C 82.511719 58.324219 82.085938 57.289062 81.308594 56.515625 C 80.25 55.453125 79.960938 53.992188 80.535156 52.605469 C 81.109375 51.214844 82.347656 50.386719 83.847656 50.386719 C 86.113281 50.386719 87.957031 48.542969 87.957031 46.277344 L 87.957031 40.910156 C 87.957031 38.644531 86.113281 36.800781 83.847656 36.800781 C 82.347656 36.800781 81.109375 35.972656 80.535156 34.585938 C 79.960938 33.195312 80.25 31.734375 81.308594 30.675781 C 82.085938 29.898438 82.511719 28.867188 82.511719 27.769531 C 82.511719 26.667969 82.085938 25.636719 81.308594 24.863281 L 77.515625 21.066406 C 76.738281 20.292969 75.707031 19.863281 74.609375 19.863281 C 73.511719 19.863281 72.480469 20.292969 71.703125 21.066406 C 70.644531 22.128906 69.183594 22.417969 67.792969 21.84375 C 66.40625 21.265625 65.574219 20.027344 65.574219 18.53125 C 65.574219 16.265625 63.734375 14.421875 61.464844 14.421875 L 56.101562 14.421875 C 53.835938 14.421875 51.992188 16.265625 51.992188 18.53125 C 51.992188 20.027344 51.164062 21.265625 49.773438 21.84375 C 48.386719 22.417969 46.925781 22.128906 45.863281 21.066406 C 45.089844 20.292969 44.054688 19.863281 42.957031 19.863281 C 41.859375 19.863281 40.828125 20.292969 40.050781 21.066406 L 36.257812 24.863281 C 35.484375 25.636719 35.054688 26.671875 35.054688 27.769531 C 35.054688 28.867188 35.484375 29.898438 36.257812 30.675781 C 37.320312 31.734375 37.609375 33.195312 37.03125 34.585938 C 36.457031 35.972656 35.21875 36.804688 33.71875 36.804688 C 31.453125 36.800781 29.609375 38.644531 29.609375 40.910156 L 29.609375 46.277344 C 29.609375 48.542969 31.453125 50.386719 33.71875 50.386719 C 35.21875 50.386719 36.457031 51.214844 37.03125 52.605469 C 37.609375 53.992188 37.320312 55.453125 36.257812 56.515625 C 35.484375 57.289062 35.054688 58.324219 35.054688 59.421875 C 35.054688 60.519531 35.484375 61.550781 36.257812 62.328125 L 40.050781 66.121094 C 41.65625 67.722656 44.261719 67.722656 45.863281 66.121094 C 46.925781 65.058594 48.390625 64.765625 49.777344 65.34375 C 51.164062 65.917969 51.992188 67.15625 51.992188 68.660156 C 51.992188 70.925781 53.835938 72.769531 56.101562 72.769531 L 61.464844 72.769531 C 63.734375 72.769531 65.574219 70.925781 65.574219 68.660156 C 65.574219 67.160156 66.40625 65.921875 67.792969 65.347656 Z M 60.902344 68.074219 L 56.667969 68.074219 C 56.457031 64.910156 54.546875 62.234375 51.574219 61.003906 C 48.601562 59.773438 45.355469 60.3125 42.972656 62.398438 L 39.980469 59.40625 C 42.0625 57.023438 42.601562 53.78125 41.371094 50.808594 C 40.136719 47.832031 37.464844 45.921875 34.304688 45.710938 L 34.304688 41.476562 C 37.464844 41.265625 40.140625 39.355469 41.371094 36.382812 C 42.601562 33.40625 42.0625 30.164062 39.980469 27.78125 L 42.972656 24.789062 C 45.355469 26.871094 48.597656 27.410156 51.570312 26.179688 C 54.546875 24.949219 56.457031 22.273438 56.667969 19.117188 L 60.902344 19.117188 C 61.113281 22.273438 63.023438 24.949219 65.996094 26.179688 C 68.96875 27.410156 72.214844 26.871094 74.597656 24.789062 L 77.589844 27.78125 C 75.507812 30.164062 74.96875 33.40625 76.199219 36.382812 C 77.429688 39.355469 80.105469 41.265625 83.261719 41.476562 L 83.261719 45.710938 C 80.105469 45.921875 77.429688 47.835938 76.199219 50.808594 C 74.96875 53.78125 75.507812 57.023438 77.589844 59.40625 L 74.597656 62.398438 C 72.214844 60.316406 68.972656 59.777344 65.996094 61.007812 C 63.023438 62.242188 61.113281 64.914062 60.902344 68.074219 Z M 74.242188 43.59375 C 74.242188 35.070312 67.308594 28.136719 58.785156 28.136719 C 50.261719 28.136719 43.328125 35.070312 43.328125 43.59375 C 43.328125 52.117188 50.261719 59.050781 58.785156 59.050781 C 67.308594 59.050781 74.242188 52.117188 74.242188 43.59375 Z M 53.429688 52.925781 C 53.980469 50.472656 56.171875 48.632812 58.785156 48.632812 C 61.398438 48.632812 63.589844 50.472656 64.136719 52.925781 C 62.558594 53.832031 60.734375 54.355469 58.785156 54.355469 C 56.835938 54.355469 55.007812 53.832031 53.429688 52.925781 Z M 58.785156 41.851562 C 58.082031 41.851562 57.511719 41.277344 57.511719 40.578125 C 57.511719 39.875 58.082031 39.304688 58.785156 39.304688 C 59.488281 39.304688 60.058594 39.875 60.058594 40.578125 C 60.058594 41.28125 59.488281 41.851562 58.785156 41.851562 Z M 67.816406 49.433594 C 66.761719 47.40625 65.046875 45.78125 62.957031 44.835938 C 64.0625 43.753906 64.753906 42.246094 64.753906 40.578125 C 64.753906 37.285156 62.074219 34.609375 58.785156 34.609375 C 55.492188 34.609375 52.816406 37.285156 52.816406 40.578125 C 52.816406 42.246094 53.503906 43.753906 54.613281 44.835938 C 52.523438 45.78125 50.804688 47.40625 49.75 49.433594 C 48.660156 47.75 48.023438 45.746094 48.023438 43.59375 C 48.023438 37.660156 52.847656 32.832031 58.785156 32.832031 C 64.71875 32.832031 69.546875 37.660156 69.546875 43.59375 C 69.546875 45.746094 68.910156 47.75 67.816406 49.433594 Z M 148.570312 39.316406 C 138 39.707031 129.519531 48.425781 129.519531 59.089844 C 129.519531 61.390625 130.734375 64.582031 136.507812 66.710938 C 139.925781 67.96875 144.472656 68.660156 149.3125 68.660156 C 158.441406 68.660156 169.105469 66.152344 169.105469 59.089844 C 169.105469 48.425781 160.625 39.707031 150.054688 39.316406 C 155.449219 38.933594 159.722656 34.425781 159.722656 28.9375 C 159.722656 23.195312 155.050781 18.527344 149.3125 18.527344 C 143.570312 18.527344 138.902344 23.195312 138.902344 28.9375 C 138.902344 34.425781 143.175781 38.933594 148.570312 39.316406 Z M 164.410156 59.089844 C 164.410156 61.445312 158.34375 63.96875 149.3125 63.96875 C 140.28125 63.96875 134.214844 61.445312 134.214844 59.089844 C 134.214844 50.765625 140.988281 43.992188 149.3125 43.992188 C 157.636719 43.992188 164.410156 50.765625 164.410156 59.089844 Z M 149.3125 23.222656 C 152.464844 23.222656 155.027344 25.785156 155.027344 28.9375 C 155.027344 32.085938 152.464844 34.652344 149.3125 34.652344 C 146.160156 34.652344 143.597656 32.085938 143.597656 28.9375 C 143.597656 25.785156 146.160156 23.222656 149.3125 23.222656 Z M 195.261719 43.59375 C 195.261719 44.214844 195.015625 44.8125 194.574219 45.253906 L 187.875 51.953125 C 187.417969 52.410156 186.816406 52.636719 186.214844 52.636719 C 185.617188 52.636719 185.015625 52.410156 184.558594 51.953125 C 183.640625 51.035156 183.640625 49.546875 184.558594 48.632812 L 187.246094 45.941406 L 181.046875 45.941406 C 179.75 45.941406 178.699219 44.890625 178.699219 43.59375 C 178.699219 42.296875 179.75 41.246094 181.046875 41.246094 L 187.246094 41.246094 L 184.558594 38.558594 C 183.640625 37.640625 183.640625 36.152344 184.558594 35.238281 C 185.472656 34.320312 186.960938 34.320312 187.875 35.238281 L 194.574219 41.933594 C 195.015625 42.375 195.261719 42.972656 195.261719 43.59375 Z M 104.050781 45.253906 C 103.609375 44.8125 103.363281 44.21875 103.363281 43.59375 C 103.363281 42.972656 103.609375 42.375 104.050781 41.933594 L 110.75 35.238281 C 111.664062 34.320312 113.152344 34.320312 114.066406 35.238281 C 114.984375 36.152344 114.984375 37.640625 114.066406 38.554688 L 111.378906 41.246094 L 117.578125 41.246094 C 118.875 41.246094 119.925781 42.296875 119.925781 43.59375 C 119.925781 44.890625 118.875 45.941406 117.578125 45.941406 L 111.378906 45.941406 L 114.066406 48.632812 C 114.984375 49.546875 114.984375 51.035156 114.066406 51.949219 C 113.609375 52.410156 113.007812 52.636719 112.410156 52.636719 C 111.808594 52.636719 111.207031 52.410156 110.75 51.949219 Z M 120.859375 11.019531 L 123.308594 1.871094 C 123.472656 1.269531 123.863281 0.757812 124.402344 0.445312 C 124.941406 0.132812 125.585938 0.0507812 126.183594 0.210938 L 135.332031 2.664062 C 136.585938 2.996094 137.328125 4.285156 136.992188 5.535156 C 136.65625 6.789062 135.371094 7.53125 134.117188 7.195312 L 130.445312 6.210938 L 133.542969 11.582031 C 134.191406 12.703125 133.808594 14.140625 132.683594 14.789062 C 132.316406 15 131.914062 15.101562 131.515625 15.101562 C 130.703125 15.101562 129.914062 14.683594 129.480469 13.929688 L 126.378906 8.558594 L 125.394531 12.234375 C 125.058594 13.488281 123.769531 14.230469 122.519531 13.894531 C 121.265625 13.558594 120.523438 12.269531 120.859375 11.019531 Z M 120.859375 76.171875 C 120.523438 74.917969 121.265625 73.632812 122.519531 73.296875 C 123.769531 72.960938 125.058594 73.703125 125.394531 74.953125 L 126.378906 78.628906 L 129.476562 73.257812 C 130.128906 72.136719 131.5625 71.753906 132.683594 72.402344 C 133.808594 73.046875 134.191406 74.484375 133.542969 75.605469 L 130.441406 80.976562 L 134.117188 79.992188 C 135.367188 79.65625 136.65625 80.398438 136.992188 81.652344 C 137.328125 82.902344 136.585938 84.191406 135.332031 84.527344 L 126.183594 86.976562 C 125.984375 87.03125 125.78125 87.058594 125.578125 87.058594 C 125.167969 87.058594 124.761719 86.953125 124.402344 86.742188 C 123.863281 86.433594 123.472656 85.917969 123.308594 85.316406 Z M 177.765625 76.171875 L 175.3125 85.320312 C 175.152344 85.917969 174.757812 86.433594 174.21875 86.742188 C 173.859375 86.953125 173.453125 87.058594 173.046875 87.058594 C 172.84375 87.058594 172.640625 87.03125 172.4375 86.980469 L 163.289062 84.527344 C 162.039062 84.191406 161.296875 82.90625 161.632812 81.652344 C 161.96875 80.398438 163.253906 79.65625 164.503906 79.992188 L 168.179688 80.976562 L 165.078125 75.605469 C 164.433594 74.484375 164.816406 73.050781 165.9375 72.402344 C 167.0625 71.753906 168.496094 72.136719 169.144531 73.261719 L 172.246094 78.628906 L 173.230469 74.957031 C 173.566406 73.703125 174.855469 72.960938 176.105469 73.296875 C 177.359375 73.632812 178.101562 74.917969 177.765625 76.171875 Z M 177.765625 11.019531 C 178.101562 12.269531 177.359375 13.558594 176.105469 13.894531 C 174.851562 14.230469 173.566406 13.484375 173.230469 12.234375 L 172.246094 8.558594 L 169.144531 13.929688 C 168.710938 14.683594 167.921875 15.101562 167.109375 15.101562 C 166.710938 15.101562 166.308594 15 165.941406 14.789062 C 164.816406 14.140625 164.433594 12.703125 165.082031 11.582031 L 168.179688 6.210938 L 164.507812 7.195312 C 163.253906 7.53125 161.96875 6.789062 161.632812 5.535156 C 161.296875 4.285156 162.039062 2.996094 163.292969 2.660156 L 172.441406 0.210938 C 173.039062 0.0507812 173.683594 0.132812 174.222656 0.445312 C 174.761719 0.757812 175.152344 1.269531 175.316406 1.871094 Z M 154.113281 88 C 154.921875 88.742188 155.105469 89.929688 154.570312 90.886719 C 153.785156 92.265625 152.925781 93.605469 152.007812 94.902344 C 151.167969 96.082031 149.503906 96.234375 148.460938 95.234375 C 147.625 94.421875 147.507812 93.144531 148.175781 92.191406 C 149.003906 91.03125 149.777344 89.8125 150.484375 88.574219 C 151.230469 87.257812 152.996094 86.980469 154.113281 88 Z M 75.351562 90.203125 C 76.117188 91.410156 76.933594 92.59375 77.816406 93.722656 C 78.382812 94.445312 78.476562 95.394531 78.074219 96.21875 C 77.292969 97.761719 75.199219 97.976562 74.125 96.621094 C 73.148438 95.363281 72.25 94.070312 71.394531 92.726562 C 70.449219 91.230469 71.410156 89.28125 73.175781 89.125 C 74.050781 89.054688 74.875 89.464844 75.351562 90.203125 Z M 70.183594 78.449219 C 70.40625 79.265625 70.179688 80.121094 69.585938 80.722656 C 68.308594 82.003906 66.140625 81.429688 65.65625 79.691406 C 65.226562 78.085938 64.882812 76.527344 64.597656 74.890625 C 64.433594 73.9375 64.855469 73.003906 65.671875 72.492188 C 67.09375 71.621094 68.929688 72.445312 69.222656 74.082031 C 69.472656 75.5625 69.792969 77 70.183594 78.449219 Z M 129.554688 26.5 C 128.222656 25.941406 126.910156 25.457031 125.535156 25.019531 C 124.800781 24.789062 124.238281 24.242188 123.996094 23.511719 C 123.40625 21.699219 125.089844 19.976562 126.914062 20.53125 C 128.441406 21.011719 129.914062 21.558594 131.390625 22.179688 C 133.042969 22.882812 133.324219 25.101562 131.902344 26.203125 C 131.222656 26.71875 130.339844 26.828125 129.554688 26.5 Z M 88.933594 26.949219 C 88.378906 25.808594 88.832031 24.4375 89.953125 23.847656 C 91.355469 23.113281 92.800781 22.441406 94.269531 21.847656 C 95.089844 21.515625 96.003906 21.671875 96.675781 22.238281 C 98.015625 23.390625 97.667969 25.527344 96.039062 26.199219 C 94.707031 26.734375 93.40625 27.335938 92.136719 28 C 90.960938 28.621094 89.511719 28.140625 88.933594 26.949219 Z M 106.398438 22.214844 C 105.367188 20.730469 106.308594 18.699219 108.105469 18.527344 C 109.703125 18.390625 111.253906 18.328125 112.851562 18.332031 C 113.820312 18.339844 114.664062 18.917969 115.027344 19.8125 C 115.636719 21.363281 114.503906 23.027344 112.839844 23.027344 C 111.402344 23.019531 109.964844 23.074219 108.535156 23.199219 C 107.691406 23.277344 106.890625 22.902344 106.398438 22.214844 Z M 160.574219 72.941406 C 160.371094 74.523438 160.097656 76.070312 159.746094 77.625 C 159.515625 78.648438 158.648438 79.390625 157.601562 79.457031 C 156.035156 79.550781 154.828125 78.136719 155.164062 76.605469 C 155.480469 75.203125 155.734375 73.796875 155.914062 72.371094 C 156.011719 71.609375 156.453125 70.960938 157.128906 70.59375 C 158.808594 69.695312 160.800781 71.046875 160.574219 72.941406 Z M 160.574219 72.941406 " fill-opacity="1" fill-rule="nonzero"/></g></svg>