<svg xmlns="http://www.w3.org/2000/svg" xmlns:xlink="http://www.w3.org/1999/xlink" width="800" zoomAndPan="magnify" viewBox="0 0 600 599.999999" height="800" preserveAspectRatio="xMidYMid meet" version="1.0"><defs><g/><clipPath id="09312d2393"><path d="M 112.734375 60 L 486.984375 60 L 486.984375 399 L 112.734375 399 Z M 112.734375 60 " clip-rule="nonzero"/></clipPath></defs><g clip-path="url(#09312d2393)"><path fill="#ffffff" d="M 380.859375 287.007812 C 379.347656 280.40625 372.746094 276.265625 366.148438 277.777344 L 355.378906 280.246094 C 348.839844 281.742188 344.726562 288.230469 346.117188 294.765625 L 343.226562 296.027344 C 340.359375 297.269531 337.476562 297.101562 334.648438 295.523438 C 331.402344 293.707031 328.515625 292.015625 325.96875 290.519531 C 313.996094 283.496094 306.765625 279.253906 296.058594 283.257812 C 293.191406 284.332031 290.394531 286.328125 287.558594 288.9375 L 253.707031 288.9375 C 253.394531 287.808594 252.914062 286.714844 252.273438 285.691406 C 250.527344 282.910156 247.808594 280.976562 244.621094 280.246094 L 233.847656 277.777344 C 230.660156 277.046875 227.371094 277.605469 224.585938 279.351562 C 221.804688 281.097656 219.867188 283.816406 219.140625 287.003906 L 205.738281 345.523438 C 204.226562 352.121094 208.363281 358.71875 214.964844 360.230469 L 225.734375 362.699219 C 226.652344 362.90625 227.570312 363.007812 228.476562 363.007812 C 232.644531 363.007812 236.515625 360.867188 238.761719 357.429688 L 275.828125 394.082031 C 278.542969 396.800781 282.164062 398.292969 286.019531 398.292969 C 286.019531 398.292969 286.023438 398.292969 286.023438 398.292969 C 289.878906 398.292969 293.5 396.796875 296.214844 394.082031 C 297.132812 393.164062 297.914062 392.140625 298.542969 391.039062 L 300.800781 393.296875 C 306.421875 398.917969 315.566406 398.914062 321.1875 393.296875 C 322.214844 392.265625 323.066406 391.109375 323.730469 389.855469 C 325.941406 391.179688 328.476562 391.882812 331.125 391.882812 C 331.125 391.882812 331.128906 391.882812 331.128906 391.882812 C 334.984375 391.882812 338.605469 390.386719 341.320312 387.671875 C 343.980469 385.011719 345.472656 381.476562 345.527344 377.703125 C 348.394531 377.1875 351.03125 375.820312 353.128906 373.722656 C 356.472656 370.378906 357.8125 365.78125 357.171875 361.421875 L 362.511719 359.0625 C 364.804688 361.53125 368.058594 363.007812 371.519531 363.007812 C 372.421875 363.007812 373.34375 362.90625 374.261719 362.699219 L 385.03125 360.230469 C 391.632812 358.71875 395.769531 352.121094 394.257812 345.523438 Z M 299.777344 293.199219 C 305.496094 291.0625 309.074219 292.914062 320.597656 299.675781 C 323.191406 301.199219 326.128906 302.921875 329.46875 304.789062 C 335.179688 307.976562 341.570312 308.320312 347.460938 305.757812 L 348.519531 305.296875 L 358.574219 349.199219 L 351.925781 352.136719 L 319.679688 319.890625 C 312.679688 312.890625 301.6875 311.898438 293.542969 317.539062 C 282.382812 325.265625 276.214844 327.050781 270.789062 323.242188 C 275.578125 318.59375 280.03125 313.320312 284.070312 308.539062 C 289.8125 301.738281 295.75 294.707031 299.777344 293.199219 Z M 228.105469 352.351562 L 217.332031 349.886719 C 216.453125 349.683594 215.882812 348.769531 216.082031 347.890625 L 229.484375 289.375 C 229.617188 288.800781 230.007812 288.480469 230.226562 288.34375 C 230.398438 288.234375 230.714844 288.082031 231.117188 288.082031 C 231.230469 288.082031 231.351562 288.09375 231.480469 288.125 L 242.25 290.589844 C 242.824219 290.722656 243.144531 291.113281 243.28125 291.332031 C 243.417969 291.554688 243.632812 292.011719 243.5 292.585938 L 230.097656 351.101562 C 229.894531 351.980469 228.984375 352.554688 228.105469 352.351562 Z M 345.621094 366.21875 C 344.910156 366.929688 343.957031 367.320312 342.933594 367.320312 C 341.910156 367.320312 340.957031 366.929688 340.25 366.222656 L 314.476562 340.445312 C 312.402344 338.375 309.042969 338.375 306.972656 340.445312 C 304.898438 342.519531 304.898438 345.878906 306.96875 347.953125 L 332.742188 373.726562 C 332.96875 373.949219 333.199219 374.167969 333.4375 374.378906 C 333.554688 374.519531 333.679688 374.660156 333.816406 374.796875 C 334.527344 375.507812 334.917969 376.460938 334.917969 377.480469 C 334.917969 378.503906 334.523438 379.457031 333.816406 380.167969 C 333.105469 380.878906 332.148438 381.269531 331.125 381.269531 C 330.105469 381.269531 329.152344 380.878906 328.441406 380.171875 L 321.324219 373.050781 C 321.277344 373.003906 321.230469 372.957031 321.183594 372.910156 C 321.15625 372.882812 321.128906 372.855469 321.101562 372.828125 L 300.714844 352.445312 C 298.644531 350.371094 295.285156 350.371094 293.210938 352.445312 C 291.136719 354.515625 291.136719 357.875 293.210938 359.949219 L 313.75 380.488281 C 314.417969 381.191406 314.78125 382.117188 314.78125 383.105469 C 314.78125 384.128906 314.390625 385.082031 313.679688 385.792969 C 312.222656 387.25 309.761719 387.25 308.304688 385.792969 L 296.335938 373.820312 C 296.296875 373.78125 296.257812 373.738281 296.214844 373.699219 C 296.191406 373.675781 296.164062 373.648438 296.140625 373.625 L 285.792969 363.277344 C 283.722656 361.207031 280.359375 361.207031 278.289062 363.277344 C 276.214844 365.351562 276.214844 368.710938 278.289062 370.785156 L 288.769531 381.265625 C 289.441406 381.972656 289.8125 382.898438 289.8125 383.890625 C 289.8125 384.914062 289.417969 385.867188 288.710938 386.578125 C 288 387.289062 287.042969 387.679688 286.023438 387.679688 C 285 387.679688 284.046875 387.289062 283.3125 386.558594 L 242.183594 345.886719 L 252.792969 299.554688 L 277.769531 299.554688 C 277.171875 300.257812 276.570312 300.96875 275.960938 301.691406 C 270.757812 307.851562 265.378906 314.222656 259.621094 319.050781 C 257.378906 320.929688 257.082031 324.265625 258.953125 326.511719 C 264.664062 333.375 270.792969 335.75 276.648438 335.75 C 285.886719 335.75 294.441406 329.828125 299.589844 326.261719 C 303.574219 323.503906 308.75 323.972656 312.175781 327.398438 L 345.621094 360.84375 C 347.078125 362.300781 347.078125 364.761719 345.621094 366.21875 Z M 382.664062 349.886719 L 371.894531 352.351562 C 371.011719 352.554688 370.101562 351.980469 369.898438 351.101562 L 356.496094 292.585938 C 356.296875 291.707031 356.867188 290.792969 357.746094 290.589844 L 368.519531 288.125 C 369.398438 287.917969 370.308594 288.496094 370.511719 289.375 L 383.914062 347.890625 C 384.117188 348.769531 383.542969 349.683594 382.664062 349.886719 Z M 199.0625 207.644531 C 202.207031 206.34375 205.507812 206.996094 207.90625 209.394531 C 211.527344 213.015625 217.421875 213.015625 221.046875 209.394531 L 229.621094 200.816406 C 231.375 199.0625 232.34375 196.726562 232.34375 194.246094 C 232.34375 191.761719 231.378906 189.429688 229.621094 187.675781 C 227.226562 185.277344 226.570312 181.972656 227.871094 178.832031 C 229.171875 175.691406 231.972656 173.820312 235.359375 173.820312 C 240.484375 173.820312 244.652344 169.648438 244.652344 164.527344 L 244.652344 152.398438 C 244.652344 147.273438 240.484375 143.105469 235.359375 143.105469 C 231.972656 143.105469 229.171875 141.230469 227.871094 138.089844 C 226.570312 134.949219 227.226562 131.644531 229.621094 129.25 C 231.375 127.496094 232.34375 125.160156 232.34375 122.679688 C 232.34375 120.195312 231.378906 117.863281 229.621094 116.109375 L 221.046875 107.53125 C 219.289062 105.777344 216.957031 104.808594 214.476562 104.808594 C 211.992188 104.808594 209.660156 105.777344 207.90625 107.53125 C 205.507812 109.929688 202.203125 110.582031 199.0625 109.28125 C 195.921875 107.980469 194.050781 105.179688 194.050781 101.792969 C 194.050781 96.667969 189.882812 92.5 184.757812 92.5 L 172.628906 92.5 C 167.503906 92.5 163.335938 96.667969 163.335938 101.792969 C 163.335938 105.179688 161.460938 107.980469 158.324219 109.28125 C 155.183594 110.582031 151.878906 109.929688 149.480469 107.53125 C 147.726562 105.777344 145.394531 104.808594 142.910156 104.808594 C 140.429688 104.808594 138.09375 105.777344 136.339844 107.53125 L 127.765625 116.109375 C 126.007812 117.863281 125.042969 120.199219 125.042969 122.679688 C 125.042969 125.164062 126.007812 127.496094 127.761719 129.25 C 130.160156 131.648438 130.8125 134.953125 129.511719 138.09375 C 128.210938 141.234375 125.414062 143.109375 122.023438 143.109375 C 116.902344 143.105469 112.734375 147.273438 112.734375 152.398438 L 112.734375 164.527344 C 112.734375 169.652344 116.902344 173.820312 122.023438 173.820312 C 125.414062 173.820312 128.210938 175.695312 129.511719 178.835938 C 130.8125 181.976562 130.160156 185.28125 127.765625 187.675781 C 126.007812 189.429688 125.042969 191.761719 125.042969 194.246094 C 125.042969 196.726562 126.007812 199.0625 127.761719 200.816406 L 136.339844 209.394531 C 139.964844 213.015625 145.859375 213.015625 149.480469 209.394531 C 151.882812 206.992188 155.191406 206.335938 158.328125 207.632812 C 161.464844 208.933594 163.335938 211.738281 163.335938 215.132812 C 163.335938 220.253906 167.503906 224.421875 172.628906 224.421875 L 184.757812 224.421875 C 189.882812 224.421875 194.046875 220.253906 194.046875 215.132812 C 194.050781 211.742188 195.925781 208.945312 199.0625 207.644531 Z M 183.480469 213.808594 L 173.90625 213.808594 C 173.433594 206.660156 169.109375 200.613281 162.390625 197.828125 C 155.667969 195.042969 148.335938 196.265625 142.941406 200.984375 L 136.175781 194.214844 C 140.886719 188.828125 142.105469 181.496094 139.320312 174.769531 C 136.535156 168.046875 130.492188 163.722656 123.347656 163.25 L 123.347656 153.675781 C 130.492188 153.203125 136.535156 148.878906 139.320312 142.15625 C 142.105469 135.429688 140.886719 128.097656 136.175781 122.710938 L 142.941406 115.941406 C 148.328125 120.65625 155.660156 121.875 162.386719 119.089844 C 169.109375 116.304688 173.433594 110.257812 173.910156 103.117188 L 183.480469 103.117188 C 183.957031 110.257812 188.28125 116.304688 195.003906 119.089844 C 201.722656 121.875 209.058594 120.65625 214.445312 115.941406 L 221.214844 122.710938 C 216.5 128.097656 215.285156 135.429688 218.070312 142.15625 C 220.851562 148.878906 226.898438 153.203125 234.039062 153.675781 L 234.039062 163.25 C 226.898438 163.726562 220.851562 168.050781 218.070312 174.773438 C 215.285156 181.496094 216.5 188.828125 221.214844 194.214844 L 214.445312 200.984375 C 209.058594 196.269531 201.726562 195.050781 195.003906 197.835938 C 188.277344 200.621094 183.953125 206.667969 183.480469 213.808594 Z M 213.640625 158.464844 C 213.640625 139.195312 197.964844 123.515625 178.695312 123.515625 C 159.421875 123.515625 143.746094 139.195312 143.746094 158.464844 C 143.746094 177.734375 159.421875 193.410156 178.695312 193.410156 C 197.964844 193.410156 213.640625 177.734375 213.640625 158.464844 Z M 166.589844 179.558594 C 167.828125 174.015625 172.785156 169.855469 178.695312 169.855469 C 184.601562 169.855469 189.554688 174.015625 190.796875 179.558594 C 187.230469 181.613281 183.097656 182.796875 178.695312 182.796875 C 174.289062 182.796875 170.15625 181.613281 166.589844 179.558594 Z M 178.695312 154.519531 C 177.105469 154.519531 175.8125 153.230469 175.8125 151.640625 C 175.8125 150.050781 177.105469 148.761719 178.695312 148.761719 C 180.28125 148.761719 181.574219 150.050781 181.574219 151.640625 C 181.574219 153.230469 180.28125 154.519531 178.695312 154.519531 Z M 199.117188 171.664062 C 196.730469 167.085938 192.851562 163.40625 188.128906 161.273438 C 190.628906 158.824219 192.1875 155.410156 192.1875 151.640625 C 192.1875 144.199219 186.136719 138.144531 178.691406 138.144531 C 171.253906 138.144531 165.199219 144.199219 165.199219 151.640625 C 165.199219 155.410156 166.757812 158.820312 169.257812 161.273438 C 164.535156 163.40625 160.65625 167.085938 158.265625 171.664062 C 155.800781 167.859375 154.359375 163.328125 154.359375 158.464844 C 154.359375 145.046875 165.273438 134.128906 178.691406 134.128906 C 192.109375 134.128906 203.027344 145.046875 203.027344 158.464844 C 203.027344 163.328125 201.585938 167.859375 199.117188 171.664062 Z M 381.699219 148.789062 C 357.800781 149.675781 338.625 169.382812 338.625 193.496094 C 338.625 198.703125 341.367188 205.921875 354.425781 210.726562 C 362.152344 213.570312 372.433594 215.136719 383.375 215.136719 C 404.019531 215.136719 428.125 209.46875 428.125 193.496094 C 428.125 169.382812 408.949219 149.675781 385.050781 148.789062 C 397.25 147.925781 406.910156 137.734375 406.910156 125.320312 C 406.910156 112.34375 396.351562 101.785156 383.375 101.785156 C 370.398438 101.785156 359.835938 112.34375 359.835938 125.320312 C 359.835938 137.734375 369.5 147.925781 381.699219 148.789062 Z M 417.511719 193.496094 C 417.511719 198.820312 403.792969 204.523438 383.375 204.523438 C 362.957031 204.523438 349.242188 198.820312 349.242188 193.496094 C 349.242188 174.675781 364.554688 159.363281 383.375 159.363281 C 402.195312 159.363281 417.511719 174.675781 417.511719 193.496094 Z M 383.375 112.402344 C 390.5 112.402344 396.296875 118.195312 396.296875 125.320312 C 396.296875 132.445312 390.5 138.242188 383.375 138.242188 C 376.25 138.242188 370.453125 132.445312 370.453125 125.320312 C 370.453125 118.195312 376.25 112.402344 383.375 112.402344 Z M 487.265625 158.464844 C 487.265625 159.871094 486.707031 161.21875 485.710938 162.214844 L 470.566406 177.359375 C 469.53125 178.394531 468.171875 178.910156 466.816406 178.910156 C 465.457031 178.910156 464.097656 178.394531 463.0625 177.359375 C 460.988281 175.285156 460.988281 171.925781 463.0625 169.851562 L 469.144531 163.769531 L 455.125 163.769531 C 452.195312 163.769531 449.816406 161.394531 449.816406 158.464844 C 449.816406 155.53125 452.195312 153.15625 455.125 153.15625 L 469.144531 153.15625 L 463.0625 147.074219 C 460.988281 145 460.988281 141.640625 463.0625 139.570312 C 465.132812 137.496094 468.496094 137.496094 470.566406 139.570312 L 485.710938 154.710938 C 486.707031 155.707031 487.265625 157.054688 487.265625 158.464844 Z M 281.042969 162.214844 C 280.046875 161.222656 279.484375 159.871094 279.484375 158.464844 C 279.484375 157.054688 280.046875 155.707031 281.042969 154.710938 L 296.183594 139.566406 C 298.253906 137.496094 301.617188 137.496094 303.6875 139.566406 C 305.761719 141.640625 305.761719 145 303.6875 147.074219 L 297.605469 153.15625 L 311.625 153.15625 C 314.558594 153.15625 316.933594 155.53125 316.933594 158.460938 C 316.933594 161.394531 314.558594 163.769531 311.625 163.769531 L 297.605469 163.769531 L 303.6875 169.851562 C 305.761719 171.921875 305.761719 175.285156 303.6875 177.355469 C 302.652344 178.394531 301.292969 178.910156 299.9375 178.910156 C 298.578125 178.910156 297.21875 178.390625 296.183594 177.355469 Z M 319.042969 84.8125 L 324.585938 64.125 C 324.949219 62.765625 325.839844 61.605469 327.058594 60.902344 C 328.277344 60.199219 329.726562 60.007812 331.085938 60.375 L 351.769531 65.917969 C 354.601562 66.675781 356.28125 69.585938 355.523438 72.417969 C 354.765625 75.246094 351.851562 76.925781 349.023438 76.167969 L 340.714844 73.941406 L 347.722656 86.085938 C 349.191406 88.621094 348.320312 91.867188 345.78125 93.332031 C 344.945312 93.816406 344.035156 94.046875 343.132812 94.046875 C 341.300781 94.046875 339.515625 93.09375 338.53125 91.390625 L 331.523438 79.25 L 329.296875 87.558594 C 328.539062 90.390625 325.625 92.070312 322.796875 91.3125 C 319.964844 90.550781 318.285156 87.640625 319.042969 84.8125 Z M 319.042969 232.117188 C 318.285156 229.285156 319.964844 226.375 322.796875 225.617188 C 325.625 224.859375 328.535156 226.539062 329.296875 229.367188 L 331.523438 237.679688 L 338.53125 225.535156 C 340 222.996094 343.242188 222.128906 345.78125 223.59375 C 348.320312 225.058594 349.1875 228.304688 347.722656 230.84375 L 340.710938 242.984375 L 349.023438 240.757812 C 351.847656 240 354.761719 241.679688 355.523438 244.511719 C 356.28125 247.34375 354.597656 250.25 351.769531 251.011719 L 331.085938 256.554688 C 330.632812 256.675781 330.171875 256.734375 329.710938 256.734375 C 328.789062 256.734375 327.871094 256.492188 327.058594 256.023438 C 325.839844 255.320312 324.949219 254.160156 324.582031 252.800781 Z M 447.707031 232.117188 L 442.164062 252.800781 C 441.800781 254.160156 440.910156 255.320312 439.691406 256.023438 C 438.878906 256.492188 437.960938 256.734375 437.039062 256.734375 C 436.578125 256.734375 436.117188 256.675781 435.664062 256.554688 L 414.980469 251.011719 C 412.148438 250.253906 410.46875 247.34375 411.226562 244.511719 C 411.988281 241.679688 414.898438 240 417.726562 240.757812 L 426.035156 242.984375 L 419.027344 230.84375 C 417.558594 228.304688 418.429688 225.058594 420.96875 223.59375 C 423.507812 222.128906 426.753906 223 428.21875 225.535156 L 435.226562 237.679688 L 437.453125 229.371094 C 438.210938 226.539062 441.125 224.855469 443.953125 225.617188 C 446.785156 226.375 448.464844 229.285156 447.707031 232.117188 Z M 447.707031 84.8125 C 448.464844 87.640625 446.785156 90.550781 443.953125 91.308594 C 441.121094 92.070312 438.214844 90.386719 437.457031 87.558594 L 435.230469 79.25 L 428.21875 91.390625 C 427.234375 93.09375 425.453125 94.046875 423.617188 94.046875 C 422.71875 94.046875 421.804688 93.816406 420.96875 93.332031 C 418.429688 91.867188 417.5625 88.621094 419.027344 86.082031 L 426.039062 73.941406 L 417.730469 76.167969 C 414.898438 76.925781 411.988281 75.246094 411.230469 72.414062 C 410.46875 69.585938 412.152344 66.675781 414.980469 65.914062 L 435.667969 60.371094 C 437.023438 60.007812 438.472656 60.199219 439.695312 60.902344 C 440.914062 61.605469 441.800781 62.765625 442.167969 64.125 Z M 394.234375 258.863281 C 396.054688 260.539062 396.476562 263.226562 395.265625 265.386719 C 393.484375 268.511719 391.539062 271.535156 389.46875 274.472656 C 387.566406 277.132812 383.8125 277.480469 381.449219 275.222656 C 379.5625 273.386719 379.296875 270.492188 380.808594 268.339844 C 382.675781 265.714844 384.425781 262.960938 386.023438 260.164062 C 387.714844 257.1875 391.703125 256.558594 394.234375 258.863281 Z M 216.148438 263.84375 C 217.882812 266.574219 219.730469 269.25 221.726562 271.796875 C 223.003906 273.4375 223.21875 275.582031 222.304688 277.445312 C 220.535156 280.929688 215.808594 281.417969 213.382812 278.359375 C 211.167969 275.515625 209.136719 272.589844 207.199219 269.550781 C 205.070312 266.171875 207.238281 261.757812 211.230469 261.40625 C 213.207031 261.25 215.078125 262.175781 216.148438 263.84375 Z M 204.464844 237.269531 C 204.972656 239.117188 204.453125 241.046875 203.113281 242.414062 C 200.222656 245.300781 195.328125 244.003906 194.230469 240.078125 C 193.257812 236.445312 192.480469 232.925781 191.832031 229.222656 C 191.460938 227.066406 192.421875 224.960938 194.269531 223.796875 C 197.480469 221.832031 201.628906 223.695312 202.289062 227.398438 C 202.863281 230.742188 203.578125 233.996094 204.464844 237.269531 Z M 338.707031 119.808594 C 335.695312 118.546875 332.726562 117.449219 329.617188 116.460938 C 327.957031 115.945312 326.6875 114.703125 326.132812 113.058594 C 324.800781 108.957031 328.605469 105.0625 332.730469 106.316406 C 336.1875 107.40625 339.515625 108.636719 342.855469 110.039062 C 346.59375 111.632812 347.230469 116.65625 344.011719 119.136719 C 342.480469 120.308594 340.480469 120.554688 338.707031 119.808594 Z M 246.855469 120.828125 C 245.601562 118.25 246.625 115.148438 249.160156 113.8125 C 252.335938 112.15625 255.601562 110.632812 258.925781 109.296875 C 260.777344 108.542969 262.84375 108.894531 264.371094 110.175781 C 267.390625 112.785156 266.609375 117.609375 262.921875 119.132812 C 259.910156 120.34375 256.976562 121.707031 254.101562 123.207031 C 251.445312 124.605469 248.167969 123.519531 246.855469 120.828125 Z M 286.351562 110.121094 C 284.011719 106.769531 286.148438 102.175781 290.207031 101.785156 C 293.816406 101.476562 297.320312 101.339844 300.941406 101.347656 C 303.132812 101.363281 305.035156 102.671875 305.859375 104.695312 C 307.230469 108.203125 304.671875 111.960938 300.90625 111.964844 C 297.660156 111.941406 294.414062 112.066406 291.179688 112.351562 C 289.269531 112.523438 287.460938 111.679688 286.351562 110.121094 Z M 408.839844 224.816406 C 408.375 228.394531 407.757812 231.894531 406.960938 235.410156 C 406.445312 237.71875 404.480469 239.398438 402.121094 239.550781 C 398.574219 239.761719 395.847656 236.5625 396.601562 233.097656 C 397.320312 229.925781 397.894531 226.753906 398.304688 223.527344 C 398.523438 221.804688 399.519531 220.335938 401.046875 219.503906 C 404.847656 217.472656 409.351562 220.535156 408.839844 224.816406 Z M 408.839844 224.816406 " fill-opacity="1" fill-rule="nonzero"/></g><g fill="#ffffff" fill-opacity="1"><g transform="translate(84.333982, 530.291589)"><g><path d="M 28.015625 -14.9375 C 28.015625 -10.113281 26.640625 -6.414062 23.890625 -3.84375 C 21.140625 -1.28125 17.171875 0 11.984375 0 L 3.6875 0 L 3.6875 -29.3125 L 12.890625 -29.3125 C 17.671875 -29.3125 21.382812 -28.046875 24.03125 -25.515625 C 26.6875 -22.992188 28.015625 -19.46875 28.015625 -14.9375 Z M 21.546875 -14.78125 C 21.546875 -21.070312 18.769531 -24.21875 13.21875 -24.21875 L 9.90625 -24.21875 L 9.90625 -5.140625 L 12.578125 -5.140625 C 18.554688 -5.140625 21.546875 -8.351562 21.546875 -14.78125 Z M 21.546875 -14.78125 "/></g></g></g><g fill="#ffffff" fill-opacity="1"><g transform="translate(114.729854, 530.291589)"><g><path d="M 9.90625 -16.296875 L 11.90625 -16.296875 C 13.875 -16.296875 15.328125 -16.625 16.265625 -17.28125 C 17.203125 -17.9375 17.671875 -18.96875 17.671875 -20.375 C 17.671875 -21.757812 17.191406 -22.742188 16.234375 -23.328125 C 15.273438 -23.921875 13.796875 -24.21875 11.796875 -24.21875 L 9.90625 -24.21875 Z M 9.90625 -11.25 L 9.90625 0 L 3.6875 0 L 3.6875 -29.3125 L 12.234375 -29.3125 C 16.210938 -29.3125 19.15625 -28.585938 21.0625 -27.140625 C 22.976562 -25.691406 23.9375 -23.488281 23.9375 -20.53125 C 23.9375 -18.800781 23.460938 -17.265625 22.515625 -15.921875 C 21.566406 -14.585938 20.222656 -13.535156 18.484375 -12.765625 C 22.898438 -6.179688 25.773438 -1.925781 27.109375 0 L 20.203125 0 L 13.21875 -11.25 Z M 9.90625 -11.25 "/></g></g></g><g fill="#ffffff" fill-opacity="1"><g transform="translate(141.83752, 530.291589)"><g><path d="M 27.546875 -29.3125 L 27.546875 -10.34375 C 27.546875 -8.175781 27.0625 -6.273438 26.09375 -4.640625 C 25.125 -3.015625 23.722656 -1.765625 21.890625 -0.890625 C 20.054688 -0.0234375 17.894531 0.40625 15.40625 0.40625 C 11.632812 0.40625 8.703125 -0.554688 6.609375 -2.484375 C 4.523438 -4.421875 3.484375 -7.066406 3.484375 -10.421875 L 3.484375 -29.3125 L 9.6875 -29.3125 L 9.6875 -11.375 C 9.6875 -9.113281 10.140625 -7.453125 11.046875 -6.390625 C 11.953125 -5.335938 13.457031 -4.8125 15.5625 -4.8125 C 17.59375 -4.8125 19.066406 -5.34375 19.984375 -6.40625 C 20.898438 -7.46875 21.359375 -9.132812 21.359375 -11.40625 L 21.359375 -29.3125 Z M 27.546875 -29.3125 "/></g></g></g><g fill="#ffffff" fill-opacity="1"><g transform="translate(172.874994, 530.291589)"><g><path d="M 21 -8.140625 C 21 -5.492188 20.046875 -3.40625 18.140625 -1.875 C 16.234375 -0.351562 13.582031 0.40625 10.1875 0.40625 C 7.0625 0.40625 4.296875 -0.179688 1.890625 -1.359375 L 1.890625 -7.140625 C 3.867188 -6.253906 5.539062 -5.628906 6.90625 -5.265625 C 8.28125 -4.910156 9.535156 -4.734375 10.671875 -4.734375 C 12.035156 -4.734375 13.078125 -4.992188 13.796875 -5.515625 C 14.523438 -6.035156 14.890625 -6.8125 14.890625 -7.84375 C 14.890625 -8.414062 14.726562 -8.925781 14.40625 -9.375 C 14.09375 -9.820312 13.625 -10.25 13 -10.65625 C 12.375 -11.070312 11.109375 -11.738281 9.203125 -12.65625 C 7.410156 -13.5 6.066406 -14.304688 5.171875 -15.078125 C 4.273438 -15.847656 3.554688 -16.75 3.015625 -17.78125 C 2.484375 -18.8125 2.21875 -20.015625 2.21875 -21.390625 C 2.21875 -23.984375 3.097656 -26.019531 4.859375 -27.5 C 6.617188 -28.988281 9.050781 -29.734375 12.15625 -29.734375 C 13.675781 -29.734375 15.128906 -29.550781 16.515625 -29.1875 C 17.898438 -28.832031 19.347656 -28.328125 20.859375 -27.671875 L 18.84375 -22.84375 C 17.28125 -23.476562 15.988281 -23.921875 14.96875 -24.171875 C 13.945312 -24.429688 12.941406 -24.5625 11.953125 -24.5625 C 10.773438 -24.5625 9.867188 -24.285156 9.234375 -23.734375 C 8.609375 -23.191406 8.296875 -22.476562 8.296875 -21.59375 C 8.296875 -21.039062 8.421875 -20.5625 8.671875 -20.15625 C 8.929688 -19.75 9.335938 -19.351562 9.890625 -18.96875 C 10.453125 -18.59375 11.765625 -17.910156 13.828125 -16.921875 C 16.566406 -15.609375 18.445312 -14.289062 19.46875 -12.96875 C 20.488281 -11.65625 21 -10.046875 21 -8.140625 Z M 20.71875 -38.234375 L 20.71875 -37.703125 C 19.59375 -36.578125 18.554688 -35.457031 17.609375 -34.34375 C 16.671875 -33.226562 15.992188 -32.332031 15.578125 -31.65625 L 8.421875 -31.65625 C 8.035156 -32.289062 7.476562 -33.046875 6.75 -33.921875 C 6.03125 -34.796875 4.878906 -36.054688 3.296875 -37.703125 L 3.296875 -38.234375 L 7.359375 -38.234375 C 9.328125 -36.992188 10.859375 -35.820312 11.953125 -34.71875 C 13.078125 -35.875 14.640625 -37.046875 16.640625 -38.234375 Z M 20.71875 -38.234375 "/></g></g></g><g fill="#ffffff" fill-opacity="1"><g transform="translate(195.491448, 530.291589)"><g><path d="M 15 0 L 8.78125 0 L 8.78125 -24.140625 L 0.828125 -24.140625 L 0.828125 -29.3125 L 22.953125 -29.3125 L 22.953125 -24.140625 L 15 -24.140625 Z M 15 0 "/></g></g></g><g fill="#ffffff" fill-opacity="1"><g transform="translate(219.270805, 530.291589)"><g><path d="M 20.40625 -29.3125 L 26.6875 -29.3125 L 16.71875 0 L 9.9375 0 L 0 -29.3125 L 6.28125 -29.3125 L 11.796875 -11.875 C 12.097656 -10.84375 12.410156 -9.640625 12.734375 -8.265625 C 13.066406 -6.898438 13.273438 -5.945312 13.359375 -5.40625 C 13.503906 -6.644531 14.003906 -8.800781 14.859375 -11.875 Z M 20.40625 -29.3125 "/></g></g></g><g fill="#ffffff" fill-opacity="1"><g transform="translate(245.957419, 530.291589)"><g><path d="M 20.578125 0 L 3.6875 0 L 3.6875 -29.3125 L 20.578125 -29.3125 L 20.578125 -24.21875 L 9.90625 -24.21875 L 9.90625 -17.78125 L 19.828125 -17.78125 L 19.828125 -12.6875 L 9.90625 -12.6875 L 9.90625 -5.140625 L 20.578125 -5.140625 Z M 20.578125 0 "/></g></g></g><g fill="#ffffff" fill-opacity="1"><g transform="translate(268.954824, 530.291589)"><g><path d="M 29.6875 0 L 21.796875 0 L 9.046875 -22.171875 L 8.859375 -22.171875 C 9.117188 -18.253906 9.25 -15.460938 9.25 -13.796875 L 9.25 0 L 3.6875 0 L 3.6875 -29.3125 L 11.53125 -29.3125 L 24.265625 -7.359375 L 24.40625 -7.359375 C 24.195312 -11.171875 24.09375 -13.863281 24.09375 -15.4375 L 24.09375 -29.3125 L 29.6875 -29.3125 Z M 29.6875 0 "/></g></g></g><g fill="#ffffff" fill-opacity="1"><g transform="translate(302.338153, 530.291589)"><g><path d="M 20.578125 0 L 3.6875 0 L 3.6875 -29.3125 L 20.578125 -29.3125 L 20.578125 -24.21875 L 9.90625 -24.21875 L 9.90625 -17.78125 L 19.828125 -17.78125 L 19.828125 -12.6875 L 9.90625 -12.6875 L 9.90625 -5.140625 L 20.578125 -5.140625 Z M 20.578125 0 "/></g></g></g><g fill="#ffffff" fill-opacity="1"><g transform="translate(325.335558, 530.291589)"><g/></g></g><g fill="#ffffff" fill-opacity="1"><g transform="translate(336.002184, 530.291589)"><g><path d="M 20.40625 -29.3125 L 26.6875 -29.3125 L 16.71875 0 L 9.9375 0 L 0 -29.3125 L 6.28125 -29.3125 L 11.796875 -11.875 C 12.097656 -10.84375 12.410156 -9.640625 12.734375 -8.265625 C 13.066406 -6.898438 13.273438 -5.945312 13.359375 -5.40625 C 13.503906 -6.644531 14.003906 -8.800781 14.859375 -11.875 Z M 20.40625 -29.3125 "/></g></g></g><g fill="#ffffff" fill-opacity="1"><g transform="translate(362.688797, 530.291589)"><g><path d="M 0.625 8.625 C -0.78125 8.625 -2.003906 8.476562 -3.046875 8.1875 L -3.046875 3 C -1.972656 3.269531 -1 3.40625 -0.125 3.40625 C 1.238281 3.40625 2.210938 2.976562 2.796875 2.125 C 3.390625 1.28125 3.6875 -0.0390625 3.6875 -1.84375 L 3.6875 -29.3125 L 9.90625 -29.3125 L 9.90625 -1.890625 C 9.90625 1.535156 9.125 4.144531 7.5625 5.9375 C 6 7.726562 3.6875 8.625 0.625 8.625 Z M 0.625 8.625 "/></g></g></g><g fill="#ffffff" fill-opacity="1"><g transform="translate(376.28273, 530.291589)"><g><path d="M 20.578125 0 L 3.6875 0 L 3.6875 -29.3125 L 20.578125 -29.3125 L 20.578125 -24.21875 L 9.90625 -24.21875 L 9.90625 -17.78125 L 19.828125 -17.78125 L 19.828125 -12.6875 L 9.90625 -12.6875 L 9.90625 -5.140625 L 20.578125 -5.140625 Z M 20.578125 0 "/></g></g></g><g fill="#ffffff" fill-opacity="1"><g transform="translate(399.280135, 530.291589)"><g><path d="M 21 -8.140625 C 21 -5.492188 20.046875 -3.40625 18.140625 -1.875 C 16.234375 -0.351562 13.582031 0.40625 10.1875 0.40625 C 7.0625 0.40625 4.296875 -0.179688 1.890625 -1.359375 L 1.890625 -7.140625 C 3.867188 -6.253906 5.539062 -5.628906 6.90625 -5.265625 C 8.28125 -4.910156 9.535156 -4.734375 10.671875 -4.734375 C 12.035156 -4.734375 13.078125 -4.992188 13.796875 -5.515625 C 14.523438 -6.035156 14.890625 -6.8125 14.890625 -7.84375 C 14.890625 -8.414062 14.726562 -8.925781 14.40625 -9.375 C 14.09375 -9.820312 13.625 -10.25 13 -10.65625 C 12.375 -11.070312 11.109375 -11.738281 9.203125 -12.65625 C 7.410156 -13.5 6.066406 -14.304688 5.171875 -15.078125 C 4.273438 -15.847656 3.554688 -16.75 3.015625 -17.78125 C 2.484375 -18.8125 2.21875 -20.015625 2.21875 -21.390625 C 2.21875 -23.984375 3.097656 -26.019531 4.859375 -27.5 C 6.617188 -28.988281 9.050781 -29.734375 12.15625 -29.734375 C 13.675781 -29.734375 15.128906 -29.550781 16.515625 -29.1875 C 17.898438 -28.832031 19.347656 -28.328125 20.859375 -27.671875 L 18.84375 -22.84375 C 17.28125 -23.476562 15.988281 -23.921875 14.96875 -24.171875 C 13.945312 -24.429688 12.941406 -24.5625 11.953125 -24.5625 C 10.773438 -24.5625 9.867188 -24.285156 9.234375 -23.734375 C 8.609375 -23.191406 8.296875 -22.476562 8.296875 -21.59375 C 8.296875 -21.039062 8.421875 -20.5625 8.671875 -20.15625 C 8.929688 -19.75 9.335938 -19.351562 9.890625 -18.96875 C 10.453125 -18.59375 11.765625 -17.910156 13.828125 -16.921875 C 16.566406 -15.609375 18.445312 -14.289062 19.46875 -12.96875 C 20.488281 -11.65625 21 -10.046875 21 -8.140625 Z M 20.71875 -38.234375 L 20.71875 -37.703125 C 19.59375 -36.578125 18.554688 -35.457031 17.609375 -34.34375 C 16.671875 -33.226562 15.992188 -32.332031 15.578125 -31.65625 L 8.421875 -31.65625 C 8.035156 -32.289062 7.476562 -33.046875 6.75 -33.921875 C 6.03125 -34.796875 4.878906 -36.054688 3.296875 -37.703125 L 3.296875 -38.234375 L 7.359375 -38.234375 C 9.328125 -36.992188 10.859375 -35.820312 11.953125 -34.71875 C 13.078125 -35.875 14.640625 -37.046875 16.640625 -38.234375 Z M 20.71875 -38.234375 "/></g></g></g><g fill="#ffffff" fill-opacity="1"><g transform="translate(421.896589, 530.291589)"><g><path d="M 15 0 L 8.78125 0 L 8.78125 -24.140625 L 0.828125 -24.140625 L 0.828125 -29.3125 L 22.953125 -29.3125 L 22.953125 -24.140625 L 15 -24.140625 Z M 15 0 "/></g></g></g><g fill="#ffffff" fill-opacity="1"><g transform="translate(445.675946, 530.291589)"><g><path d="M 3.6875 0 L 3.6875 -29.3125 L 9.90625 -29.3125 L 9.90625 0 Z M 3.6875 0 "/></g></g></g><g fill="#ffffff" fill-opacity="1"><g transform="translate(459.269878, 530.291589)"><g><path d="M 29.6875 0 L 21.796875 0 L 9.046875 -22.171875 L 8.859375 -22.171875 C 9.117188 -18.253906 9.25 -15.460938 9.25 -13.796875 L 9.25 0 L 3.6875 0 L 3.6875 -29.3125 L 11.53125 -29.3125 L 24.265625 -7.359375 L 24.40625 -7.359375 C 24.195312 -11.171875 24.09375 -13.863281 24.09375 -15.4375 L 24.09375 -29.3125 L 29.6875 -29.3125 Z M 29.6875 0 "/></g></g></g><g fill="#ffffff" fill-opacity="1"><g transform="translate(492.653208, 530.291589)"><g><path d="M 20.578125 0 L 3.6875 0 L 3.6875 -29.3125 L 20.578125 -29.3125 L 20.578125 -24.21875 L 9.90625 -24.21875 L 9.90625 -17.78125 L 19.828125 -17.78125 L 19.828125 -12.6875 L 9.90625 -12.6875 L 9.90625 -5.140625 L 20.578125 -5.140625 Z M 20.578125 0 "/></g></g></g></svg>