<svg xmlns="http://www.w3.org/2000/svg" xmlns:xlink="http://www.w3.org/1999/xlink" width="800" zoomAndPan="magnify" viewBox="0 0 600 599.999999" height="800" preserveAspectRatio="xMidYMid meet" version="1.0"><defs><g/><clipPath id="efdab8fb37"><path d="M 145.433594 60 L 211 60 L 211 177 L 145.433594 177 Z M 145.433594 60 " clip-rule="nonzero"/></clipPath><clipPath id="af73de87a7"><path d="M 153 187 L 441 187 L 441 413.25 L 153 413.25 Z M 153 187 " clip-rule="nonzero"/></clipPath><clipPath id="940de31999"><path d="M 432 96 L 454.433594 96 L 454.433594 108 L 432 108 Z M 432 96 " clip-rule="nonzero"/></clipPath></defs><path fill="#ffffff" d="M 303.851562 156.574219 C 312.929688 156.574219 320.359375 149.148438 320.359375 140.066406 C 320.359375 130.988281 312.929688 123.558594 303.851562 123.558594 C 294.769531 123.558594 287.339844 130.988281 287.339844 140.066406 C 287.617188 149.148438 295.046875 156.574219 303.851562 156.574219 Z M 303.851562 134.5625 C 306.875 134.5625 309.351562 137.039062 309.351562 140.066406 C 309.351562 143.09375 306.875 145.570312 303.851562 145.570312 C 300.824219 145.570312 298.347656 143.09375 298.347656 140.066406 C 298.347656 137.039062 301.097656 134.5625 303.851562 134.5625 Z M 303.851562 134.5625 " fill-opacity="1" fill-rule="nonzero"/><path fill="#ffffff" d="M 275.234375 93.292969 C 266.15625 93.292969 258.726562 100.722656 258.726562 109.800781 C 258.726562 118.882812 266.15625 126.308594 275.234375 126.308594 C 284.316406 126.308594 291.742188 118.882812 291.742188 109.800781 C 291.742188 100.722656 284.039062 93.292969 275.234375 93.292969 Z M 275.234375 115.304688 C 272.207031 115.304688 269.730469 112.828125 269.730469 109.800781 C 269.730469 106.773438 272.207031 104.296875 275.234375 104.296875 C 278.261719 104.296875 280.738281 106.773438 280.738281 109.800781 C 280.738281 112.828125 277.988281 115.304688 275.234375 115.304688 Z M 275.234375 115.304688 " fill-opacity="1" fill-rule="nonzero"/><path fill="#ffffff" d="M 249.648438 109.800781 C 249.648438 100.722656 242.21875 93.292969 233.136719 93.292969 C 224.058594 93.292969 216.628906 100.722656 216.628906 109.800781 C 216.628906 118.882812 224.058594 126.308594 233.136719 126.308594 C 242.21875 126.308594 249.648438 118.882812 249.648438 109.800781 Z M 227.910156 109.800781 C 227.910156 106.773438 230.386719 104.296875 233.414062 104.296875 C 236.441406 104.296875 238.917969 106.773438 238.917969 109.800781 C 238.917969 112.828125 236.441406 115.304688 233.414062 115.304688 C 230.386719 115.304688 227.910156 112.828125 227.910156 109.800781 Z M 227.910156 109.800781 " fill-opacity="1" fill-rule="nonzero"/><g clip-path="url(#efdab8fb37)"><path fill="#ffffff" d="M 146.191406 115.304688 C 146.191406 115.578125 146.191406 115.578125 146.191406 115.304688 C 146.46875 115.855469 146.46875 115.855469 146.46875 116.128906 L 166.003906 176.9375 C 167.378906 176.386719 169.03125 176.109375 170.679688 176.109375 L 177.285156 176.109375 L 158.300781 116.679688 L 162.976562 115.027344 L 182.511719 176.386719 L 194.066406 176.386719 L 173.433594 111.726562 L 178.109375 110.078125 L 199.296875 176.386719 L 210.851562 176.386719 L 187.1875 102.371094 C 187.1875 102.097656 186.914062 102.097656 186.914062 101.820312 C 186.914062 101.546875 186.914062 101.546875 186.914062 101.273438 C 186.640625 100.445312 186.089844 99.894531 185.8125 99.34375 C 185.8125 99.34375 185.539062 99.070312 185.539062 99.070312 L 157.472656 63.027344 C 156.097656 61.101562 153.621094 60.550781 151.421875 61.101562 C 149.21875 61.925781 147.566406 63.851562 147.566406 66.054688 L 145.917969 112.277344 C 145.917969 112.550781 145.917969 112.550781 145.917969 112.828125 C 145.917969 113.652344 145.917969 114.480469 146.191406 115.304688 Z M 172.605469 100.445312 L 164.902344 103.199219 L 157.199219 105.949219 L 157.75 88.339844 L 161.875 86.964844 Z M 172.605469 100.445312 " fill-opacity="1" fill-rule="nonzero"/></g><g clip-path="url(#af73de87a7)"><path fill="#ffffff" d="M 427.113281 307.628906 L 428.214844 307.078125 C 428.492188 307.078125 429.039062 306.804688 429.316406 306.804688 C 431.792969 305.980469 435.917969 304.601562 438.394531 300.75 C 440.320312 297.449219 440.871094 293.324219 439.222656 289.746094 C 437.019531 284.242188 433.441406 279.839844 429.589844 274.886719 C 426.566406 271.035156 423.539062 267.183594 420.785156 262.507812 C 420.234375 261.40625 419.410156 260.304688 418.859375 259.203125 C 414.457031 251.777344 410.054688 244.070312 411.429688 238.019531 C 414.183594 222.335938 412.808594 206.375 407.304688 191.242188 C 406.480469 189.042969 404.554688 187.667969 402.078125 187.667969 L 168.203125 187.667969 C 166.003906 187.667969 164.078125 189.042969 162.976562 190.96875 C 158.023438 203.074219 154.722656 215.730469 153.898438 226.460938 C 152.246094 249.023438 157.75 271.035156 169.578125 288.644531 C 171.503906 291.671875 173.433594 294.699219 175.082031 297.449219 C 177.285156 301.300781 179.761719 305.152344 182.785156 309.28125 C 195.71875 327.441406 222.683594 372.5625 194.894531 404.207031 C 193.515625 405.855469 193.242188 408.058594 194.066406 409.984375 C 194.894531 411.910156 196.820312 413.285156 199.019531 413.285156 L 328.0625 413.285156 C 330.265625 413.285156 332.464844 411.910156 333.289062 409.707031 C 334.117188 407.507812 333.566406 405.304688 331.914062 403.65625 C 324.484375 396.5 320.632812 390.722656 320.910156 378.890625 C 341.820312 391 364.105469 398.152344 385.566406 400.078125 C 392.171875 400.628906 398.226562 398.976562 403.175781 395.402344 C 407.304688 392.375 410.332031 388.246094 411.707031 383.570312 C 413.90625 376.140625 412.808594 367.886719 411.980469 361.28125 C 411.707031 359.082031 411.429688 356.054688 411.429688 354.128906 C 411.429688 354.128906 411.707031 354.128906 411.707031 354.128906 C 414.457031 353.578125 421.335938 352.203125 421.335938 345.601562 C 421.335938 343.398438 420.511719 341.472656 419.410156 340.097656 C 421.0625 339.820312 422.4375 339.269531 423.539062 338.445312 C 430.691406 332.941406 426.839844 323.863281 424.089844 318.085938 C 422.988281 315.609375 421.0625 311.480469 421.613281 310.105469 C 422.988281 309.003906 425.1875 308.457031 427.113281 307.628906 Z M 414.457031 302.125 C 408.128906 308.179688 411.707031 316.433594 414.457031 322.488281 C 415.285156 324.6875 416.933594 327.992188 416.933594 329.367188 C 416.109375 329.367188 414.734375 329.367188 413.90625 329.640625 C 410.332031 329.640625 405.101562 329.917969 404.003906 334.867188 C 403.175781 338.722656 405.929688 341.472656 408.128906 343.949219 C 405.652344 344.5 402.902344 345.601562 401.527344 348.625 C 399.875 352.476562 400.699219 357.15625 401.25 362.933594 C 402.078125 368.710938 402.902344 375.589844 401.25 380.816406 C 400.699219 383.019531 399.050781 385.21875 396.847656 386.871094 C 394.371094 388.796875 390.796875 389.621094 386.945312 389.347656 C 365.757812 387.421875 343.746094 379.992188 323.109375 367.335938 L 322.285156 366.785156 C 321.460938 366.234375 320.359375 365.683594 319.535156 365.136719 C 319.535156 365.136719 319.257812 365.136719 319.257812 364.859375 C 306.050781 356.332031 305.777344 351.101562 305.777344 350.003906 C 306.050781 346.976562 303.851562 344.222656 300.824219 343.949219 C 297.796875 343.671875 295.046875 345.875 294.769531 348.902344 C 294.21875 356.605469 299.449219 364.585938 310.453125 372.011719 C 309.351562 385.769531 311.554688 394.300781 316.507812 401.730469 L 210.300781 401.730469 C 231.761719 365.683594 205.347656 321.113281 192.140625 302.402344 C 189.390625 298.550781 187.1875 294.972656 184.988281 291.394531 C 183.335938 288.371094 181.410156 285.34375 179.210938 282.316406 C 168.753906 266.632812 163.800781 247.097656 165.453125 227.011719 C 166.003906 218.484375 168.480469 208.304688 172.332031 198.398438 L 398.5 198.398438 C 402.351562 210.503906 403.175781 223.4375 400.976562 235.816406 C 399.050781 245.996094 404.828125 255.902344 409.78125 264.433594 C 410.332031 265.53125 411.15625 266.632812 411.707031 267.734375 C 414.734375 272.960938 418.308594 277.640625 421.335938 281.492188 C 424.914062 285.894531 427.664062 289.746094 429.316406 293.597656 C 429.589844 294.148438 429.589844 294.421875 429.316406 294.421875 C 429.039062 294.972656 427.390625 295.523438 426.289062 296.074219 C 425.738281 296.347656 425.1875 296.347656 424.636719 296.625 L 423.539062 296.898438 C 420.511719 298.273438 417.210938 299.375 414.457031 302.125 Z M 414.457031 302.125 " fill-opacity="1" fill-rule="nonzero"/></g><path fill="#ffffff" d="M 382.816406 60.824219 C 371.261719 60 359.980469 64.128906 351.449219 71.832031 C 343.195312 79.535156 338.519531 89.992188 338.519531 101.273438 C 338.519531 113.929688 344.296875 125.757812 354.75 133.464844 C 357.777344 135.664062 359.703125 139.242188 359.703125 142.542969 L 359.703125 149.421875 C 359.703125 154.375 363.28125 159.601562 368.785156 159.601562 L 390.796875 159.601562 C 396.296875 159.601562 400.152344 154.375 400.152344 149.421875 L 400.152344 141.992188 C 400.152344 138.691406 401.800781 135.390625 404.828125 133.1875 C 415.832031 124.933594 421.886719 111.726562 420.785156 98.246094 C 419.6875 78.433594 403.175781 62.199219 382.816406 60.824219 Z M 398.226562 124.933594 C 392.445312 129.335938 389.144531 135.664062 389.144531 142.542969 L 389.144531 148.871094 L 370.433594 148.871094 L 370.433594 142.820312 C 370.433594 135.941406 366.859375 129.0625 361.355469 124.933594 C 353.925781 119.15625 349.523438 110.625 349.523438 101.546875 C 349.523438 93.292969 352.824219 85.863281 358.878906 80.085938 C 365.207031 74.308594 373.1875 71.28125 381.992188 71.832031 C 397.125 72.933594 408.957031 84.761719 410.054688 99.34375 C 410.605469 109.25 406.203125 118.882812 398.226562 124.933594 Z M 398.226562 124.933594 " fill-opacity="1" fill-rule="nonzero"/><path fill="#ffffff" d="M 392.996094 103.746094 C 392.996094 103.199219 392.996094 102.921875 392.996094 102.648438 C 392.996094 102.371094 392.996094 102.371094 392.722656 102.097656 C 392.722656 101.820312 392.722656 101.820312 392.445312 101.546875 C 392.445312 101.273438 392.171875 101.273438 392.171875 100.996094 C 392.171875 100.722656 391.894531 100.722656 391.894531 100.445312 C 391.894531 100.445312 391.621094 100.171875 391.621094 100.171875 C 391.621094 99.894531 391.347656 99.894531 391.347656 99.621094 C 391.347656 99.621094 391.070312 99.34375 391.070312 99.34375 C 390.796875 99.621094 390.796875 99.34375 390.519531 99.34375 C 390.246094 99.34375 390.246094 99.070312 389.96875 99.070312 C 389.96875 99.070312 389.695312 99.070312 389.695312 98.796875 C 389.421875 98.519531 389.144531 98.519531 388.59375 98.519531 C 388.320312 98.519531 387.769531 98.519531 387.492188 98.519531 L 381.441406 98.519531 L 385.292969 89.164062 C 386.394531 86.414062 385.292969 83.113281 382.542969 82.011719 C 379.789062 80.910156 376.488281 82.011719 375.386719 84.761719 L 368.234375 101.546875 C 367.957031 101.820312 367.957031 102.371094 367.957031 102.648438 C 367.957031 102.921875 367.957031 103.472656 367.957031 103.746094 C 367.957031 103.746094 367.957031 104.023438 367.957031 104.023438 C 367.957031 104.296875 367.957031 104.574219 367.957031 104.847656 C 367.957031 105.125 367.957031 105.125 368.234375 105.398438 C 368.234375 105.675781 368.234375 105.675781 368.507812 105.949219 C 368.507812 106.222656 368.785156 106.222656 368.785156 106.5 C 368.785156 106.773438 369.058594 106.773438 369.058594 107.050781 C 369.058594 107.324219 369.335938 107.324219 369.335938 107.324219 C 369.335938 107.601562 369.609375 107.601562 369.609375 107.875 C 369.609375 107.875 369.886719 108.148438 370.160156 108.148438 C 370.160156 108.148438 370.433594 108.425781 370.433594 108.425781 C 370.710938 108.699219 370.984375 108.699219 371.261719 108.976562 C 371.535156 109.25 372.085938 109.25 372.359375 109.25 C 372.636719 109.25 373.1875 109.25 373.460938 109.25 L 379.515625 109.25 L 375.113281 118.605469 C 374.011719 121.355469 375.113281 124.660156 378.140625 125.757812 C 378.964844 126.035156 379.515625 126.308594 380.339844 126.308594 C 382.542969 126.308594 384.46875 124.933594 385.292969 123.007812 L 392.445312 106.222656 C 392.722656 105.949219 392.722656 105.398438 392.722656 105.125 C 392.996094 104.574219 392.996094 104.296875 392.996094 103.746094 Z M 392.996094 103.746094 " fill-opacity="1" fill-rule="nonzero"/><path fill="#ffffff" d="M 371.535156 165.378906 C 368.507812 165.378906 366.03125 167.855469 366.03125 170.882812 C 366.03125 173.910156 368.507812 176.386719 371.535156 176.386719 L 388.042969 176.386719 C 391.070312 176.386719 393.546875 173.910156 393.546875 170.882812 C 393.546875 167.855469 391.070312 165.378906 388.042969 165.378906 Z M 371.535156 165.378906 " fill-opacity="1" fill-rule="nonzero"/><path fill="#ffffff" d="M 432.066406 86.964844 C 433.441406 86.964844 435.09375 86.414062 436.195312 85.3125 L 443.898438 77.058594 C 445.824219 74.859375 445.824219 71.28125 443.625 69.355469 C 441.421875 67.429688 437.84375 67.429688 435.917969 69.628906 L 428.214844 77.882812 C 426.289062 80.085938 426.289062 83.664062 428.492188 85.589844 C 429.316406 86.414062 430.691406 86.964844 432.066406 86.964844 Z M 432.066406 86.964844 " fill-opacity="1" fill-rule="nonzero"/><path fill="#ffffff" d="M 443.625 127.136719 L 435.917969 118.882812 C 433.992188 116.679688 430.417969 116.40625 428.214844 118.605469 C 426.015625 120.53125 425.738281 124.109375 427.941406 126.308594 L 435.644531 134.5625 C 436.746094 135.664062 438.121094 136.214844 439.769531 136.214844 C 441.148438 136.214844 442.523438 135.664062 443.625 134.839844 C 445.550781 132.914062 445.824219 129.613281 443.625 127.136719 Z M 443.625 127.136719 " fill-opacity="1" fill-rule="nonzero"/><g clip-path="url(#940de31999)"><path fill="#ffffff" d="M 454.078125 102.097656 C 454.078125 99.070312 451.601562 96.59375 448.574219 96.59375 L 438.394531 96.59375 C 435.367188 96.59375 432.894531 99.070312 432.894531 102.097656 C 432.894531 105.125 435.367188 107.601562 438.394531 107.601562 L 448.574219 107.601562 C 451.601562 107.601562 454.078125 105.125 454.078125 102.097656 Z M 454.078125 102.097656 " fill-opacity="1" fill-rule="nonzero"/></g><path fill="#ffffff" d="M 222.957031 176.386719 C 222.683594 176.386719 222.683594 176.109375 222.40625 176.109375 L 222.40625 176.386719 Z M 222.957031 176.386719 " fill-opacity="1" fill-rule="nonzero"/><path fill="#ffffff" d="M 349.523438 176.386719 C 350.074219 164.28125 348.699219 152.171875 345.398438 140.34375 C 334.390625 130.710938 327.789062 117.230469 327.511719 102.648438 C 314.03125 84.210938 295.597656 72.382812 274.410156 68.53125 C 258.453125 65.777344 218.554688 61.925781 194.894531 88.066406 C 194.066406 88.890625 193.515625 89.714844 192.96875 90.542969 L 194.894531 93.292969 C 195.992188 94.941406 197.09375 96.59375 197.644531 98.519531 L 198.746094 101.546875 C 200.121094 99.621094 201.496094 97.417969 203.148438 95.769531 C 222.957031 73.207031 258.175781 76.785156 272.484375 79.261719 C 293.121094 82.835938 311.277344 96.042969 323.386719 115.855469 C 334.117188 133.738281 339.34375 155.476562 338.519531 176.386719 Z M 349.523438 176.386719 " fill-opacity="1" fill-rule="nonzero"/><path fill="#ffffff" d="M 312.105469 174.734375 C 313.480469 174.734375 314.855469 175.285156 315.957031 176.386719 L 328.0625 176.386719 C 326.410156 169.230469 319.808594 163.730469 312.105469 163.730469 C 304.402344 163.730469 297.796875 169.230469 296.144531 176.386719 L 308.253906 176.386719 C 309.351562 175.285156 310.730469 174.734375 312.105469 174.734375 Z M 312.105469 174.734375 " fill-opacity="1" fill-rule="nonzero"/><g fill="#ffffff" fill-opacity="1"><g transform="translate(34.189452, 530.291589)"><g><path d="M 9.90625 -15.515625 L 11.953125 -15.515625 C 13.859375 -15.515625 15.285156 -15.890625 16.234375 -16.640625 C 17.191406 -17.398438 17.671875 -18.503906 17.671875 -19.953125 C 17.671875 -21.410156 17.269531 -22.484375 16.46875 -23.171875 C 15.675781 -23.867188 14.429688 -24.21875 12.734375 -24.21875 L 9.90625 -24.21875 Z M 23.9375 -20.171875 C 23.9375 -17.015625 22.953125 -14.597656 20.984375 -12.921875 C 19.015625 -11.253906 16.210938 -10.421875 12.578125 -10.421875 L 9.90625 -10.421875 L 9.90625 0 L 3.6875 0 L 3.6875 -29.3125 L 13.046875 -29.3125 C 16.609375 -29.3125 19.3125 -28.546875 21.15625 -27.015625 C 23.007812 -25.484375 23.9375 -23.203125 23.9375 -20.171875 Z M 23.9375 -20.171875 "/></g></g></g><g fill="#ffffff" fill-opacity="1"><g transform="translate(59.973813, 530.291589)"><g><path d="M 9.90625 -16.296875 L 11.90625 -16.296875 C 13.875 -16.296875 15.328125 -16.625 16.265625 -17.28125 C 17.203125 -17.9375 17.671875 -18.96875 17.671875 -20.375 C 17.671875 -21.757812 17.191406 -22.742188 16.234375 -23.328125 C 15.273438 -23.921875 13.796875 -24.21875 11.796875 -24.21875 L 9.90625 -24.21875 Z M 9.90625 -11.25 L 9.90625 0 L 3.6875 0 L 3.6875 -29.3125 L 12.234375 -29.3125 C 16.210938 -29.3125 19.15625 -28.585938 21.0625 -27.140625 C 22.976562 -25.691406 23.9375 -23.488281 23.9375 -20.53125 C 23.9375 -18.800781 23.460938 -17.265625 22.515625 -15.921875 C 21.566406 -14.585938 20.222656 -13.535156 18.484375 -12.765625 C 22.898438 -6.179688 25.773438 -1.925781 27.109375 0 L 20.203125 0 L 13.21875 -11.25 Z M 9.90625 -11.25 "/></g></g></g><g fill="#ffffff" fill-opacity="1"><g transform="translate(87.081478, 530.291589)"><g><path d="M 30.296875 -14.703125 C 30.296875 -9.847656 29.09375 -6.113281 26.6875 -3.5 C 24.28125 -0.894531 20.832031 0.40625 16.34375 0.40625 C 11.851562 0.40625 8.40625 -0.894531 6 -3.5 C 3.59375 -6.113281 2.390625 -9.859375 2.390625 -14.734375 C 2.390625 -19.617188 3.59375 -23.347656 6 -25.921875 C 8.414062 -28.492188 11.875 -29.78125 16.375 -29.78125 C 20.882812 -29.78125 24.332031 -28.484375 26.71875 -25.890625 C 29.101562 -23.296875 30.296875 -19.566406 30.296875 -14.703125 Z M 8.90625 -14.703125 C 8.90625 -11.421875 9.523438 -8.953125 10.765625 -7.296875 C 12.003906 -5.640625 13.863281 -4.8125 16.34375 -4.8125 C 21.300781 -4.8125 23.78125 -8.109375 23.78125 -14.703125 C 23.78125 -21.296875 21.3125 -24.59375 16.375 -24.59375 C 13.90625 -24.59375 12.039062 -23.757812 10.78125 -22.09375 C 9.53125 -20.4375 8.90625 -17.972656 8.90625 -14.703125 Z M 8.90625 -14.703125 "/></g></g></g><g fill="#ffffff" fill-opacity="1"><g transform="translate(119.763056, 530.291589)"><g><path d="M 9.796875 0 L 3.6875 0 L 3.6875 -29.3125 L 20.484375 -29.3125 L 20.484375 -24.21875 L 9.796875 -24.21875 L 9.796875 -16.65625 L 19.75 -16.65625 L 19.75 -11.59375 L 9.796875 -11.59375 Z M 9.796875 0 "/></g></g></g><g fill="#ffffff" fill-opacity="1"><g transform="translate(142.29931, 530.291589)"><g><path d="M 20.578125 0 L 3.6875 0 L 3.6875 -29.3125 L 20.578125 -29.3125 L 20.578125 -24.21875 L 9.90625 -24.21875 L 9.90625 -17.78125 L 19.828125 -17.78125 L 19.828125 -12.6875 L 9.90625 -12.6875 L 9.90625 -5.140625 L 20.578125 -5.140625 Z M 20.578125 0 "/></g></g></g><g fill="#ffffff" fill-opacity="1"><g transform="translate(165.296715, 530.291589)"><g><path d="M 21 -8.140625 C 21 -5.492188 20.046875 -3.40625 18.140625 -1.875 C 16.234375 -0.351562 13.582031 0.40625 10.1875 0.40625 C 7.0625 0.40625 4.296875 -0.179688 1.890625 -1.359375 L 1.890625 -7.140625 C 3.867188 -6.253906 5.539062 -5.628906 6.90625 -5.265625 C 8.28125 -4.910156 9.535156 -4.734375 10.671875 -4.734375 C 12.035156 -4.734375 13.078125 -4.992188 13.796875 -5.515625 C 14.523438 -6.035156 14.890625 -6.8125 14.890625 -7.84375 C 14.890625 -8.414062 14.726562 -8.925781 14.40625 -9.375 C 14.09375 -9.820312 13.625 -10.25 13 -10.65625 C 12.375 -11.070312 11.109375 -11.738281 9.203125 -12.65625 C 7.410156 -13.5 6.066406 -14.304688 5.171875 -15.078125 C 4.273438 -15.847656 3.554688 -16.75 3.015625 -17.78125 C 2.484375 -18.8125 2.21875 -20.015625 2.21875 -21.390625 C 2.21875 -23.984375 3.097656 -26.019531 4.859375 -27.5 C 6.617188 -28.988281 9.050781 -29.734375 12.15625 -29.734375 C 13.675781 -29.734375 15.128906 -29.550781 16.515625 -29.1875 C 17.898438 -28.832031 19.347656 -28.328125 20.859375 -27.671875 L 18.84375 -22.84375 C 17.28125 -23.476562 15.988281 -23.921875 14.96875 -24.171875 C 13.945312 -24.429688 12.941406 -24.5625 11.953125 -24.5625 C 10.773438 -24.5625 9.867188 -24.285156 9.234375 -23.734375 C 8.609375 -23.191406 8.296875 -22.476562 8.296875 -21.59375 C 8.296875 -21.039062 8.421875 -20.5625 8.671875 -20.15625 C 8.929688 -19.75 9.335938 -19.351562 9.890625 -18.96875 C 10.453125 -18.59375 11.765625 -17.910156 13.828125 -16.921875 C 16.566406 -15.609375 18.445312 -14.289062 19.46875 -12.96875 C 20.488281 -11.65625 21 -10.046875 21 -8.140625 Z M 21 -8.140625 "/></g></g></g><g fill="#ffffff" fill-opacity="1"><g transform="translate(187.913169, 530.291589)"><g><path d="M 3.6875 0 L 3.6875 -29.3125 L 9.90625 -29.3125 L 9.90625 0 Z M 3.6875 0 "/></g></g></g><g fill="#ffffff" fill-opacity="1"><g transform="translate(201.507102, 530.291589)"><g><path d="M 30.296875 -14.703125 C 30.296875 -9.847656 29.09375 -6.113281 26.6875 -3.5 C 24.28125 -0.894531 20.832031 0.40625 16.34375 0.40625 C 11.851562 0.40625 8.40625 -0.894531 6 -3.5 C 3.59375 -6.113281 2.390625 -9.859375 2.390625 -14.734375 C 2.390625 -19.617188 3.59375 -23.347656 6 -25.921875 C 8.414062 -28.492188 11.875 -29.78125 16.375 -29.78125 C 20.882812 -29.78125 24.332031 -28.484375 26.71875 -25.890625 C 29.101562 -23.296875 30.296875 -19.566406 30.296875 -14.703125 Z M 8.90625 -14.703125 C 8.90625 -11.421875 9.523438 -8.953125 10.765625 -7.296875 C 12.003906 -5.640625 13.863281 -4.8125 16.34375 -4.8125 C 21.300781 -4.8125 23.78125 -8.109375 23.78125 -14.703125 C 23.78125 -21.296875 21.3125 -24.59375 16.375 -24.59375 C 13.90625 -24.59375 12.039062 -23.757812 10.78125 -22.09375 C 9.53125 -20.4375 8.90625 -17.972656 8.90625 -14.703125 Z M 8.90625 -14.703125 "/></g></g></g><g fill="#ffffff" fill-opacity="1"><g transform="translate(234.188679, 530.291589)"><g><path d="M 29.6875 0 L 21.796875 0 L 9.046875 -22.171875 L 8.859375 -22.171875 C 9.117188 -18.253906 9.25 -15.460938 9.25 -13.796875 L 9.25 0 L 3.6875 0 L 3.6875 -29.3125 L 11.53125 -29.3125 L 24.265625 -7.359375 L 24.40625 -7.359375 C 24.195312 -11.171875 24.09375 -13.863281 24.09375 -15.4375 L 24.09375 -29.3125 L 29.6875 -29.3125 Z M 29.6875 0 "/></g></g></g><g fill="#ffffff" fill-opacity="1"><g transform="translate(267.572009, 530.291589)"><g><path d="M 21.640625 0 L 19.515625 -6.984375 L 8.828125 -6.984375 L 6.703125 0 L 0 0 L 10.34375 -29.4375 L 17.9375 -29.4375 L 28.328125 0 Z M 18.03125 -12.1875 C 16.0625 -18.507812 14.953125 -22.082031 14.703125 -22.90625 C 14.453125 -23.738281 14.273438 -24.394531 14.171875 -24.875 C 13.734375 -23.164062 12.472656 -18.9375 10.390625 -12.1875 Z M 18.03125 -12.1875 "/></g></g></g><g fill="#ffffff" fill-opacity="1"><g transform="translate(295.902727, 530.291589)"><g><path d="M 3.6875 0 L 3.6875 -29.3125 L 9.90625 -29.3125 L 9.90625 -5.140625 L 21.796875 -5.140625 L 21.796875 0 Z M 3.6875 0 "/></g></g></g><g fill="#ffffff" fill-opacity="1"><g transform="translate(319.100632, 530.291589)"><g><path d="M 29.6875 0 L 21.796875 0 L 9.046875 -22.171875 L 8.859375 -22.171875 C 9.117188 -18.253906 9.25 -15.460938 9.25 -13.796875 L 9.25 0 L 3.6875 0 L 3.6875 -29.3125 L 11.53125 -29.3125 L 24.265625 -7.359375 L 24.40625 -7.359375 C 24.195312 -11.171875 24.09375 -13.863281 24.09375 -15.4375 L 24.09375 -29.3125 L 29.6875 -29.3125 Z M 29.6875 0 "/></g></g></g><g fill="#ffffff" fill-opacity="1"><g transform="translate(352.483962, 530.291589)"><g><path d="M 20.578125 0 L 3.6875 0 L 3.6875 -29.3125 L 20.578125 -29.3125 L 20.578125 -24.21875 L 9.90625 -24.21875 L 9.90625 -17.78125 L 19.828125 -17.78125 L 19.828125 -12.6875 L 9.90625 -12.6875 L 9.90625 -5.140625 L 20.578125 -5.140625 Z M 20.578125 0 "/></g></g></g><g fill="#ffffff" fill-opacity="1"><g transform="translate(375.481367, 530.291589)"><g/></g></g><g fill="#ffffff" fill-opacity="1"><g transform="translate(386.147992, 530.291589)"><g><path d="M 20.40625 -29.3125 L 26.6875 -29.3125 L 16.71875 0 L 9.9375 0 L 0 -29.3125 L 6.28125 -29.3125 L 11.796875 -11.875 C 12.097656 -10.84375 12.410156 -9.640625 12.734375 -8.265625 C 13.066406 -6.898438 13.273438 -5.945312 13.359375 -5.40625 C 13.503906 -6.644531 14.003906 -8.800781 14.859375 -11.875 Z M 20.40625 -29.3125 "/></g></g></g><g fill="#ffffff" fill-opacity="1"><g transform="translate(412.834606, 530.291589)"><g><path d="M 0.625 8.625 C -0.78125 8.625 -2.003906 8.476562 -3.046875 8.1875 L -3.046875 3 C -1.972656 3.269531 -1 3.40625 -0.125 3.40625 C 1.238281 3.40625 2.210938 2.976562 2.796875 2.125 C 3.390625 1.28125 3.6875 -0.0390625 3.6875 -1.84375 L 3.6875 -29.3125 L 9.90625 -29.3125 L 9.90625 -1.890625 C 9.90625 1.535156 9.125 4.144531 7.5625 5.9375 C 6 7.726562 3.6875 8.625 0.625 8.625 Z M 0.625 8.625 "/></g></g></g><g fill="#ffffff" fill-opacity="1"><g transform="translate(426.428538, 530.291589)"><g><path d="M 20.578125 0 L 3.6875 0 L 3.6875 -29.3125 L 20.578125 -29.3125 L 20.578125 -24.21875 L 9.90625 -24.21875 L 9.90625 -17.78125 L 19.828125 -17.78125 L 19.828125 -12.6875 L 9.90625 -12.6875 L 9.90625 -5.140625 L 20.578125 -5.140625 Z M 20.578125 0 "/></g></g></g><g fill="#ffffff" fill-opacity="1"><g transform="translate(449.425943, 530.291589)"><g><path d="M 21 -8.140625 C 21 -5.492188 20.046875 -3.40625 18.140625 -1.875 C 16.234375 -0.351562 13.582031 0.40625 10.1875 0.40625 C 7.0625 0.40625 4.296875 -0.179688 1.890625 -1.359375 L 1.890625 -7.140625 C 3.867188 -6.253906 5.539062 -5.628906 6.90625 -5.265625 C 8.28125 -4.910156 9.535156 -4.734375 10.671875 -4.734375 C 12.035156 -4.734375 13.078125 -4.992188 13.796875 -5.515625 C 14.523438 -6.035156 14.890625 -6.8125 14.890625 -7.84375 C 14.890625 -8.414062 14.726562 -8.925781 14.40625 -9.375 C 14.09375 -9.820312 13.625 -10.25 13 -10.65625 C 12.375 -11.070312 11.109375 -11.738281 9.203125 -12.65625 C 7.410156 -13.5 6.066406 -14.304688 5.171875 -15.078125 C 4.273438 -15.847656 3.554688 -16.75 3.015625 -17.78125 C 2.484375 -18.8125 2.21875 -20.015625 2.21875 -21.390625 C 2.21875 -23.984375 3.097656 -26.019531 4.859375 -27.5 C 6.617188 -28.988281 9.050781 -29.734375 12.15625 -29.734375 C 13.675781 -29.734375 15.128906 -29.550781 16.515625 -29.1875 C 17.898438 -28.832031 19.347656 -28.328125 20.859375 -27.671875 L 18.84375 -22.84375 C 17.28125 -23.476562 15.988281 -23.921875 14.96875 -24.171875 C 13.945312 -24.429688 12.941406 -24.5625 11.953125 -24.5625 C 10.773438 -24.5625 9.867188 -24.285156 9.234375 -23.734375 C 8.609375 -23.191406 8.296875 -22.476562 8.296875 -21.59375 C 8.296875 -21.039062 8.421875 -20.5625 8.671875 -20.15625 C 8.929688 -19.75 9.335938 -19.351562 9.890625 -18.96875 C 10.453125 -18.59375 11.765625 -17.910156 13.828125 -16.921875 C 16.566406 -15.609375 18.445312 -14.289062 19.46875 -12.96875 C 20.488281 -11.65625 21 -10.046875 21 -8.140625 Z M 20.71875 -38.234375 L 20.71875 -37.703125 C 19.59375 -36.578125 18.554688 -35.457031 17.609375 -34.34375 C 16.671875 -33.226562 15.992188 -32.332031 15.578125 -31.65625 L 8.421875 -31.65625 C 8.035156 -32.289062 7.476562 -33.046875 6.75 -33.921875 C 6.03125 -34.796875 4.878906 -36.054688 3.296875 -37.703125 L 3.296875 -38.234375 L 7.359375 -38.234375 C 9.328125 -36.992188 10.859375 -35.820312 11.953125 -34.71875 C 13.078125 -35.875 14.640625 -37.046875 16.640625 -38.234375 Z M 20.71875 -38.234375 "/></g></g></g><g fill="#ffffff" fill-opacity="1"><g transform="translate(472.042397, 530.291589)"><g><path d="M 15 0 L 8.78125 0 L 8.78125 -24.140625 L 0.828125 -24.140625 L 0.828125 -29.3125 L 22.953125 -29.3125 L 22.953125 -24.140625 L 15 -24.140625 Z M 15 0 "/></g></g></g><g fill="#ffffff" fill-opacity="1"><g transform="translate(495.821754, 530.291589)"><g><path d="M 3.6875 0 L 3.6875 -29.3125 L 9.90625 -29.3125 L 9.90625 0 Z M 3.6875 0 "/></g></g></g><g fill="#ffffff" fill-opacity="1"><g transform="translate(509.415687, 530.291589)"><g><path d="M 29.6875 0 L 21.796875 0 L 9.046875 -22.171875 L 8.859375 -22.171875 C 9.117188 -18.253906 9.25 -15.460938 9.25 -13.796875 L 9.25 0 L 3.6875 0 L 3.6875 -29.3125 L 11.53125 -29.3125 L 24.265625 -7.359375 L 24.40625 -7.359375 C 24.195312 -11.171875 24.09375 -13.863281 24.09375 -15.4375 L 24.09375 -29.3125 L 29.6875 -29.3125 Z M 29.6875 0 "/></g></g></g><g fill="#ffffff" fill-opacity="1"><g transform="translate(542.799016, 530.291589)"><g><path d="M 20.578125 0 L 3.6875 0 L 3.6875 -29.3125 L 20.578125 -29.3125 L 20.578125 -24.21875 L 9.90625 -24.21875 L 9.90625 -17.78125 L 19.828125 -17.78125 L 19.828125 -12.6875 L 9.90625 -12.6875 L 9.90625 -5.140625 L 20.578125 -5.140625 Z M 20.578125 0 "/></g></g></g></svg>