<svg xmlns="http://www.w3.org/2000/svg" xmlns:xlink="http://www.w3.org/1999/xlink" width="300" zoomAndPan="magnify" viewBox="0 0 224.87999 149.999998" height="200" preserveAspectRatio="xMidYMid meet" version="1.0"><defs><clipPath id="6433f9a320"><path d="M 47 0.0390625 L 75 0.0390625 L 75 50 L 47 50 Z M 47 0.0390625 " clip-rule="nonzero"/></clipPath><clipPath id="38f4e1795c"><path d="M 50 54 L 172 54 L 172 149.960938 L 50 149.960938 Z M 50 54 " clip-rule="nonzero"/></clipPath><clipPath id="355141a9ba"><path d="M 128 0.0390625 L 164 0.0390625 L 164 43 L 128 43 Z M 128 0.0390625 " clip-rule="nonzero"/></clipPath></defs><path fill="#ffffff" d="M 114.074219 41.023438 C 117.925781 41.023438 121.082031 37.871094 121.082031 34.015625 C 121.082031 30.164062 117.925781 27.011719 114.074219 27.011719 C 110.222656 27.011719 107.070312 30.164062 107.070312 34.015625 C 107.1875 37.871094 110.339844 41.023438 114.074219 41.023438 Z M 114.074219 31.683594 C 115.359375 31.683594 116.410156 32.734375 116.410156 34.015625 C 116.410156 35.300781 115.359375 36.351562 114.074219 36.351562 C 112.789062 36.351562 111.738281 35.300781 111.738281 34.015625 C 111.738281 32.734375 112.90625 31.683594 114.074219 31.683594 Z M 114.074219 31.683594 " fill-opacity="1" fill-rule="nonzero"/><path fill="#ffffff" d="M 101.929688 14.167969 C 98.078125 14.167969 94.925781 17.320312 94.925781 21.171875 C 94.925781 25.027344 98.078125 28.179688 101.929688 28.179688 C 105.785156 28.179688 108.9375 25.027344 108.9375 21.171875 C 108.9375 17.320312 105.667969 14.167969 101.929688 14.167969 Z M 101.929688 23.507812 C 100.648438 23.507812 99.597656 22.457031 99.597656 21.171875 C 99.597656 19.890625 100.648438 18.839844 101.929688 18.839844 C 103.214844 18.839844 104.265625 19.890625 104.265625 21.171875 C 104.265625 22.457031 103.097656 23.507812 101.929688 23.507812 Z M 101.929688 23.507812 " fill-opacity="1" fill-rule="nonzero"/><path fill="#ffffff" d="M 91.074219 21.171875 C 91.074219 17.320312 87.921875 14.167969 84.066406 14.167969 C 80.214844 14.167969 77.0625 17.320312 77.0625 21.171875 C 77.0625 25.027344 80.214844 28.179688 84.066406 28.179688 C 87.921875 28.179688 91.074219 25.027344 91.074219 21.171875 Z M 81.847656 21.171875 C 81.847656 19.890625 82.898438 18.839844 84.183594 18.839844 C 85.46875 18.839844 86.519531 19.890625 86.519531 21.171875 C 86.519531 22.457031 85.46875 23.507812 84.183594 23.507812 C 82.898438 23.507812 81.847656 22.457031 81.847656 21.171875 Z M 81.847656 21.171875 " fill-opacity="1" fill-rule="nonzero"/><g clip-path="url(#6433f9a320)"><path fill="#ffffff" d="M 47.171875 23.507812 C 47.171875 23.625 47.171875 23.625 47.171875 23.507812 C 47.289062 23.742188 47.289062 23.742188 47.289062 23.859375 L 55.578125 49.664062 C 56.160156 49.429688 56.863281 49.3125 57.5625 49.3125 L 60.363281 49.3125 L 52.308594 24.09375 L 54.292969 23.390625 L 62.582031 49.429688 L 67.488281 49.429688 L 58.730469 21.992188 L 60.714844 21.289062 L 69.707031 49.429688 L 74.609375 49.429688 L 64.566406 18.019531 C 64.566406 17.90625 64.453125 17.90625 64.453125 17.789062 C 64.453125 17.671875 64.453125 17.671875 64.453125 17.554688 C 64.335938 17.203125 64.101562 16.96875 63.984375 16.738281 C 63.984375 16.738281 63.867188 16.621094 63.867188 16.621094 L 51.957031 1.324219 C 51.375 0.507812 50.324219 0.273438 49.390625 0.507812 C 48.457031 0.855469 47.753906 1.675781 47.753906 2.609375 L 47.054688 22.222656 C 47.054688 22.339844 47.054688 22.339844 47.054688 22.457031 C 47.054688 22.808594 47.054688 23.160156 47.171875 23.507812 Z M 58.378906 17.203125 L 51.839844 19.539062 L 52.074219 12.066406 L 53.828125 11.484375 Z M 58.378906 17.203125 " fill-opacity="1" fill-rule="nonzero"/></g><g clip-path="url(#38f4e1795c)"><path fill="#ffffff" d="M 166.382812 105.125 L 166.851562 104.890625 C 166.96875 104.890625 167.199219 104.773438 167.316406 104.773438 C 168.367188 104.421875 170.121094 103.839844 171.171875 102.207031 C 171.988281 100.804688 172.222656 99.050781 171.519531 97.535156 C 170.585938 95.199219 169.070312 93.332031 167.433594 91.230469 C 166.148438 89.59375 164.867188 87.960938 163.699219 85.976562 C 163.464844 85.507812 163.113281 85.042969 162.878906 84.574219 C 161.011719 81.421875 159.144531 78.152344 159.726562 75.582031 C 160.894531 68.929688 160.3125 62.15625 157.976562 55.734375 C 157.625 54.800781 156.808594 54.214844 155.757812 54.214844 L 56.511719 54.214844 C 55.578125 54.214844 54.761719 54.800781 54.292969 55.617188 C 52.191406 60.753906 50.789062 66.125 50.441406 70.679688 C 49.738281 80.253906 52.074219 89.59375 57.097656 97.066406 C 57.914062 98.351562 58.730469 99.636719 59.429688 100.804688 C 60.363281 102.4375 61.414062 104.074219 62.699219 105.824219 C 68.1875 113.53125 79.628906 132.679688 67.835938 146.105469 C 67.253906 146.808594 67.136719 147.742188 67.488281 148.558594 C 67.835938 149.375 68.65625 149.960938 69.589844 149.960938 L 124.347656 149.960938 C 125.285156 149.960938 126.21875 149.375 126.566406 148.441406 C 126.917969 147.507812 126.683594 146.574219 125.984375 145.875 C 122.832031 142.835938 121.195312 140.386719 121.3125 135.363281 C 130.1875 140.503906 139.644531 143.539062 148.753906 144.355469 C 151.554688 144.589844 154.125 143.886719 156.226562 142.371094 C 157.976562 141.085938 159.261719 139.335938 159.84375 137.351562 C 160.777344 134.199219 160.3125 130.695312 159.960938 127.890625 C 159.84375 126.957031 159.726562 125.675781 159.726562 124.855469 C 159.726562 124.855469 159.84375 124.855469 159.84375 124.855469 C 161.011719 124.625 163.929688 124.039062 163.929688 121.238281 C 163.929688 120.304688 163.582031 119.484375 163.113281 118.902344 C 163.816406 118.785156 164.398438 118.550781 164.867188 118.203125 C 167.902344 115.867188 166.265625 112.011719 165.097656 109.5625 C 164.632812 108.511719 163.816406 106.757812 164.046875 106.175781 C 164.632812 105.707031 165.566406 105.472656 166.382812 105.125 Z M 161.011719 102.789062 C 158.328125 105.359375 159.84375 108.859375 161.011719 111.429688 C 161.363281 112.363281 162.0625 113.765625 162.0625 114.347656 C 161.710938 114.347656 161.128906 114.347656 160.777344 114.464844 C 159.261719 114.464844 157.042969 114.582031 156.574219 116.683594 C 156.226562 118.316406 157.394531 119.484375 158.328125 120.535156 C 157.277344 120.769531 156.109375 121.238281 155.523438 122.519531 C 154.824219 124.15625 155.175781 126.140625 155.40625 128.59375 C 155.757812 131.042969 156.109375 133.964844 155.40625 136.183594 C 155.175781 137.117188 154.472656 138.050781 153.539062 138.75 C 152.488281 139.566406 150.972656 139.917969 149.335938 139.800781 C 140.34375 138.984375 131.003906 135.832031 122.246094 130.460938 L 121.898438 130.226562 C 121.546875 129.992188 121.082031 129.761719 120.730469 129.527344 C 120.730469 129.527344 120.613281 129.527344 120.613281 129.410156 C 115.007812 125.789062 114.890625 123.570312 114.890625 123.105469 C 115.007812 121.820312 114.074219 120.652344 112.789062 120.535156 C 111.507812 120.417969 110.339844 121.355469 110.222656 122.636719 C 109.988281 125.90625 112.207031 129.292969 116.875 132.445312 C 116.410156 138.285156 117.34375 141.902344 119.445312 145.054688 L 74.375 145.054688 C 83.484375 129.761719 72.273438 110.84375 66.671875 102.90625 C 65.503906 101.269531 64.566406 99.753906 63.632812 98.234375 C 62.933594 96.949219 62.117188 95.667969 61.183594 94.382812 C 56.746094 87.726562 54.644531 79.4375 55.34375 70.914062 C 55.578125 67.292969 56.628906 62.972656 58.261719 58.769531 L 154.238281 58.769531 C 155.875 63.90625 156.226562 69.394531 155.289062 74.648438 C 154.472656 78.96875 156.925781 83.171875 159.027344 86.792969 C 159.261719 87.261719 159.609375 87.726562 159.84375 88.195312 C 161.128906 90.414062 162.648438 92.398438 163.929688 94.03125 C 165.449219 95.898438 166.617188 97.535156 167.316406 99.167969 C 167.433594 99.402344 167.433594 99.519531 167.316406 99.519531 C 167.199219 99.753906 166.5 99.988281 166.03125 100.21875 C 165.800781 100.335938 165.566406 100.335938 165.332031 100.453125 L 164.867188 100.570312 C 163.582031 101.152344 162.179688 101.621094 161.011719 102.789062 Z M 161.011719 102.789062 " fill-opacity="1" fill-rule="nonzero"/></g><g clip-path="url(#355141a9ba)"><path fill="#ffffff" d="M 147.585938 0.390625 C 142.679688 0.0390625 137.894531 1.792969 134.273438 5.0625 C 130.769531 8.328125 128.785156 12.765625 128.785156 17.554688 C 128.785156 22.925781 131.238281 27.945312 135.675781 31.214844 C 136.960938 32.148438 137.777344 33.667969 137.777344 35.066406 L 137.777344 37.988281 C 137.777344 40.089844 139.292969 42.308594 141.628906 42.308594 L 150.972656 42.308594 C 153.304688 42.308594 154.941406 40.089844 154.941406 37.988281 L 154.941406 34.835938 C 154.941406 33.433594 155.640625 32.03125 156.925781 31.097656 C 161.597656 27.59375 164.164062 21.992188 163.699219 16.269531 C 163.230469 7.863281 156.226562 0.972656 147.585938 0.390625 Z M 154.125 27.59375 C 151.671875 29.464844 150.269531 32.148438 150.269531 35.066406 L 150.269531 37.753906 L 142.332031 37.753906 L 142.332031 35.183594 C 142.332031 32.265625 140.8125 29.347656 138.476562 27.59375 C 135.324219 25.144531 133.457031 21.523438 133.457031 17.671875 C 133.457031 14.167969 134.859375 11.015625 137.425781 8.5625 C 140.113281 6.113281 143.5 4.828125 147.234375 5.0625 C 153.65625 5.527344 158.675781 10.546875 159.144531 16.738281 C 159.378906 20.941406 157.507812 25.027344 154.125 27.59375 Z M 154.125 27.59375 " fill-opacity="1" fill-rule="nonzero"/></g><path fill="#ffffff" d="M 151.90625 18.605469 C 151.90625 18.371094 151.90625 18.253906 151.90625 18.136719 C 151.90625 18.019531 151.90625 18.019531 151.789062 17.90625 C 151.789062 17.789062 151.789062 17.789062 151.671875 17.671875 C 151.671875 17.554688 151.554688 17.554688 151.554688 17.4375 C 151.554688 17.320312 151.4375 17.320312 151.4375 17.203125 C 151.4375 17.203125 151.320312 17.085938 151.320312 17.085938 C 151.320312 16.96875 151.203125 16.96875 151.203125 16.851562 C 151.203125 16.851562 151.085938 16.738281 151.085938 16.738281 C 150.972656 16.851562 150.972656 16.738281 150.855469 16.738281 C 150.738281 16.738281 150.738281 16.621094 150.621094 16.621094 C 150.621094 16.621094 150.503906 16.621094 150.503906 16.503906 C 150.386719 16.386719 150.269531 16.386719 150.035156 16.386719 C 149.921875 16.386719 149.6875 16.386719 149.570312 16.386719 L 147 16.386719 L 148.636719 12.417969 C 149.101562 11.25 148.636719 9.847656 147.46875 9.378906 C 146.300781 8.914062 144.898438 9.378906 144.433594 10.546875 L 141.398438 17.671875 C 141.28125 17.789062 141.28125 18.019531 141.28125 18.136719 C 141.28125 18.253906 141.28125 18.488281 141.28125 18.605469 C 141.28125 18.605469 141.28125 18.722656 141.28125 18.722656 C 141.28125 18.839844 141.28125 18.957031 141.28125 19.070312 C 141.28125 19.1875 141.28125 19.1875 141.398438 19.304688 C 141.398438 19.421875 141.398438 19.421875 141.511719 19.539062 C 141.511719 19.65625 141.628906 19.65625 141.628906 19.773438 C 141.628906 19.890625 141.746094 19.890625 141.746094 20.007812 C 141.746094 20.121094 141.863281 20.121094 141.863281 20.121094 C 141.863281 20.238281 141.980469 20.238281 141.980469 20.355469 C 141.980469 20.355469 142.097656 20.472656 142.214844 20.472656 C 142.214844 20.472656 142.332031 20.589844 142.332031 20.589844 C 142.449219 20.707031 142.5625 20.707031 142.679688 20.824219 C 142.796875 20.941406 143.03125 20.941406 143.148438 20.941406 C 143.265625 20.941406 143.5 20.941406 143.613281 20.941406 L 146.183594 20.941406 L 144.316406 24.910156 C 143.847656 26.078125 144.316406 27.480469 145.601562 27.945312 C 145.949219 28.0625 146.183594 28.179688 146.535156 28.179688 C 147.46875 28.179688 148.285156 27.59375 148.636719 26.777344 L 151.671875 19.65625 C 151.789062 19.539062 151.789062 19.304688 151.789062 19.1875 C 151.90625 18.957031 151.90625 18.839844 151.90625 18.605469 Z M 151.90625 18.605469 " fill-opacity="1" fill-rule="nonzero"/><path fill="#ffffff" d="M 142.796875 44.757812 C 141.511719 44.757812 140.460938 45.808594 140.460938 47.09375 C 140.460938 48.378906 141.511719 49.429688 142.796875 49.429688 L 149.804688 49.429688 C 151.085938 49.429688 152.136719 48.378906 152.136719 47.09375 C 152.136719 45.808594 151.085938 44.757812 149.804688 44.757812 Z M 142.796875 44.757812 " fill-opacity="1" fill-rule="nonzero"/><path fill="#ffffff" d="M 168.484375 11.484375 C 169.070312 11.484375 169.769531 11.25 170.234375 10.78125 L 173.503906 7.277344 C 174.324219 6.34375 174.324219 4.828125 173.390625 4.011719 C 172.453125 3.191406 170.9375 3.191406 170.121094 4.125 L 166.851562 7.628906 C 166.03125 8.5625 166.03125 10.082031 166.96875 10.898438 C 167.316406 11.25 167.902344 11.484375 168.484375 11.484375 Z M 168.484375 11.484375 " fill-opacity="1" fill-rule="nonzero"/><path fill="#ffffff" d="M 173.390625 28.53125 L 170.121094 25.027344 C 169.300781 24.09375 167.785156 23.976562 166.851562 24.910156 C 165.917969 25.726562 165.800781 27.246094 166.734375 28.179688 L 170.003906 31.683594 C 170.46875 32.148438 171.054688 32.382812 171.753906 32.382812 C 172.339844 32.382812 172.921875 32.148438 173.390625 31.796875 C 174.207031 30.980469 174.324219 29.582031 173.390625 28.53125 Z M 173.390625 28.53125 " fill-opacity="1" fill-rule="nonzero"/><path fill="#ffffff" d="M 177.824219 17.90625 C 177.824219 16.621094 176.773438 15.570312 175.492188 15.570312 L 171.171875 15.570312 C 169.886719 15.570312 168.835938 16.621094 168.835938 17.90625 C 168.835938 19.1875 169.886719 20.238281 171.171875 20.238281 L 175.492188 20.238281 C 176.773438 20.238281 177.824219 19.1875 177.824219 17.90625 Z M 177.824219 17.90625 " fill-opacity="1" fill-rule="nonzero"/><path fill="#ffffff" d="M 79.746094 49.429688 C 79.628906 49.429688 79.628906 49.3125 79.511719 49.3125 L 79.511719 49.429688 Z M 79.746094 49.429688 " fill-opacity="1" fill-rule="nonzero"/><path fill="#ffffff" d="M 133.457031 49.429688 C 133.691406 44.292969 133.105469 39.15625 131.707031 34.132812 C 127.035156 30.046875 124.234375 24.324219 124.117188 18.136719 C 118.394531 10.316406 110.570312 5.292969 101.582031 3.660156 C 94.808594 2.492188 77.878906 0.855469 67.835938 11.949219 C 67.488281 12.300781 67.253906 12.648438 67.019531 13 L 67.835938 14.167969 C 68.304688 14.867188 68.773438 15.570312 69.003906 16.386719 L 69.472656 17.671875 C 70.054688 16.851562 70.640625 15.917969 71.339844 15.21875 C 79.746094 5.644531 94.691406 7.164062 100.765625 8.214844 C 109.519531 9.730469 117.226562 15.335938 122.363281 23.742188 C 126.917969 31.332031 129.136719 40.554688 128.785156 49.429688 Z M 133.457031 49.429688 " fill-opacity="1" fill-rule="nonzero"/><path fill="#ffffff" d="M 117.578125 48.730469 C 118.160156 48.730469 118.746094 48.960938 119.210938 49.429688 L 124.347656 49.429688 C 123.648438 46.394531 120.847656 44.058594 117.578125 44.058594 C 114.308594 44.058594 111.507812 46.394531 110.804688 49.429688 L 115.941406 49.429688 C 116.410156 48.960938 116.992188 48.730469 117.578125 48.730469 Z M 117.578125 48.730469 " fill-opacity="1" fill-rule="nonzero"/></svg>