<svg xmlns="http://www.w3.org/2000/svg" xmlns:xlink="http://www.w3.org/1999/xlink" width="800" zoomAndPan="magnify" viewBox="0 0 600 599.999999" height="800" preserveAspectRatio="xMidYMid meet" version="1.0"><defs><g/><clipPath id="e1ddc4fb35"><path d="M 145.09375 75.179688 L 448.84375 75.179688 L 448.84375 378.929688 L 145.09375 378.929688 Z M 145.09375 75.179688 " clip-rule="nonzero"/></clipPath></defs><g clip-path="url(#e1ddc4fb35)"><path fill="#ffffff" d="M 356.730469 86.746094 C 375.105469 94.328125 391.296875 105.25 404.917969 118.871094 C 418.539062 132.492188 429.460938 148.683594 437.042969 167.058594 C 444.496094 185.304688 448.609375 205.480469 448.609375 226.9375 C 448.609375 248.398438 444.496094 268.574219 437.042969 286.820312 C 429.460938 305.195312 418.539062 321.386719 404.917969 335.007812 C 391.296875 348.628906 375.105469 359.550781 356.730469 367.132812 C 338.484375 374.585938 318.308594 378.695312 296.851562 378.695312 C 275.390625 378.695312 255.21875 374.585938 236.96875 367.132812 C 218.59375 359.550781 202.402344 348.628906 188.78125 335.007812 C 175.160156 321.386719 164.238281 305.195312 156.65625 286.820312 C 149.203125 268.574219 145.09375 248.398438 145.09375 226.9375 C 145.09375 205.480469 149.203125 185.304688 156.65625 167.058594 C 164.238281 148.683594 175.160156 132.492188 188.78125 118.871094 C 202.402344 105.25 218.59375 94.328125 236.96875 86.746094 C 255.21875 79.292969 275.390625 75.179688 296.851562 75.179688 C 318.308594 75.179688 338.484375 79.292969 356.730469 86.746094 Z M 353.132812 358.007812 C 370.09375 351.070312 385.386719 340.789062 398.109375 328.195312 C 410.699219 315.476562 420.980469 300.183594 427.921875 283.222656 C 434.988281 266.003906 438.84375 247.113281 438.84375 226.9375 C 438.84375 206.765625 434.988281 187.875 427.921875 170.65625 C 420.980469 153.695312 410.699219 138.402344 398.109375 125.683594 C 385.386719 113.089844 370.09375 102.808594 353.132812 95.871094 C 335.914062 88.800781 317.023438 84.949219 296.851562 84.949219 C 276.675781 84.949219 257.785156 88.800781 240.566406 95.871094 C 223.605469 102.808594 208.316406 113.089844 195.59375 125.683594 C 183 138.402344 172.71875 153.695312 165.78125 170.65625 C 158.714844 187.875 154.859375 206.765625 154.859375 226.9375 C 154.859375 247.113281 158.714844 266.003906 165.78125 283.222656 C 172.71875 300.183594 183 315.476562 195.59375 328.195312 C 208.316406 340.789062 223.605469 351.070312 240.566406 358.007812 C 257.785156 365.078125 276.675781 368.929688 296.851562 368.929688 C 317.023438 368.929688 335.914062 365.078125 353.132812 358.007812 Z M 353.132812 358.007812 " fill-opacity="1" fill-rule="evenodd"/></g><path fill="#ffffff" d="M 271.40625 165.515625 C 271.152344 165.515625 270.894531 165.644531 270.636719 165.773438 C 269.996094 166.03125 269.480469 166.417969 268.964844 166.800781 C 268.582031 167.316406 268.195312 167.828125 267.9375 168.472656 C 267.808594 168.730469 267.679688 168.984375 267.679688 169.242188 C 267.554688 169.5 267.554688 169.628906 267.554688 169.886719 L 267.554688 174.898438 L 325.378906 174.898438 L 325.378906 169.886719 C 325.378906 169.628906 325.378906 169.5 325.25 169.242188 C 325.25 168.984375 325.121094 168.730469 324.992188 168.472656 C 324.734375 167.957031 324.347656 167.316406 323.835938 166.929688 C 323.320312 166.417969 322.808594 166.03125 322.164062 165.773438 C 321.90625 165.644531 321.652344 165.515625 321.394531 165.515625 C 321.136719 165.386719 321.007812 165.386719 320.75 165.386719 L 272.050781 165.386719 C 271.792969 165.386719 271.664062 165.386719 271.40625 165.515625 Z M 257.785156 169.886719 C 257.785156 168.859375 257.914062 167.957031 258.171875 167.058594 C 258.300781 166.160156 258.6875 165.257812 259.070312 164.359375 C 259.714844 162.691406 260.871094 161.277344 262.15625 159.992188 C 263.441406 158.707031 264.855469 157.550781 266.523438 156.90625 C 267.425781 156.523438 268.324219 156.136719 269.222656 156.007812 C 270.121094 155.75 271.023438 155.621094 272.050781 155.621094 L 320.75 155.621094 C 321.78125 155.621094 322.679688 155.75 323.578125 156.007812 C 324.476562 156.136719 325.378906 156.523438 326.277344 156.90625 C 327.949219 157.550781 329.359375 158.707031 330.644531 159.992188 C 332.058594 161.148438 333.085938 162.691406 333.859375 164.359375 C 334.242188 165.132812 334.628906 166.03125 334.757812 166.929688 C 335.015625 167.957031 335.144531 168.859375 335.144531 169.886719 L 335.144531 174.898438 L 370.609375 174.898438 C 378.0625 174.898438 385.644531 182.351562 385.644531 189.804688 L 385.644531 203.296875 L 307.644531 228.867188 C 307.128906 228.609375 306.617188 228.480469 306.230469 228.351562 C 305.71875 228.222656 305.074219 228.222656 304.5625 228.222656 L 288.371094 228.222656 C 287.855469 228.222656 287.214844 228.222656 286.699219 228.351562 C 286.3125 228.480469 285.800781 228.609375 285.414062 228.738281 L 207.414062 203.296875 L 207.414062 189.804688 C 207.414062 182.351562 214.867188 174.898438 222.320312 174.898438 L 257.785156 174.898438 Z M 288.242188 234.777344 L 304.6875 234.777344 C 304.816406 234.777344 304.945312 234.777344 305.074219 234.777344 C 305.203125 234.90625 305.460938 235.035156 305.589844 235.292969 C 305.84375 235.421875 305.972656 235.675781 306.101562 235.804688 C 306.101562 235.933594 306.101562 235.933594 306.101562 236.0625 L 306.230469 236.191406 L 306.230469 241.71875 L 306.101562 241.84375 C 306.101562 241.972656 306.101562 242.101562 306.101562 242.101562 C 305.972656 242.359375 305.84375 242.617188 305.589844 242.746094 C 305.460938 243 305.203125 243.128906 304.945312 243.257812 C 304.945312 243.257812 304.816406 243.257812 304.6875 243.257812 L 304.5625 243.386719 L 288.371094 243.386719 L 288.242188 243.257812 C 288.113281 243.257812 287.984375 243.257812 287.984375 243.257812 C 287.726562 243.128906 287.46875 243 287.339844 242.746094 C 287.085938 242.617188 286.957031 242.359375 286.828125 242.101562 C 286.828125 242.101562 286.828125 241.972656 286.828125 241.84375 L 286.828125 236.0625 C 286.828125 235.933594 286.828125 235.933594 286.828125 235.804688 C 286.957031 235.675781 287.085938 235.421875 287.339844 235.292969 C 287.46875 235.035156 287.726562 234.90625 287.855469 234.777344 C 287.984375 234.777344 288.113281 234.777344 288.242188 234.777344 Z M 312.527344 234.519531 C 312.527344 234.390625 312.398438 234.265625 312.398438 234.136719 L 385.644531 210.105469 L 385.644531 277.695312 C 385.644531 285.148438 378.0625 292.730469 370.609375 292.730469 L 222.320312 292.730469 C 214.867188 292.730469 207.414062 285.148438 207.414062 277.695312 L 207.414062 210.105469 L 280.53125 234.136719 C 280.53125 234.265625 280.402344 234.390625 280.402344 234.519531 C 280.273438 235.035156 280.273438 235.675781 280.273438 236.191406 L 280.273438 241.71875 C 280.273438 242.230469 280.273438 242.875 280.402344 243.386719 C 280.53125 243.902344 280.660156 244.414062 280.917969 244.929688 C 281.300781 245.828125 281.945312 246.601562 282.714844 247.371094 C 283.488281 248.140625 284.257812 248.785156 285.15625 249.167969 C 285.671875 249.425781 286.183594 249.554688 286.699219 249.683594 C 287.214844 249.8125 287.855469 249.941406 288.371094 249.941406 L 304.5625 249.941406 C 305.074219 249.941406 305.71875 249.8125 306.230469 249.683594 C 306.746094 249.554688 307.257812 249.425781 307.773438 249.167969 C 308.671875 248.785156 309.445312 248.140625 310.214844 247.371094 C 310.984375 246.601562 311.628906 245.828125 312.011719 244.929688 C 312.269531 244.414062 312.398438 243.902344 312.527344 243.386719 C 312.65625 242.875 312.785156 242.230469 312.785156 241.71875 L 312.785156 236.191406 C 312.785156 235.675781 312.65625 235.035156 312.527344 234.519531 Z M 312.527344 234.519531 " fill-opacity="1" fill-rule="evenodd"/><g fill="#ffffff" fill-opacity="1"><g transform="translate(118.576167, 530.291589)"><g><path d="M 9.90625 -16.296875 L 11.90625 -16.296875 C 13.875 -16.296875 15.328125 -16.625 16.265625 -17.28125 C 17.203125 -17.9375 17.671875 -18.96875 17.671875 -20.375 C 17.671875 -21.757812 17.191406 -22.742188 16.234375 -23.328125 C 15.273438 -23.921875 13.796875 -24.21875 11.796875 -24.21875 L 9.90625 -24.21875 Z M 9.90625 -11.25 L 9.90625 0 L 3.6875 0 L 3.6875 -29.3125 L 12.234375 -29.3125 C 16.210938 -29.3125 19.15625 -28.585938 21.0625 -27.140625 C 22.976562 -25.691406 23.9375 -23.488281 23.9375 -20.53125 C 23.9375 -18.800781 23.460938 -17.265625 22.515625 -15.921875 C 21.566406 -14.585938 20.222656 -13.535156 18.484375 -12.765625 C 22.898438 -6.179688 25.773438 -1.925781 27.109375 0 L 20.203125 0 L 13.21875 -11.25 Z M 9.90625 -11.25 "/></g></g></g><g fill="#ffffff" fill-opacity="1"><g transform="translate(145.683833, 530.291589)"><g><path d="M 21.640625 0 L 19.515625 -6.984375 L 8.828125 -6.984375 L 6.703125 0 L 0 0 L 10.34375 -29.4375 L 17.9375 -29.4375 L 28.328125 0 Z M 18.03125 -12.1875 C 16.0625 -18.507812 14.953125 -22.082031 14.703125 -22.90625 C 14.453125 -23.738281 14.273438 -24.394531 14.171875 -24.875 C 13.734375 -23.164062 12.472656 -18.9375 10.390625 -12.1875 Z M 18.03125 -12.1875 "/></g></g></g><g fill="#ffffff" fill-opacity="1"><g transform="translate(174.01455, 530.291589)"><g><path d="M 28.015625 -14.9375 C 28.015625 -10.113281 26.640625 -6.414062 23.890625 -3.84375 C 21.140625 -1.28125 17.171875 0 11.984375 0 L 3.6875 0 L 3.6875 -29.3125 L 12.890625 -29.3125 C 17.671875 -29.3125 21.382812 -28.046875 24.03125 -25.515625 C 26.6875 -22.992188 28.015625 -19.46875 28.015625 -14.9375 Z M 21.546875 -14.78125 C 21.546875 -21.070312 18.769531 -24.21875 13.21875 -24.21875 L 9.90625 -24.21875 L 9.90625 -5.140625 L 12.578125 -5.140625 C 18.554688 -5.140625 21.546875 -8.351562 21.546875 -14.78125 Z M 21.546875 -14.78125 "/></g></g></g><g fill="#ffffff" fill-opacity="1"><g transform="translate(204.410423, 530.291589)"><g><path d="M 29.6875 0 L 21.796875 0 L 9.046875 -22.171875 L 8.859375 -22.171875 C 9.117188 -18.253906 9.25 -15.460938 9.25 -13.796875 L 9.25 0 L 3.6875 0 L 3.6875 -29.3125 L 11.53125 -29.3125 L 24.265625 -7.359375 L 24.40625 -7.359375 C 24.195312 -11.171875 24.09375 -13.863281 24.09375 -15.4375 L 24.09375 -29.3125 L 29.6875 -29.3125 Z M 29.6875 0 "/></g></g></g><g fill="#ffffff" fill-opacity="1"><g transform="translate(237.793753, 530.291589)"><g><path d="M 30.296875 -14.703125 C 30.296875 -9.847656 29.09375 -6.113281 26.6875 -3.5 C 24.28125 -0.894531 20.832031 0.40625 16.34375 0.40625 C 11.851562 0.40625 8.40625 -0.894531 6 -3.5 C 3.59375 -6.113281 2.390625 -9.859375 2.390625 -14.734375 C 2.390625 -19.617188 3.59375 -23.347656 6 -25.921875 C 8.414062 -28.492188 11.875 -29.78125 16.375 -29.78125 C 20.882812 -29.78125 24.332031 -28.484375 26.71875 -25.890625 C 29.101562 -23.296875 30.296875 -19.566406 30.296875 -14.703125 Z M 8.90625 -14.703125 C 8.90625 -11.421875 9.523438 -8.953125 10.765625 -7.296875 C 12.003906 -5.640625 13.863281 -4.8125 16.34375 -4.8125 C 21.300781 -4.8125 23.78125 -8.109375 23.78125 -14.703125 C 23.78125 -21.296875 21.3125 -24.59375 16.375 -24.59375 C 13.90625 -24.59375 12.039062 -23.757812 10.78125 -22.09375 C 9.53125 -20.4375 8.90625 -17.972656 8.90625 -14.703125 Z M 8.90625 -14.703125 "/></g></g></g><g fill="#ffffff" fill-opacity="1"><g transform="translate(270.475331, 530.291589)"><g/></g></g><g fill="#ffffff" fill-opacity="1"><g transform="translate(281.141956, 530.291589)"><g><path d="M 3.6875 0 L 3.6875 -29.3125 L 9.90625 -29.3125 L 9.90625 0 Z M 3.6875 0 "/></g></g></g><g fill="#ffffff" fill-opacity="1"><g transform="translate(294.735888, 530.291589)"><g><path d="M 21 -8.140625 C 21 -5.492188 20.046875 -3.40625 18.140625 -1.875 C 16.234375 -0.351562 13.582031 0.40625 10.1875 0.40625 C 7.0625 0.40625 4.296875 -0.179688 1.890625 -1.359375 L 1.890625 -7.140625 C 3.867188 -6.253906 5.539062 -5.628906 6.90625 -5.265625 C 8.28125 -4.910156 9.535156 -4.734375 10.671875 -4.734375 C 12.035156 -4.734375 13.078125 -4.992188 13.796875 -5.515625 C 14.523438 -6.035156 14.890625 -6.8125 14.890625 -7.84375 C 14.890625 -8.414062 14.726562 -8.925781 14.40625 -9.375 C 14.09375 -9.820312 13.625 -10.25 13 -10.65625 C 12.375 -11.070312 11.109375 -11.738281 9.203125 -12.65625 C 7.410156 -13.5 6.066406 -14.304688 5.171875 -15.078125 C 4.273438 -15.847656 3.554688 -16.75 3.015625 -17.78125 C 2.484375 -18.8125 2.21875 -20.015625 2.21875 -21.390625 C 2.21875 -23.984375 3.097656 -26.019531 4.859375 -27.5 C 6.617188 -28.988281 9.050781 -29.734375 12.15625 -29.734375 C 13.675781 -29.734375 15.128906 -29.550781 16.515625 -29.1875 C 17.898438 -28.832031 19.347656 -28.328125 20.859375 -27.671875 L 18.84375 -22.84375 C 17.28125 -23.476562 15.988281 -23.921875 14.96875 -24.171875 C 13.945312 -24.429688 12.941406 -24.5625 11.953125 -24.5625 C 10.773438 -24.5625 9.867188 -24.285156 9.234375 -23.734375 C 8.609375 -23.191406 8.296875 -22.476562 8.296875 -21.59375 C 8.296875 -21.039062 8.421875 -20.5625 8.671875 -20.15625 C 8.929688 -19.75 9.335938 -19.351562 9.890625 -18.96875 C 10.453125 -18.59375 11.765625 -17.910156 13.828125 -16.921875 C 16.566406 -15.609375 18.445312 -14.289062 19.46875 -12.96875 C 20.488281 -11.65625 21 -10.046875 21 -8.140625 Z M 21 -8.140625 "/></g></g></g><g fill="#ffffff" fill-opacity="1"><g transform="translate(317.352342, 530.291589)"><g><path d="M 27.265625 0 L 20.203125 0 L 12.53125 -12.34375 L 9.90625 -10.46875 L 9.90625 0 L 3.6875 0 L 3.6875 -29.3125 L 9.90625 -29.3125 L 9.90625 -15.90625 L 12.34375 -19.34375 L 20.296875 -29.3125 L 27.1875 -29.3125 L 16.96875 -16.34375 Z M 27.265625 0 "/></g></g></g><g fill="#ffffff" fill-opacity="1"><g transform="translate(344.620408, 530.291589)"><g><path d="M 27.546875 -29.3125 L 27.546875 -10.34375 C 27.546875 -8.175781 27.0625 -6.273438 26.09375 -4.640625 C 25.125 -3.015625 23.722656 -1.765625 21.890625 -0.890625 C 20.054688 -0.0234375 17.894531 0.40625 15.40625 0.40625 C 11.632812 0.40625 8.703125 -0.554688 6.609375 -2.484375 C 4.523438 -4.421875 3.484375 -7.066406 3.484375 -10.421875 L 3.484375 -29.3125 L 9.6875 -29.3125 L 9.6875 -11.375 C 9.6875 -9.113281 10.140625 -7.453125 11.046875 -6.390625 C 11.953125 -5.335938 13.457031 -4.8125 15.5625 -4.8125 C 17.59375 -4.8125 19.066406 -5.34375 19.984375 -6.40625 C 20.898438 -7.46875 21.359375 -9.132812 21.359375 -11.40625 L 21.359375 -29.3125 Z M 27.546875 -29.3125 "/></g></g></g><g fill="#ffffff" fill-opacity="1"><g transform="translate(375.657882, 530.291589)"><g><path d="M 21 -8.140625 C 21 -5.492188 20.046875 -3.40625 18.140625 -1.875 C 16.234375 -0.351562 13.582031 0.40625 10.1875 0.40625 C 7.0625 0.40625 4.296875 -0.179688 1.890625 -1.359375 L 1.890625 -7.140625 C 3.867188 -6.253906 5.539062 -5.628906 6.90625 -5.265625 C 8.28125 -4.910156 9.535156 -4.734375 10.671875 -4.734375 C 12.035156 -4.734375 13.078125 -4.992188 13.796875 -5.515625 C 14.523438 -6.035156 14.890625 -6.8125 14.890625 -7.84375 C 14.890625 -8.414062 14.726562 -8.925781 14.40625 -9.375 C 14.09375 -9.820312 13.625 -10.25 13 -10.65625 C 12.375 -11.070312 11.109375 -11.738281 9.203125 -12.65625 C 7.410156 -13.5 6.066406 -14.304688 5.171875 -15.078125 C 4.273438 -15.847656 3.554688 -16.75 3.015625 -17.78125 C 2.484375 -18.8125 2.21875 -20.015625 2.21875 -21.390625 C 2.21875 -23.984375 3.097656 -26.019531 4.859375 -27.5 C 6.617188 -28.988281 9.050781 -29.734375 12.15625 -29.734375 C 13.675781 -29.734375 15.128906 -29.550781 16.515625 -29.1875 C 17.898438 -28.832031 19.347656 -28.328125 20.859375 -27.671875 L 18.84375 -22.84375 C 17.28125 -23.476562 15.988281 -23.921875 14.96875 -24.171875 C 13.945312 -24.429688 12.941406 -24.5625 11.953125 -24.5625 C 10.773438 -24.5625 9.867188 -24.285156 9.234375 -23.734375 C 8.609375 -23.191406 8.296875 -22.476562 8.296875 -21.59375 C 8.296875 -21.039062 8.421875 -20.5625 8.671875 -20.15625 C 8.929688 -19.75 9.335938 -19.351562 9.890625 -18.96875 C 10.453125 -18.59375 11.765625 -17.910156 13.828125 -16.921875 C 16.566406 -15.609375 18.445312 -14.289062 19.46875 -12.96875 C 20.488281 -11.65625 21 -10.046875 21 -8.140625 Z M 21 -8.140625 "/></g></g></g><g fill="#ffffff" fill-opacity="1"><g transform="translate(398.274336, 530.291589)"><g><path d="M 15 0 L 8.78125 0 L 8.78125 -24.140625 L 0.828125 -24.140625 L 0.828125 -29.3125 L 22.953125 -29.3125 L 22.953125 -24.140625 L 15 -24.140625 Z M 15 0 "/></g></g></g><g fill="#ffffff" fill-opacity="1"><g transform="translate(422.053693, 530.291589)"><g><path d="M 20.40625 -29.3125 L 26.6875 -29.3125 L 16.71875 0 L 9.9375 0 L 0 -29.3125 L 6.28125 -29.3125 L 11.796875 -11.875 C 12.097656 -10.84375 12.410156 -9.640625 12.734375 -8.265625 C 13.066406 -6.898438 13.273438 -5.945312 13.359375 -5.40625 C 13.503906 -6.644531 14.003906 -8.800781 14.859375 -11.875 Z M 20.40625 -29.3125 "/></g></g></g><g fill="#ffffff" fill-opacity="1"><g transform="translate(448.740307, 530.291589)"><g><path d="M 30.296875 -14.703125 C 30.296875 -9.847656 29.09375 -6.113281 26.6875 -3.5 C 24.28125 -0.894531 20.832031 0.40625 16.34375 0.40625 C 11.851562 0.40625 8.40625 -0.894531 6 -3.5 C 3.59375 -6.113281 2.390625 -9.859375 2.390625 -14.734375 C 2.390625 -19.617188 3.59375 -23.347656 6 -25.921875 C 8.414062 -28.492188 11.875 -29.78125 16.375 -29.78125 C 20.882812 -29.78125 24.332031 -28.484375 26.71875 -25.890625 C 29.101562 -23.296875 30.296875 -19.566406 30.296875 -14.703125 Z M 8.90625 -14.703125 C 8.90625 -11.421875 9.523438 -8.953125 10.765625 -7.296875 C 12.003906 -5.640625 13.863281 -4.8125 16.34375 -4.8125 C 21.300781 -4.8125 23.78125 -8.109375 23.78125 -14.703125 C 23.78125 -21.296875 21.3125 -24.59375 16.375 -24.59375 C 13.90625 -24.59375 12.039062 -23.757812 10.78125 -22.09375 C 9.53125 -20.4375 8.90625 -17.972656 8.90625 -14.703125 Z M 8.90625 -14.703125 "/></g></g></g></svg>