<svg xmlns="http://www.w3.org/2000/svg" xmlns:xlink="http://www.w3.org/1999/xlink" width="300" zoomAndPan="magnify" viewBox="0 0 224.87999 149.999998" height="200" preserveAspectRatio="xMidYMid meet" version="1.0"><defs><clipPath id="5f2ac7ff3e"><path d="M 37.480469 0.0390625 L 187.398438 0.0390625 L 187.398438 149.960938 L 37.480469 149.960938 Z M 37.480469 0.0390625 " clip-rule="nonzero"/></clipPath></defs><g clip-path="url(#5f2ac7ff3e)"><path fill="#ffffff" d="M 142.019531 5.753906 C 151.09375 9.496094 159.089844 14.890625 165.820312 21.621094 C 172.546875 28.347656 177.941406 36.347656 181.6875 45.421875 C 185.367188 54.433594 187.398438 64.398438 187.398438 75 C 187.398438 85.601562 185.367188 95.566406 181.6875 104.578125 C 177.941406 113.652344 172.546875 121.652344 165.820312 128.378906 C 159.089844 135.109375 151.09375 140.503906 142.019531 144.246094 C 133.003906 147.929688 123.039062 149.960938 112.441406 149.960938 C 101.839844 149.960938 91.875 147.929688 82.863281 144.246094 C 73.785156 140.503906 65.789062 135.109375 59.058594 128.378906 C 52.332031 121.652344 46.9375 113.652344 43.191406 104.578125 C 39.511719 95.566406 37.480469 85.601562 37.480469 75 C 37.480469 64.398438 39.511719 54.433594 43.191406 45.421875 C 46.9375 36.347656 52.332031 28.347656 59.058594 21.621094 C 65.789062 14.890625 73.785156 9.496094 82.863281 5.753906 C 91.875 2.070312 101.839844 0.0390625 112.441406 0.0390625 C 123.039062 0.0390625 133.003906 2.070312 142.019531 5.753906 Z M 140.242188 139.742188 C 148.617188 136.3125 156.171875 131.234375 162.457031 125.015625 C 168.675781 118.730469 173.753906 111.179688 177.179688 102.800781 C 180.671875 94.296875 182.574219 84.964844 182.574219 75 C 182.574219 65.035156 180.671875 55.703125 177.179688 47.199219 C 173.753906 38.820312 168.675781 31.269531 162.457031 24.984375 C 156.171875 18.765625 148.617188 13.6875 140.242188 10.257812 C 131.734375 6.769531 122.40625 4.863281 112.441406 4.863281 C 102.476562 4.863281 93.144531 6.769531 84.640625 10.257812 C 76.261719 13.6875 68.707031 18.765625 62.425781 24.984375 C 56.203125 31.269531 51.125 38.820312 47.699219 47.199219 C 44.207031 55.703125 42.304688 65.035156 42.304688 75 C 42.304688 84.964844 44.207031 94.296875 47.699219 102.800781 C 51.125 111.179688 56.203125 118.730469 62.425781 125.015625 C 68.707031 131.234375 76.261719 136.3125 84.640625 139.742188 C 93.144531 143.230469 102.476562 145.136719 112.441406 145.136719 C 122.40625 145.136719 131.734375 143.230469 140.242188 139.742188 Z M 140.242188 139.742188 " fill-opacity="1" fill-rule="evenodd"/></g><path fill="#ffffff" d="M 99.871094 44.660156 C 99.746094 44.660156 99.617188 44.722656 99.492188 44.789062 C 99.175781 44.914062 98.921875 45.105469 98.667969 45.296875 C 98.476562 45.550781 98.285156 45.804688 98.160156 46.121094 C 98.09375 46.246094 98.03125 46.375 98.03125 46.5 C 97.96875 46.628906 97.96875 46.691406 97.96875 46.820312 L 97.96875 49.292969 L 126.53125 49.292969 L 126.53125 46.820312 C 126.53125 46.691406 126.53125 46.628906 126.46875 46.5 C 126.46875 46.375 126.402344 46.246094 126.339844 46.121094 C 126.214844 45.867188 126.023438 45.550781 125.769531 45.359375 C 125.515625 45.105469 125.261719 44.914062 124.945312 44.789062 C 124.816406 44.722656 124.691406 44.660156 124.5625 44.660156 C 124.4375 44.597656 124.371094 44.597656 124.246094 44.597656 L 100.191406 44.597656 C 100.0625 44.597656 100 44.597656 99.871094 44.660156 Z M 93.144531 46.820312 C 93.144531 46.3125 93.207031 45.867188 93.335938 45.421875 C 93.398438 44.976562 93.589844 44.535156 93.78125 44.089844 C 94.097656 43.265625 94.667969 42.566406 95.300781 41.929688 C 95.9375 41.296875 96.636719 40.726562 97.460938 40.40625 C 97.90625 40.21875 98.347656 40.027344 98.792969 39.964844 C 99.238281 39.835938 99.683594 39.773438 100.191406 39.773438 L 124.246094 39.773438 C 124.753906 39.773438 125.199219 39.835938 125.640625 39.964844 C 126.085938 40.027344 126.53125 40.21875 126.976562 40.40625 C 127.800781 40.726562 128.5 41.296875 129.132812 41.929688 C 129.832031 42.503906 130.339844 43.265625 130.71875 44.089844 C 130.910156 44.46875 131.101562 44.914062 131.164062 45.359375 C 131.292969 45.867188 131.355469 46.3125 131.355469 46.820312 L 131.355469 49.292969 L 148.871094 49.292969 C 152.554688 49.292969 156.300781 52.976562 156.300781 56.65625 L 156.300781 63.320312 L 117.773438 75.953125 C 117.519531 75.824219 117.265625 75.761719 117.074219 75.699219 C 116.820312 75.632812 116.503906 75.632812 116.25 75.632812 L 108.25 75.632812 C 107.996094 75.632812 107.679688 75.632812 107.425781 75.699219 C 107.234375 75.761719 106.980469 75.824219 106.789062 75.886719 L 68.265625 63.320312 L 68.265625 56.65625 C 68.265625 52.976562 71.945312 49.292969 75.625 49.292969 L 93.144531 49.292969 Z M 108.1875 78.871094 L 116.3125 78.871094 C 116.375 78.871094 116.4375 78.871094 116.503906 78.871094 C 116.566406 78.933594 116.691406 79 116.757812 79.125 C 116.882812 79.1875 116.945312 79.316406 117.011719 79.378906 C 117.011719 79.441406 117.011719 79.441406 117.011719 79.507812 L 117.074219 79.570312 L 117.074219 82.300781 L 117.011719 82.363281 C 117.011719 82.425781 117.011719 82.488281 117.011719 82.488281 C 116.945312 82.617188 116.882812 82.742188 116.757812 82.808594 C 116.691406 82.933594 116.566406 82.996094 116.4375 83.0625 C 116.4375 83.0625 116.375 83.0625 116.3125 83.0625 L 116.25 83.125 L 108.25 83.125 L 108.1875 83.0625 C 108.125 83.0625 108.058594 83.0625 108.058594 83.0625 C 107.933594 82.996094 107.804688 82.933594 107.742188 82.808594 C 107.617188 82.742188 107.550781 82.617188 107.488281 82.488281 C 107.488281 82.488281 107.488281 82.425781 107.488281 82.363281 L 107.488281 79.507812 C 107.488281 79.441406 107.488281 79.441406 107.488281 79.378906 C 107.550781 79.316406 107.617188 79.1875 107.742188 79.125 C 107.804688 79 107.933594 78.933594 107.996094 78.871094 C 108.058594 78.871094 108.125 78.871094 108.1875 78.871094 Z M 120.183594 78.746094 C 120.183594 78.679688 120.121094 78.617188 120.121094 78.554688 L 156.300781 66.683594 L 156.300781 100.070312 C 156.300781 103.753906 152.554688 107.496094 148.871094 107.496094 L 75.625 107.496094 C 71.945312 107.496094 68.265625 103.753906 68.265625 100.070312 L 68.265625 66.683594 L 104.378906 78.554688 C 104.378906 78.617188 104.316406 78.679688 104.316406 78.746094 C 104.253906 79 104.253906 79.316406 104.253906 79.570312 L 104.253906 82.300781 C 104.253906 82.554688 104.253906 82.871094 104.316406 83.125 C 104.378906 83.378906 104.441406 83.632812 104.570312 83.886719 C 104.761719 84.332031 105.078125 84.710938 105.457031 85.09375 C 105.839844 85.472656 106.21875 85.789062 106.664062 85.980469 C 106.917969 86.109375 107.171875 86.171875 107.425781 86.234375 C 107.679688 86.296875 107.996094 86.363281 108.25 86.363281 L 116.25 86.363281 C 116.503906 86.363281 116.820312 86.296875 117.074219 86.234375 C 117.328125 86.171875 117.582031 86.109375 117.835938 85.980469 C 118.28125 85.789062 118.660156 85.472656 119.042969 85.09375 C 119.421875 84.710938 119.738281 84.332031 119.929688 83.886719 C 120.054688 83.632812 120.121094 83.378906 120.183594 83.125 C 120.246094 82.871094 120.308594 82.554688 120.308594 82.300781 L 120.308594 79.570312 C 120.308594 79.316406 120.246094 79 120.183594 78.746094 Z M 120.183594 78.746094 " fill-opacity="1" fill-rule="evenodd"/></svg>