<svg xmlns="http://www.w3.org/2000/svg" xmlns:xlink="http://www.w3.org/1999/xlink" width="375" zoomAndPan="magnify" viewBox="0 0 281.25 431.249985" height="575" preserveAspectRatio="xMidYMid meet" version="1.0"><defs><g/><clipPath id="9bb0350d62"><path d="M 171 111 L 195.953125 111 L 195.953125 203.050781 L 171 203.050781 Z M 171 111 " clip-rule="nonzero"/></clipPath><clipPath id="e088db651a"><path d="M 128 159 L 153 159 L 153 203.050781 L 128 203.050781 Z M 128 159 " clip-rule="nonzero"/></clipPath><clipPath id="04401dd492"><path d="M 84.5 79.628906 L 153 79.628906 L 153 203.050781 L 84.5 203.050781 Z M 84.5 79.628906 " clip-rule="nonzero"/></clipPath></defs><g fill="#ffffff" fill-opacity="1"><g transform="translate(77.107907, 247.795869)"><g><path d="M 2.921875 -26.109375 L 8.609375 -26.109375 L 8.609375 -15.90625 L 18.78125 -15.90625 L 18.78125 -26.109375 L 24.46875 -26.109375 L 24.46875 0 L 18.78125 0 L 18.78125 -10.5625 L 8.609375 -10.5625 L 8.609375 0 L 2.921875 0 Z M 2.921875 -26.109375 "/></g></g></g><g fill="#ffffff" fill-opacity="1"><g transform="translate(109.253235, 247.795869)"><g><path d="M 10.671875 -26.578125 L 14.296875 -26.578125 L 24.59375 0 L 18.59375 0 L 16.984375 -4.40625 L 7.984375 -4.40625 L 6.4375 0 L 0.390625 0 Z M 15.234375 -9.3125 L 12.515625 -16.984375 L 9.75 -9.3125 Z M 15.234375 -9.3125 "/></g></g></g><g fill="#ffffff" fill-opacity="1"><g transform="translate(138.982889, 247.795869)"><g><path d="M 2.921875 -26.109375 L 11.109375 -26.109375 C 12.453125 -26.109375 13.703125 -25.898438 14.859375 -25.484375 C 16.015625 -25.066406 17.007812 -24.484375 17.84375 -23.734375 C 18.675781 -22.984375 19.328125 -22.085938 19.796875 -21.046875 C 20.265625 -20.003906 20.5 -18.875 20.5 -17.65625 C 20.5 -16.09375 20.117188 -14.679688 19.359375 -13.421875 C 18.609375 -12.160156 17.570312 -11.179688 16.25 -10.484375 L 22.375 0 L 15.75 0 L 10.671875 -9.15625 L 8.609375 -9.15625 L 8.609375 0 L 2.921875 0 Z M 10.828125 -14.1875 C 12.054688 -14.1875 13.023438 -14.488281 13.734375 -15.09375 C 14.453125 -15.707031 14.8125 -16.546875 14.8125 -17.609375 C 14.8125 -18.679688 14.445312 -19.472656 13.71875 -19.984375 C 12.988281 -20.503906 12.023438 -20.765625 10.828125 -20.765625 L 8.609375 -20.765625 L 8.609375 -14.1875 Z M 10.828125 -14.1875 "/></g></g></g><g fill="#ffffff" fill-opacity="1"><g transform="translate(166.686484, 247.795869)"><g><path d="M 2.921875 -26.109375 L 8.609375 -26.109375 L 8.609375 0 L 2.921875 0 Z M 2.921875 -26.109375 "/></g></g></g><g fill="#ffffff" fill-opacity="1"><g transform="translate(182.97402, 247.795869)"><g><path d="M 9.9375 0.703125 C 7.90625 0.703125 6.082031 0.25 4.46875 -0.65625 C 2.863281 -1.570312 1.566406 -2.882812 0.578125 -4.59375 L 4.5625 -7.90625 C 5.90625 -5.488281 7.679688 -4.28125 9.890625 -4.28125 C 10.878906 -4.28125 11.675781 -4.519531 12.28125 -5 C 12.894531 -5.488281 13.203125 -6.117188 13.203125 -6.890625 C 13.203125 -7.617188 12.90625 -8.25 12.3125 -8.78125 C 11.71875 -9.320312 10.640625 -9.925781 9.078125 -10.59375 C 6.660156 -11.664062 4.898438 -12.859375 3.796875 -14.171875 C 2.691406 -15.484375 2.140625 -17.046875 2.140625 -18.859375 C 2.140625 -20.003906 2.347656 -21.054688 2.765625 -22.015625 C 3.179688 -22.972656 3.765625 -23.796875 4.515625 -24.484375 C 5.273438 -25.179688 6.171875 -25.71875 7.203125 -26.09375 C 8.242188 -26.46875 9.390625 -26.65625 10.640625 -26.65625 C 13.941406 -26.65625 16.734375 -25.238281 19.015625 -22.40625 L 15.234375 -18.984375 C 14.503906 -19.941406 13.773438 -20.644531 13.046875 -21.09375 C 12.328125 -21.550781 11.523438 -21.78125 10.640625 -21.78125 C 9.785156 -21.78125 9.101562 -21.566406 8.59375 -21.140625 C 8.082031 -20.710938 7.828125 -20.132812 7.828125 -19.40625 C 7.828125 -18.601562 8.164062 -17.941406 8.84375 -17.421875 C 9.519531 -16.898438 10.535156 -16.34375 11.890625 -15.75 C 14.359375 -14.65625 16.144531 -13.4375 17.25 -12.09375 C 18.351562 -10.757812 18.90625 -9.179688 18.90625 -7.359375 C 18.90625 -6.171875 18.679688 -5.082031 18.234375 -4.09375 C 17.796875 -3.101562 17.1875 -2.25 16.40625 -1.53125 C 15.625 -0.820312 14.679688 -0.273438 13.578125 0.109375 C 12.472656 0.503906 11.257812 0.703125 9.9375 0.703125 Z M 9.9375 0.703125 "/></g></g></g><g fill="#ffffff" fill-opacity="1"><g transform="translate(208.124692, 247.795869)"><g/></g></g><g fill="#ffffff" fill-opacity="1"><g transform="translate(34.8343, 300.773463)"><g><path d="M 2.921875 -26.109375 L 8.609375 -26.109375 L 8.609375 -5.34375 L 17.65625 -5.34375 L 17.65625 0 L 2.921875 0 Z M 2.921875 -26.109375 "/></g></g></g><g fill="#ffffff" fill-opacity="1"><g transform="translate(58.407852, 300.773463)"><g><path d="M 7.359375 0.546875 C 5.671875 0.546875 4.191406 0.175781 2.921875 -0.5625 C 1.648438 -1.300781 0.675781 -2.332031 0 -3.65625 L 4.125 -7.125 C 4.9375 -5.570312 6.003906 -4.796875 7.328125 -4.796875 C 8.316406 -4.796875 9.109375 -5.144531 9.703125 -5.84375 C 10.296875 -6.539062 10.59375 -7.460938 10.59375 -8.609375 L 10.59375 -20.765625 L 3.890625 -20.765625 L 3.890625 -26.109375 L 16.28125 -26.109375 L 16.28125 -8.765625 C 16.28125 -7.390625 16.0625 -6.128906 15.625 -4.984375 C 15.1875 -3.835938 14.570312 -2.851562 13.78125 -2.03125 C 12.988281 -1.21875 12.046875 -0.582031 10.953125 -0.125 C 9.859375 0.320312 8.660156 0.546875 7.359375 0.546875 Z M 7.359375 0.546875 "/></g></g></g><g fill="#ffffff" fill-opacity="1"><g transform="translate(82.176223, 300.773463)"><g><path d="M 13.359375 0.546875 C 11.804688 0.546875 10.378906 0.273438 9.078125 -0.265625 C 7.773438 -0.816406 6.65625 -1.578125 5.71875 -2.546875 C 4.789062 -3.523438 4.0625 -4.695312 3.53125 -6.0625 C 3 -7.425781 2.734375 -8.910156 2.734375 -10.515625 L 2.734375 -26.109375 L 8.421875 -26.109375 L 8.421875 -10.59375 C 8.421875 -8.851562 8.867188 -7.484375 9.765625 -6.484375 C 10.660156 -5.484375 11.847656 -4.984375 13.328125 -4.984375 C 14.804688 -4.984375 16 -5.484375 16.90625 -6.484375 C 17.820312 -7.484375 18.28125 -8.851562 18.28125 -10.59375 L 18.28125 -26.109375 L 23.96875 -26.109375 L 23.96875 -10.515625 C 23.96875 -8.910156 23.703125 -7.425781 23.171875 -6.0625 C 22.640625 -4.695312 21.90625 -3.523438 20.96875 -2.546875 C 20.03125 -1.578125 18.910156 -0.816406 17.609375 -0.265625 C 16.316406 0.273438 14.898438 0.546875 13.359375 0.546875 Z M 13.359375 0.546875 "/></g></g></g><g fill="#ffffff" fill-opacity="1"><g transform="translate(113.620219, 300.773463)"><g><path d="M 2.921875 -26.109375 L 10.515625 -26.109375 C 11.847656 -26.109375 13.070312 -25.921875 14.1875 -25.546875 C 15.300781 -25.171875 16.257812 -24.65625 17.0625 -24 C 17.875 -23.351562 18.503906 -22.582031 18.953125 -21.6875 C 19.410156 -20.789062 19.640625 -19.820312 19.640625 -18.78125 C 19.640625 -17.6875 19.382812 -16.695312 18.875 -15.8125 C 18.375 -14.9375 17.664062 -14.1875 16.75 -13.5625 C 17.945312 -12.96875 18.882812 -12.148438 19.5625 -11.109375 C 20.238281 -10.066406 20.578125 -8.894531 20.578125 -7.59375 C 20.578125 -6.507812 20.34375 -5.503906 19.875 -4.578125 C 19.40625 -3.660156 18.757812 -2.851562 17.9375 -2.15625 C 17.125 -1.46875 16.140625 -0.9375 14.984375 -0.5625 C 13.828125 -0.1875 12.570312 0 11.21875 0 L 2.921875 0 Z M 11.03125 -4.671875 C 12.226562 -4.671875 13.171875 -4.953125 13.859375 -5.515625 C 14.546875 -6.078125 14.890625 -6.847656 14.890625 -7.828125 C 14.890625 -8.796875 14.550781 -9.550781 13.875 -10.09375 C 13.195312 -10.632812 12.25 -10.90625 11.03125 -10.90625 L 8.609375 -10.90625 L 8.609375 -4.671875 Z M 10.515625 -15.59375 C 11.554688 -15.59375 12.390625 -15.859375 13.015625 -16.390625 C 13.640625 -16.921875 13.953125 -17.640625 13.953125 -18.546875 C 13.953125 -19.453125 13.640625 -20.160156 13.015625 -20.671875 C 12.390625 -21.179688 11.554688 -21.4375 10.515625 -21.4375 L 8.609375 -21.4375 L 8.609375 -15.59375 Z M 10.515625 -15.59375 "/></g></g></g><g fill="#ffffff" fill-opacity="1"><g transform="translate(140.505592, 300.773463)"><g><path d="M 14.84375 0.546875 C 12.925781 0.546875 11.144531 0.195312 9.5 -0.5 C 7.863281 -1.207031 6.441406 -2.171875 5.234375 -3.390625 C 4.023438 -4.609375 3.078125 -6.039062 2.390625 -7.6875 C 1.703125 -9.34375 1.359375 -11.128906 1.359375 -13.046875 C 1.359375 -14.972656 1.703125 -16.765625 2.390625 -18.421875 C 3.078125 -20.085938 4.023438 -21.53125 5.234375 -22.75 C 6.441406 -23.976562 7.863281 -24.9375 9.5 -25.625 C 11.144531 -26.3125 12.925781 -26.65625 14.84375 -26.65625 C 16.738281 -26.65625 18.507812 -26.3125 20.15625 -25.625 C 21.8125 -24.9375 23.242188 -23.976562 24.453125 -22.75 C 25.660156 -21.53125 26.609375 -20.085938 27.296875 -18.421875 C 27.984375 -16.765625 28.328125 -14.972656 28.328125 -13.046875 C 28.328125 -11.128906 27.984375 -9.34375 27.296875 -7.6875 C 26.609375 -6.039062 25.660156 -4.609375 24.453125 -3.390625 C 23.242188 -2.171875 21.8125 -1.207031 20.15625 -0.5 C 18.507812 0.195312 16.738281 0.546875 14.84375 0.546875 Z M 14.84375 -4.984375 C 15.9375 -4.984375 16.9375 -5.1875 17.84375 -5.59375 C 18.757812 -6 19.546875 -6.5625 20.203125 -7.28125 C 20.867188 -8.007812 21.390625 -8.867188 21.765625 -9.859375 C 22.140625 -10.847656 22.328125 -11.910156 22.328125 -13.046875 C 22.328125 -14.191406 22.140625 -15.257812 21.765625 -16.25 C 21.390625 -17.238281 20.867188 -18.085938 20.203125 -18.796875 C 19.546875 -19.515625 18.757812 -20.082031 17.84375 -20.5 C 16.9375 -20.914062 15.9375 -21.125 14.84375 -21.125 C 13.75 -21.125 12.75 -20.914062 11.84375 -20.5 C 10.9375 -20.082031 10.148438 -19.515625 9.484375 -18.796875 C 8.828125 -18.085938 8.304688 -17.238281 7.921875 -16.25 C 7.546875 -15.257812 7.359375 -14.191406 7.359375 -13.046875 C 7.359375 -11.910156 7.546875 -10.847656 7.921875 -9.859375 C 8.304688 -8.867188 8.828125 -8.015625 9.484375 -7.296875 C 10.148438 -6.585938 10.9375 -6.023438 11.84375 -5.609375 C 12.75 -5.191406 13.75 -4.984375 14.84375 -4.984375 Z M 14.84375 -4.984375 "/></g></g></g><g fill="#ffffff" fill-opacity="1"><g transform="translate(174.949709, 300.773463)"><g><path d="M 0.1875 -26.109375 L 6.125 -26.109375 L 11.8125 -10.5625 L 17.578125 -26.109375 L 23.421875 -26.109375 L 13.28125 0.46875 L 10.28125 0.46875 Z M 0.1875 -26.109375 "/></g></g></g><g fill="#ffffff" fill-opacity="1"><g transform="translate(203.315661, 300.773463)"><g><path d="M 2.921875 -26.109375 L 8.609375 -26.109375 L 8.609375 0 L 2.921875 0 Z M 2.921875 -26.109375 "/></g></g></g><g fill="#ffffff" fill-opacity="1"><g transform="translate(219.603197, 300.773463)"><g><path d="M 14.921875 0.546875 C 12.972656 0.546875 11.164062 0.207031 9.5 -0.46875 C 7.84375 -1.144531 6.410156 -2.085938 5.203125 -3.296875 C 3.992188 -4.503906 3.050781 -5.9375 2.375 -7.59375 C 1.695312 -9.257812 1.359375 -11.066406 1.359375 -13.015625 C 1.359375 -14.960938 1.703125 -16.765625 2.390625 -18.421875 C 3.078125 -20.085938 4.023438 -21.53125 5.234375 -22.75 C 6.441406 -23.976562 7.867188 -24.9375 9.515625 -25.625 C 11.171875 -26.3125 12.960938 -26.65625 14.890625 -26.65625 C 16.910156 -26.65625 18.789062 -26.265625 20.53125 -25.484375 C 22.269531 -24.703125 23.78125 -23.585938 25.0625 -22.140625 L 21.078125 -18.28125 C 20.328125 -19.15625 19.4375 -19.847656 18.40625 -20.359375 C 17.382812 -20.867188 16.265625 -21.125 15.046875 -21.125 C 13.921875 -21.125 12.890625 -20.921875 11.953125 -20.515625 C 11.023438 -20.109375 10.21875 -19.546875 9.53125 -18.828125 C 8.84375 -18.117188 8.304688 -17.269531 7.921875 -16.28125 C 7.546875 -15.300781 7.359375 -14.238281 7.359375 -13.09375 C 7.359375 -11.925781 7.550781 -10.847656 7.9375 -9.859375 C 8.332031 -8.867188 8.875 -8.007812 9.5625 -7.28125 C 10.25 -6.5625 11.070312 -6 12.03125 -5.59375 C 13 -5.1875 14.054688 -4.984375 15.203125 -4.984375 C 16.441406 -4.984375 17.582031 -5.242188 18.625 -5.765625 C 19.664062 -6.285156 20.550781 -6.988281 21.28125 -7.875 L 25.25 -4.09375 C 24 -2.613281 22.5 -1.46875 20.75 -0.65625 C 19 0.144531 17.054688 0.546875 14.921875 0.546875 Z M 12.515625 -29.546875 L 16.296875 -36.5625 L 20.078125 -34.296875 L 15.515625 -27.78125 Z M 12.515625 -29.546875 "/></g></g></g><g fill="#38b6ff" fill-opacity="1"><g transform="translate(32.510455, 343.929532)"><g><path d="M 0.65625 -14.6875 L 2.28125 -14.6875 L 6 -3.4375 L 10.109375 -14.6875 L 10.546875 -14.6875 L 14.671875 -3.609375 L 18.34375 -14.6875 L 19.890625 -14.6875 L 14.890625 0.4375 L 14.5625 0.4375 L 10.28125 -11.078125 L 6.09375 0.4375 L 5.65625 0.4375 Z M 0.65625 -14.6875 "/></g></g></g><g fill="#38b6ff" fill-opacity="1"><g transform="translate(57.611019, 343.929532)"><g><path d="M 1.96875 -14.6875 L 9.53125 -14.6875 L 9.53125 -13.265625 L 3.5 -13.265625 L 3.5 -8.328125 L 8.109375 -8.328125 L 8.109375 -6.90625 L 3.5 -6.90625 L 3.5 -1.421875 L 9.640625 -1.421875 L 9.640625 0 L 1.96875 0 Z M 1.96875 -14.6875 "/></g></g></g><g fill="#38b6ff" fill-opacity="1"><g transform="translate(73.131712, 343.929532)"><g><path d="M 1.96875 -14.6875 L 5.265625 -14.6875 C 5.929688 -14.6875 6.550781 -14.59375 7.125 -14.40625 C 7.695312 -14.21875 8.1875 -13.953125 8.59375 -13.609375 C 9 -13.265625 9.316406 -12.859375 9.546875 -12.390625 C 9.785156 -11.921875 9.90625 -11.40625 9.90625 -10.84375 C 9.90625 -10.175781 9.738281 -9.578125 9.40625 -9.046875 C 9.070312 -8.523438 8.597656 -8.097656 7.984375 -7.765625 C 8.828125 -7.453125 9.492188 -6.976562 9.984375 -6.34375 C 10.484375 -5.707031 10.734375 -4.96875 10.734375 -4.125 C 10.734375 -3.519531 10.609375 -2.96875 10.359375 -2.46875 C 10.117188 -1.976562 9.773438 -1.546875 9.328125 -1.171875 C 8.878906 -0.796875 8.34375 -0.503906 7.71875 -0.296875 C 7.101562 -0.0976562 6.429688 0 5.703125 0 L 1.96875 0 Z M 5.703125 -1.421875 C 6.753906 -1.421875 7.597656 -1.671875 8.234375 -2.171875 C 8.878906 -2.679688 9.203125 -3.359375 9.203125 -4.203125 C 9.203125 -5.035156 8.878906 -5.703125 8.234375 -6.203125 C 7.597656 -6.710938 6.753906 -6.96875 5.703125 -6.96875 L 3.5 -6.96875 L 3.5 -1.421875 Z M 5.265625 -8.328125 C 6.210938 -8.328125 6.96875 -8.546875 7.53125 -8.984375 C 8.09375 -9.421875 8.375 -10.015625 8.375 -10.765625 C 8.375 -11.523438 8.085938 -12.128906 7.515625 -12.578125 C 6.953125 -13.035156 6.203125 -13.265625 5.265625 -13.265625 L 3.5 -13.265625 L 3.5 -8.328125 Z M 5.265625 -8.328125 "/></g></g></g><g fill="#38b6ff" fill-opacity="1"><g transform="translate(89.748503, 343.929532)"><g/></g></g><g fill="#38b6ff" fill-opacity="1"><g transform="translate(99.131045, 343.929532)"><g><path d="M 1.96875 -14.6875 L 6.78125 -14.6875 C 7.90625 -14.6875 8.941406 -14.503906 9.890625 -14.140625 C 10.835938 -13.773438 11.65625 -13.265625 12.34375 -12.609375 C 13.039062 -11.953125 13.585938 -11.171875 13.984375 -10.265625 C 14.378906 -9.367188 14.578125 -8.394531 14.578125 -7.34375 C 14.578125 -6.289062 14.378906 -5.3125 13.984375 -4.40625 C 13.585938 -3.507812 13.039062 -2.738281 12.34375 -2.09375 C 11.65625 -1.445312 10.835938 -0.9375 9.890625 -0.5625 C 8.941406 -0.1875 7.90625 0 6.78125 0 L 1.96875 0 Z M 6.75 -1.421875 C 7.644531 -1.421875 8.472656 -1.566406 9.234375 -1.859375 C 9.992188 -2.148438 10.644531 -2.554688 11.1875 -3.078125 C 11.738281 -3.609375 12.164062 -4.234375 12.46875 -4.953125 C 12.78125 -5.679688 12.9375 -6.476562 12.9375 -7.34375 C 12.9375 -8.207031 12.78125 -9 12.46875 -9.71875 C 12.164062 -10.445312 11.738281 -11.070312 11.1875 -11.59375 C 10.644531 -12.125 9.992188 -12.535156 9.234375 -12.828125 C 8.472656 -13.117188 7.644531 -13.265625 6.75 -13.265625 L 3.5 -13.265625 L 3.5 -1.421875 Z M 6.75 -1.421875 "/></g></g></g><g fill="#38b6ff" fill-opacity="1"><g transform="translate(119.364951, 343.929532)"><g><path d="M 1.96875 -14.6875 L 9.53125 -14.6875 L 9.53125 -13.265625 L 3.5 -13.265625 L 3.5 -8.328125 L 8.109375 -8.328125 L 8.109375 -6.90625 L 3.5 -6.90625 L 3.5 -1.421875 L 9.640625 -1.421875 L 9.640625 0 L 1.96875 0 Z M 1.96875 -14.6875 "/></g></g></g><g fill="#38b6ff" fill-opacity="1"><g transform="translate(134.885646, 343.929532)"><g><path d="M 0.65625 -14.6875 L 2.28125 -14.6875 L 6.296875 -3.203125 L 10.546875 -14.6875 L 12.0625 -14.6875 L 6.421875 0.4375 L 5.984375 0.4375 Z M 0.65625 -14.6875 "/></g></g></g><g fill="#38b6ff" fill-opacity="1"><g transform="translate(152.160095, 343.929532)"><g><path d="M 1.96875 -14.6875 L 9.53125 -14.6875 L 9.53125 -13.265625 L 3.5 -13.265625 L 3.5 -8.328125 L 8.109375 -8.328125 L 8.109375 -6.90625 L 3.5 -6.90625 L 3.5 -1.421875 L 9.640625 -1.421875 L 9.640625 0 L 1.96875 0 Z M 1.96875 -14.6875 "/></g></g></g><g fill="#38b6ff" fill-opacity="1"><g transform="translate(167.680791, 343.929532)"><g><path d="M 1.96875 -14.6875 L 3.5 -14.6875 L 3.5 -1.421875 L 9.421875 -1.421875 L 9.421875 0 L 1.96875 0 Z M 1.96875 -14.6875 "/></g></g></g><g fill="#38b6ff" fill-opacity="1"><g transform="translate(182.653437, 343.929532)"><g><path d="M 8.4375 0.21875 C 7.425781 0.21875 6.472656 0.0195312 5.578125 -0.375 C 4.691406 -0.769531 3.914062 -1.3125 3.25 -2 C 2.59375 -2.6875 2.066406 -3.484375 1.671875 -4.390625 C 1.285156 -5.304688 1.09375 -6.289062 1.09375 -7.34375 C 1.09375 -8.382812 1.285156 -9.363281 1.671875 -10.28125 C 2.066406 -11.195312 2.59375 -12 3.25 -12.6875 C 3.914062 -13.375 4.691406 -13.914062 5.578125 -14.3125 C 6.472656 -14.707031 7.425781 -14.90625 8.4375 -14.90625 C 9.445312 -14.90625 10.394531 -14.707031 11.28125 -14.3125 C 12.175781 -13.914062 12.957031 -13.375 13.625 -12.6875 C 14.289062 -12 14.816406 -11.195312 15.203125 -10.28125 C 15.585938 -9.375 15.78125 -8.394531 15.78125 -7.34375 C 15.78125 -6.300781 15.585938 -5.320312 15.203125 -4.40625 C 14.816406 -3.5 14.289062 -2.703125 13.625 -2.015625 C 12.957031 -1.328125 12.175781 -0.78125 11.28125 -0.375 C 10.394531 0.0195312 9.445312 0.21875 8.4375 0.21875 Z M 8.4375 -1.296875 C 9.238281 -1.296875 9.988281 -1.445312 10.6875 -1.75 C 11.394531 -2.0625 12 -2.488281 12.5 -3.03125 C 13.007812 -3.570312 13.410156 -4.207031 13.703125 -4.9375 C 13.992188 -5.675781 14.140625 -6.476562 14.140625 -7.34375 C 14.140625 -8.207031 13.992188 -9.003906 13.703125 -9.734375 C 13.410156 -10.472656 13.007812 -11.113281 12.5 -11.65625 C 12 -12.195312 11.394531 -12.617188 10.6875 -12.921875 C 9.988281 -13.234375 9.238281 -13.390625 8.4375 -13.390625 C 7.625 -13.390625 6.867188 -13.234375 6.171875 -12.921875 C 5.472656 -12.617188 4.867188 -12.195312 4.359375 -11.65625 C 3.859375 -11.113281 3.460938 -10.472656 3.171875 -9.734375 C 2.878906 -9.003906 2.734375 -8.207031 2.734375 -7.34375 C 2.734375 -6.476562 2.878906 -5.675781 3.171875 -4.9375 C 3.460938 -4.207031 3.859375 -3.570312 4.359375 -3.03125 C 4.867188 -2.488281 5.472656 -2.0625 6.171875 -1.75 C 6.867188 -1.445312 7.625 -1.296875 8.4375 -1.296875 Z M 8.4375 -1.296875 "/></g></g></g><g fill="#38b6ff" fill-opacity="1"><g transform="translate(204.093046, 343.929532)"><g><path d="M 1.96875 -14.6875 L 5.484375 -14.6875 C 6.210938 -14.6875 6.882812 -14.578125 7.5 -14.359375 C 8.125 -14.140625 8.660156 -13.832031 9.109375 -13.4375 C 9.554688 -13.039062 9.898438 -12.570312 10.140625 -12.03125 C 10.390625 -11.488281 10.515625 -10.898438 10.515625 -10.265625 C 10.515625 -9.617188 10.390625 -9.023438 10.140625 -8.484375 C 9.898438 -7.941406 9.554688 -7.472656 9.109375 -7.078125 C 8.660156 -6.679688 8.125 -6.375 7.5 -6.15625 C 6.882812 -5.9375 6.210938 -5.828125 5.484375 -5.828125 L 3.5 -5.828125 L 3.5 0 L 1.96875 0 Z M 5.484375 -7.25 C 6.535156 -7.25 7.378906 -7.523438 8.015625 -8.078125 C 8.660156 -8.628906 8.984375 -9.363281 8.984375 -10.28125 C 8.984375 -11.1875 8.660156 -11.910156 8.015625 -12.453125 C 7.378906 -12.992188 6.535156 -13.265625 5.484375 -13.265625 L 3.5 -13.265625 L 3.5 -7.25 Z M 5.484375 -7.25 "/></g></g></g><g fill="#38b6ff" fill-opacity="1"><g transform="translate(220.161791, 343.929532)"><g><path d="M 1.96875 -14.6875 L 9.53125 -14.6875 L 9.53125 -13.265625 L 3.5 -13.265625 L 3.5 -8.328125 L 8.109375 -8.328125 L 8.109375 -6.90625 L 3.5 -6.90625 L 3.5 -1.421875 L 9.640625 -1.421875 L 9.640625 0 L 1.96875 0 Z M 1.96875 -14.6875 "/></g></g></g><g fill="#38b6ff" fill-opacity="1"><g transform="translate(235.682487, 343.929532)"><g><path d="M 1.96875 -14.6875 L 5.484375 -14.6875 C 6.210938 -14.6875 6.882812 -14.578125 7.5 -14.359375 C 8.125 -14.148438 8.660156 -13.851562 9.109375 -13.46875 C 9.554688 -13.082031 9.898438 -12.625 10.140625 -12.09375 C 10.390625 -11.570312 10.515625 -11 10.515625 -10.375 C 10.515625 -9.863281 10.4375 -9.382812 10.28125 -8.9375 C 10.125 -8.488281 9.894531 -8.082031 9.59375 -7.71875 C 9.300781 -7.363281 8.953125 -7.054688 8.546875 -6.796875 C 8.140625 -6.546875 7.695312 -6.351562 7.21875 -6.21875 L 11.40625 0 L 9.5625 0 L 5.484375 -6.046875 L 3.5 -6.046875 L 3.5 0 L 1.96875 0 Z M 5.484375 -7.46875 C 6.535156 -7.46875 7.378906 -7.726562 8.015625 -8.25 C 8.660156 -8.78125 8.984375 -9.492188 8.984375 -10.390625 C 8.984375 -11.265625 8.660156 -11.960938 8.015625 -12.484375 C 7.378906 -13.003906 6.535156 -13.265625 5.484375 -13.265625 L 3.5 -13.265625 L 3.5 -7.46875 Z M 5.484375 -7.46875 "/></g></g></g><g clip-path="url(#9bb0350d62)"><path fill="#38b6ff" d="M 195.992188 130.324219 L 171.132812 111.683594 C 171.132812 142.140625 171.132812 172.601562 171.132812 203.0625 L 195.992188 188.710938 Z M 195.992188 130.324219 " fill-opacity="1" fill-rule="evenodd"/></g><g clip-path="url(#e088db651a)"><path fill="#38b6ff" d="M 152.101562 159.660156 L 128.394531 159.660156 L 128.394531 203.0625 L 152.101562 189.375 Z M 152.101562 159.660156 " fill-opacity="1" fill-rule="evenodd"/></g><g clip-path="url(#04401dd492)"><path fill="#ffffff" d="M 109.363281 111.683594 C 109.363281 137.359375 109.363281 163.035156 109.363281 188.710938 L 84.507812 203.0625 L 84.507812 130.324219 L 109.363281 111.683594 L 152.101562 79.628906 C 152.101562 100.042969 152.101562 120.460938 152.101562 140.871094 L 128.394531 140.871094 L 128.394531 111.683594 Z M 109.363281 111.683594 " fill-opacity="1" fill-rule="evenodd"/></g></svg>