<svg xmlns="http://www.w3.org/2000/svg" xmlns:xlink="http://www.w3.org/1999/xlink" width="1600" zoomAndPan="magnify" viewBox="0 0 1200 675.000002" height="900" preserveAspectRatio="xMidYMid meet" version="1.0"><defs><g/><clipPath id="68fd31d5aa"><path d="M 683 134 L 750.214844 134 L 750.214844 380.527344 L 683 380.527344 Z M 683 134 " clip-rule="nonzero"/></clipPath><clipPath id="5d56b108f7"><path d="M 568 263 L 632 263 L 632 380.527344 L 568 380.527344 Z M 568 263 " clip-rule="nonzero"/></clipPath><clipPath id="f6d6826958"><path d="M 449.910156 48.019531 L 632 48.019531 L 632 380.527344 L 449.910156 380.527344 Z M 449.910156 48.019531 " clip-rule="nonzero"/></clipPath></defs><g fill="#ffffff" fill-opacity="1"><g transform="translate(121.948138, 500.737553)"><g><path d="M 7.875 -70.28125 L 23.1875 -70.28125 L 23.1875 -42.796875 L 50.5625 -42.796875 L 50.5625 -70.28125 L 65.875 -70.28125 L 65.875 0 L 50.5625 0 L 50.5625 -28.421875 L 23.1875 -28.421875 L 23.1875 0 L 7.875 0 Z M 7.875 -70.28125 "/></g></g></g><g fill="#ffffff" fill-opacity="1"><g transform="translate(208.486568, 500.737553)"><g><path d="M 28.75 -71.546875 L 38.5 -71.546875 L 66.203125 0 L 50.046875 0 L 45.734375 -11.859375 L 21.5 -11.859375 L 17.3125 0 L 1.046875 0 Z M 41.015625 -25.078125 L 33.671875 -45.734375 L 26.234375 -25.078125 Z M 41.015625 -25.078125 "/></g></g></g><g fill="#ffffff" fill-opacity="1"><g transform="translate(288.521766, 500.737553)"><g><path d="M 7.875 -70.28125 L 29.890625 -70.28125 C 33.535156 -70.28125 36.910156 -69.722656 40.015625 -68.609375 C 43.128906 -67.492188 45.804688 -65.921875 48.046875 -63.890625 C 50.285156 -61.859375 52.035156 -59.441406 53.296875 -56.640625 C 54.554688 -53.847656 55.1875 -50.804688 55.1875 -47.515625 C 55.1875 -43.328125 54.171875 -39.535156 52.140625 -36.140625 C 50.109375 -32.742188 47.3125 -30.101562 43.75 -28.21875 L 60.21875 0 L 42.375 0 L 28.75 -24.65625 L 23.1875 -24.65625 L 23.1875 0 L 7.875 0 Z M 29.15625 -38.1875 C 32.445312 -38.1875 35.050781 -39.003906 36.96875 -40.640625 C 38.894531 -42.285156 39.859375 -44.546875 39.859375 -47.421875 C 39.859375 -50.285156 38.878906 -52.414062 36.921875 -53.8125 C 34.960938 -55.21875 32.375 -55.921875 29.15625 -55.921875 L 23.1875 -55.921875 L 23.1875 -38.1875 Z M 29.15625 -38.1875 "/></g></g></g><g fill="#ffffff" fill-opacity="1"><g transform="translate(363.102607, 500.737553)"><g><path d="M 7.875 -70.28125 L 23.1875 -70.28125 L 23.1875 0 L 7.875 0 Z M 7.875 -70.28125 "/></g></g></g><g fill="#ffffff" fill-opacity="1"><g transform="translate(406.950279, 500.737553)"><g><path d="M 26.75 1.890625 C 21.289062 1.890625 16.394531 0.664062 12.0625 -1.78125 C 7.726562 -4.226562 4.234375 -7.757812 1.578125 -12.375 L 12.28125 -21.296875 C 15.914062 -14.796875 20.703125 -11.546875 26.640625 -11.546875 C 29.296875 -11.546875 31.445312 -12.191406 33.09375 -13.484375 C 34.738281 -14.773438 35.5625 -16.46875 35.5625 -18.5625 C 35.5625 -20.519531 34.753906 -22.21875 33.140625 -23.65625 C 31.535156 -25.09375 28.632812 -26.71875 24.4375 -28.53125 C 17.9375 -31.394531 13.195312 -34.59375 10.21875 -38.125 C 7.25 -41.664062 5.765625 -45.882812 5.765625 -50.78125 C 5.765625 -53.851562 6.320312 -56.679688 7.4375 -59.265625 C 8.5625 -61.859375 10.140625 -64.082031 12.171875 -65.9375 C 14.203125 -67.789062 16.613281 -69.222656 19.40625 -70.234375 C 22.207031 -71.242188 25.285156 -71.75 28.640625 -71.75 C 37.523438 -71.75 45.039062 -67.941406 51.1875 -60.328125 L 41.015625 -51.09375 C 39.054688 -53.675781 37.097656 -55.578125 35.140625 -56.796875 C 33.179688 -58.023438 31.015625 -58.640625 28.640625 -58.640625 C 26.328125 -58.640625 24.488281 -58.0625 23.125 -56.90625 C 21.769531 -55.757812 21.09375 -54.207031 21.09375 -52.25 C 21.09375 -50.070312 22 -48.285156 23.8125 -46.890625 C 25.632812 -45.492188 28.363281 -43.988281 32 -42.375 C 38.644531 -39.4375 43.453125 -36.164062 46.421875 -32.5625 C 49.390625 -28.96875 50.875 -24.722656 50.875 -19.828125 C 50.875 -16.609375 50.28125 -13.671875 49.09375 -11.015625 C 47.90625 -8.359375 46.257812 -6.066406 44.15625 -4.140625 C 42.0625 -2.222656 39.523438 -0.738281 36.546875 0.3125 C 33.578125 1.363281 30.3125 1.890625 26.75 1.890625 Z M 26.75 1.890625 "/></g></g></g><g fill="#ffffff" fill-opacity="1"><g transform="translate(474.608235, 500.737553)"><g/></g></g><g fill="#ffffff" fill-opacity="1"><g transform="translate(510.484101, 500.737553)"><g><path d="M 7.875 -70.28125 L 23.1875 -70.28125 L 23.1875 -14.375 L 47.515625 -14.375 L 47.515625 0 L 7.875 0 Z M 7.875 -70.28125 "/></g></g></g><g fill="#ffffff" fill-opacity="1"><g transform="translate(573.946449, 500.737553)"><g><path d="M 19.828125 1.46875 C 15.285156 1.46875 11.300781 0.472656 7.875 -1.515625 C 4.445312 -3.515625 1.820312 -6.296875 0 -9.859375 L 11.125 -19.203125 C 13.289062 -15.003906 16.15625 -12.90625 19.71875 -12.90625 C 22.375 -12.90625 24.503906 -13.847656 26.109375 -15.734375 C 27.722656 -17.617188 28.53125 -20.101562 28.53125 -23.1875 L 28.53125 -55.921875 L 10.484375 -55.921875 L 10.484375 -70.28125 L 43.84375 -70.28125 L 43.84375 -23.609375 C 43.84375 -19.898438 43.25 -16.503906 42.0625 -13.421875 C 40.875 -10.347656 39.210938 -7.707031 37.078125 -5.5 C 34.953125 -3.300781 32.421875 -1.585938 29.484375 -0.359375 C 26.546875 0.859375 23.328125 1.46875 19.828125 1.46875 Z M 19.828125 1.46875 "/></g></g></g><g fill="#ffffff" fill-opacity="1"><g transform="translate(637.933266, 500.737553)"><g><path d="M 35.984375 1.46875 C 31.785156 1.46875 27.9375 0.734375 24.4375 -0.734375 C 20.945312 -2.203125 17.941406 -4.25 15.421875 -6.875 C 12.898438 -9.5 10.921875 -12.644531 9.484375 -16.3125 C 8.054688 -19.988281 7.34375 -23.992188 7.34375 -28.328125 L 7.34375 -70.28125 L 22.65625 -70.28125 L 22.65625 -28.53125 C 22.65625 -23.84375 23.859375 -20.148438 26.265625 -17.453125 C 28.679688 -14.765625 31.882812 -13.421875 35.875 -13.421875 C 39.863281 -13.421875 43.082031 -14.765625 45.53125 -17.453125 C 47.976562 -20.148438 49.203125 -23.84375 49.203125 -28.53125 L 49.203125 -70.28125 L 64.515625 -70.28125 L 64.515625 -28.328125 C 64.515625 -23.992188 63.796875 -19.988281 62.359375 -16.3125 C 60.929688 -12.644531 58.957031 -9.5 56.4375 -6.875 C 53.914062 -4.25 50.90625 -2.203125 47.40625 -0.734375 C 43.914062 0.734375 40.109375 1.46875 35.984375 1.46875 Z M 35.984375 1.46875 "/></g></g></g><g fill="#ffffff" fill-opacity="1"><g transform="translate(722.583625, 500.737553)"><g><path d="M 7.875 -70.28125 L 28.328125 -70.28125 C 31.890625 -70.28125 35.175781 -69.773438 38.1875 -68.765625 C 41.195312 -67.753906 43.785156 -66.375 45.953125 -64.625 C 48.117188 -62.875 49.8125 -60.789062 51.03125 -58.375 C 52.257812 -55.96875 52.875 -53.363281 52.875 -50.5625 C 52.875 -47.625 52.191406 -44.96875 50.828125 -42.59375 C 49.460938 -40.21875 47.554688 -38.1875 45.109375 -36.5 C 48.328125 -34.894531 50.84375 -32.691406 52.65625 -29.890625 C 54.476562 -27.097656 55.390625 -23.953125 55.390625 -20.453125 C 55.390625 -17.515625 54.757812 -14.804688 53.5 -12.328125 C 52.238281 -9.847656 50.503906 -7.679688 48.296875 -5.828125 C 46.097656 -3.972656 43.441406 -2.535156 40.328125 -1.515625 C 37.222656 -0.503906 33.851562 0 30.21875 0 L 7.875 0 Z M 29.6875 -12.59375 C 32.90625 -12.59375 35.441406 -13.34375 37.296875 -14.84375 C 39.148438 -16.34375 40.078125 -18.425781 40.078125 -21.09375 C 40.078125 -23.675781 39.164062 -25.703125 37.34375 -27.171875 C 35.53125 -28.640625 32.976562 -29.375 29.6875 -29.375 L 23.1875 -29.375 L 23.1875 -12.59375 Z M 28.328125 -41.96875 C 31.117188 -41.96875 33.351562 -42.679688 35.03125 -44.109375 C 36.71875 -45.546875 37.5625 -47.488281 37.5625 -49.9375 C 37.5625 -52.382812 36.71875 -54.289062 35.03125 -55.65625 C 33.351562 -57.019531 31.117188 -57.703125 28.328125 -57.703125 L 23.1875 -57.703125 L 23.1875 -41.96875 Z M 28.328125 -41.96875 "/></g></g></g><g fill="#ffffff" fill-opacity="1"><g transform="translate(794.961772, 500.737553)"><g><path d="M 39.96875 1.46875 C 34.789062 1.46875 30 0.523438 25.59375 -1.359375 C 21.1875 -3.253906 17.359375 -5.84375 14.109375 -9.125 C 10.859375 -12.414062 8.304688 -16.28125 6.453125 -20.71875 C 4.597656 -25.15625 3.671875 -29.960938 3.671875 -35.140625 C 3.671875 -40.316406 4.597656 -45.140625 6.453125 -49.609375 C 8.304688 -54.085938 10.859375 -57.972656 14.109375 -61.265625 C 17.359375 -64.554688 21.1875 -67.125 25.59375 -68.96875 C 30 -70.820312 34.789062 -71.75 39.96875 -71.75 C 45.070312 -71.75 49.84375 -70.820312 54.28125 -68.96875 C 58.726562 -67.125 62.578125 -64.554688 65.828125 -61.265625 C 69.078125 -57.972656 71.628906 -54.085938 73.484375 -49.609375 C 75.335938 -45.140625 76.265625 -40.316406 76.265625 -35.140625 C 76.265625 -29.960938 75.335938 -25.15625 73.484375 -20.71875 C 71.628906 -16.28125 69.078125 -12.414062 65.828125 -9.125 C 62.578125 -5.84375 58.726562 -3.253906 54.28125 -1.359375 C 49.84375 0.523438 45.070312 1.46875 39.96875 1.46875 Z M 39.96875 -13.421875 C 42.90625 -13.421875 45.597656 -13.960938 48.046875 -15.046875 C 50.492188 -16.140625 52.609375 -17.664062 54.390625 -19.625 C 56.171875 -21.582031 57.566406 -23.890625 58.578125 -26.546875 C 59.597656 -29.203125 60.109375 -32.066406 60.109375 -35.140625 C 60.109375 -38.222656 59.597656 -41.09375 58.578125 -43.75 C 57.566406 -46.40625 56.171875 -48.691406 54.390625 -50.609375 C 52.609375 -52.535156 50.492188 -54.054688 48.046875 -55.171875 C 45.597656 -56.296875 42.90625 -56.859375 39.96875 -56.859375 C 37.03125 -56.859375 34.335938 -56.296875 31.890625 -55.171875 C 29.441406 -54.054688 27.328125 -52.535156 25.546875 -50.609375 C 23.765625 -48.691406 22.363281 -46.40625 21.34375 -43.75 C 20.332031 -41.09375 19.828125 -38.222656 19.828125 -35.140625 C 19.828125 -32.066406 20.332031 -29.203125 21.34375 -26.546875 C 22.363281 -23.890625 23.765625 -21.597656 25.546875 -19.671875 C 27.328125 -17.742188 29.441406 -16.21875 31.890625 -15.09375 C 34.335938 -13.976562 37.03125 -13.421875 39.96875 -13.421875 Z M 39.96875 -13.421875 "/></g></g></g><g fill="#ffffff" fill-opacity="1"><g transform="translate(887.688771, 500.737553)"><g><path d="M 0.53125 -70.28125 L 16.46875 -70.28125 L 31.78125 -28.421875 L 47.3125 -70.28125 L 63.046875 -70.28125 L 35.765625 1.265625 L 27.6875 1.265625 Z M 0.53125 -70.28125 "/></g></g></g><g fill="#ffffff" fill-opacity="1"><g transform="translate(964.052746, 500.737553)"><g><path d="M 7.875 -70.28125 L 23.1875 -70.28125 L 23.1875 0 L 7.875 0 Z M 7.875 -70.28125 "/></g></g></g><g fill="#ffffff" fill-opacity="1"><g transform="translate(1007.900418, 500.737553)"><g><path d="M 40.171875 1.46875 C 34.929688 1.46875 30.070312 0.5625 25.59375 -1.25 C 21.125 -3.070312 17.257812 -5.609375 14 -8.859375 C 10.75 -12.117188 8.210938 -15.984375 6.390625 -20.453125 C 4.578125 -24.929688 3.671875 -29.789062 3.671875 -35.03125 C 3.671875 -40.28125 4.597656 -45.140625 6.453125 -49.609375 C 8.304688 -54.085938 10.859375 -57.972656 14.109375 -61.265625 C 17.359375 -64.554688 21.203125 -67.125 25.640625 -68.96875 C 30.085938 -70.820312 34.898438 -71.75 40.078125 -71.75 C 45.523438 -71.75 50.59375 -70.703125 55.28125 -68.609375 C 59.96875 -66.515625 64.023438 -63.507812 67.453125 -59.59375 L 56.75 -49.203125 C 54.726562 -51.578125 52.332031 -53.445312 49.5625 -54.8125 C 46.800781 -56.175781 43.78125 -56.859375 40.5 -56.859375 C 37.488281 -56.859375 34.722656 -56.316406 32.203125 -55.234375 C 29.679688 -54.148438 27.492188 -52.644531 25.640625 -50.71875 C 23.796875 -48.800781 22.363281 -46.507812 21.34375 -43.84375 C 20.332031 -41.1875 19.828125 -38.320312 19.828125 -35.25 C 19.828125 -32.101562 20.347656 -29.203125 21.390625 -26.546875 C 22.441406 -23.890625 23.894531 -21.582031 25.75 -19.625 C 27.601562 -17.664062 29.820312 -16.140625 32.40625 -15.046875 C 35 -13.960938 37.832031 -13.421875 40.90625 -13.421875 C 44.269531 -13.421875 47.347656 -14.117188 50.140625 -15.515625 C 52.941406 -16.921875 55.320312 -18.8125 57.28125 -21.1875 L 67.984375 -11.015625 C 64.617188 -7.023438 60.578125 -3.945312 55.859375 -1.78125 C 51.140625 0.382812 45.910156 1.46875 40.171875 1.46875 Z M 33.671875 -79.515625 L 43.84375 -98.40625 L 54.03125 -92.3125 L 41.75 -74.796875 Z M 33.671875 -79.515625 "/></g></g></g><g fill="#38b6ff" fill-opacity="1"><g transform="translate(309.95168, 607.293506)"><g><path d="M 1.765625 -39.546875 L 6.140625 -39.546875 L 16.171875 -9.265625 L 27.203125 -39.546875 L 28.390625 -39.546875 L 39.484375 -9.734375 L 49.390625 -39.546875 L 53.53125 -39.546875 L 40.078125 1.1875 L 39.1875 1.1875 L 27.671875 -29.796875 L 16.40625 1.1875 L 15.21875 1.1875 Z M 1.765625 -39.546875 "/></g></g></g><g fill="#38b6ff" fill-opacity="1"><g transform="translate(377.524904, 607.293506)"><g><path d="M 5.3125 -39.546875 L 25.671875 -39.546875 L 25.671875 -35.703125 L 9.4375 -35.703125 L 9.4375 -22.421875 L 21.828125 -22.421875 L 21.828125 -18.59375 L 9.4375 -18.59375 L 9.4375 -3.84375 L 25.96875 -3.84375 L 25.96875 0 L 5.3125 0 Z M 5.3125 -39.546875 "/></g></g></g><g fill="#38b6ff" fill-opacity="1"><g transform="translate(419.308157, 607.293506)"><g><path d="M 5.3125 -39.546875 L 14.15625 -39.546875 C 15.96875 -39.546875 17.640625 -39.285156 19.171875 -38.765625 C 20.710938 -38.253906 22.03125 -37.535156 23.125 -36.609375 C 24.226562 -35.691406 25.09375 -34.601562 25.71875 -33.34375 C 26.351562 -32.082031 26.671875 -30.707031 26.671875 -29.21875 C 26.671875 -27.40625 26.21875 -25.789062 25.3125 -24.375 C 24.40625 -22.957031 23.128906 -21.796875 21.484375 -20.890625 C 23.765625 -20.066406 25.570312 -18.796875 26.90625 -17.078125 C 28.25 -15.367188 28.921875 -13.375 28.921875 -11.09375 C 28.921875 -9.476562 28.582031 -8 27.90625 -6.65625 C 27.238281 -5.320312 26.304688 -4.15625 25.109375 -3.15625 C 23.910156 -2.15625 22.472656 -1.378906 20.796875 -0.828125 C 19.128906 -0.273438 17.3125 0 15.34375 0 L 5.3125 0 Z M 15.34375 -3.84375 C 18.175781 -3.84375 20.457031 -4.519531 22.1875 -5.875 C 23.914062 -7.226562 24.78125 -9.046875 24.78125 -11.328125 C 24.78125 -13.566406 23.914062 -15.363281 22.1875 -16.71875 C 20.457031 -18.082031 18.175781 -18.765625 15.34375 -18.765625 L 9.4375 -18.765625 L 9.4375 -3.84375 Z M 14.15625 -22.421875 C 16.71875 -22.421875 18.753906 -23.007812 20.265625 -24.1875 C 21.785156 -25.375 22.546875 -26.972656 22.546875 -28.984375 C 22.546875 -31.023438 21.773438 -32.65625 20.234375 -33.875 C 18.703125 -35.09375 16.675781 -35.703125 14.15625 -35.703125 L 9.4375 -35.703125 L 9.4375 -22.421875 Z M 14.15625 -22.421875 "/></g></g></g><g fill="#38b6ff" fill-opacity="1"><g transform="translate(464.042218, 607.293506)"><g/></g></g><g fill="#38b6ff" fill-opacity="1"><g transform="translate(489.300956, 607.293506)"><g><path d="M 5.3125 -39.546875 L 18.234375 -39.546875 C 21.265625 -39.546875 24.054688 -39.050781 26.609375 -38.0625 C 29.171875 -37.082031 31.382812 -35.707031 33.25 -33.9375 C 35.125 -32.164062 36.59375 -30.066406 37.65625 -27.640625 C 38.71875 -25.222656 39.25 -22.597656 39.25 -19.765625 C 39.25 -16.929688 38.71875 -14.304688 37.65625 -11.890625 C 36.59375 -9.472656 35.125 -7.390625 33.25 -5.640625 C 31.382812 -3.890625 29.171875 -2.507812 26.609375 -1.5 C 24.054688 -0.5 21.265625 0 18.234375 0 L 5.3125 0 Z M 18.171875 -3.84375 C 20.578125 -3.84375 22.800781 -4.234375 24.84375 -5.015625 C 26.894531 -5.804688 28.65625 -6.910156 30.125 -8.328125 C 31.601562 -9.742188 32.753906 -11.421875 33.578125 -13.359375 C 34.398438 -15.304688 34.8125 -17.441406 34.8125 -19.765625 C 34.8125 -22.085938 34.398438 -24.222656 33.578125 -26.171875 C 32.753906 -28.117188 31.601562 -29.800781 30.125 -31.21875 C 28.65625 -32.632812 26.894531 -33.734375 24.84375 -34.515625 C 22.800781 -35.304688 20.578125 -35.703125 18.171875 -35.703125 L 9.4375 -35.703125 L 9.4375 -3.84375 Z M 18.171875 -3.84375 "/></g></g></g><g fill="#38b6ff" fill-opacity="1"><g transform="translate(543.77265, 607.293506)"><g><path d="M 5.3125 -39.546875 L 25.671875 -39.546875 L 25.671875 -35.703125 L 9.4375 -35.703125 L 9.4375 -22.421875 L 21.828125 -22.421875 L 21.828125 -18.59375 L 9.4375 -18.59375 L 9.4375 -3.84375 L 25.96875 -3.84375 L 25.96875 0 L 5.3125 0 Z M 5.3125 -39.546875 "/></g></g></g><g fill="#38b6ff" fill-opacity="1"><g transform="translate(585.555912, 607.293506)"><g><path d="M 1.765625 -39.546875 L 6.140625 -39.546875 L 16.9375 -8.609375 L 28.390625 -39.546875 L 32.453125 -39.546875 L 17.296875 1.1875 L 16.109375 1.1875 Z M 1.765625 -39.546875 "/></g></g></g><g fill="#38b6ff" fill-opacity="1"><g transform="translate(632.060452, 607.293506)"><g><path d="M 5.3125 -39.546875 L 25.671875 -39.546875 L 25.671875 -35.703125 L 9.4375 -35.703125 L 9.4375 -22.421875 L 21.828125 -22.421875 L 21.828125 -18.59375 L 9.4375 -18.59375 L 9.4375 -3.84375 L 25.96875 -3.84375 L 25.96875 0 L 5.3125 0 Z M 5.3125 -39.546875 "/></g></g></g><g fill="#38b6ff" fill-opacity="1"><g transform="translate(673.843714, 607.293506)"><g><path d="M 5.3125 -39.546875 L 9.4375 -39.546875 L 9.4375 -3.84375 L 25.375 -3.84375 L 25.375 0 L 5.3125 0 Z M 5.3125 -39.546875 "/></g></g></g><g fill="#38b6ff" fill-opacity="1"><g transform="translate(714.151571, 607.293506)"><g><path d="M 22.71875 0.59375 C 20.007812 0.59375 17.453125 0.0625 15.046875 -1 C 12.648438 -2.0625 10.554688 -3.515625 8.765625 -5.359375 C 6.972656 -7.210938 5.554688 -9.367188 4.515625 -11.828125 C 3.472656 -14.285156 2.953125 -16.929688 2.953125 -19.765625 C 2.953125 -22.554688 3.472656 -25.191406 4.515625 -27.671875 C 5.554688 -30.148438 6.972656 -32.3125 8.765625 -34.15625 C 10.554688 -36.007812 12.648438 -37.46875 15.046875 -38.53125 C 17.453125 -39.59375 20.007812 -40.125 22.71875 -40.125 C 25.4375 -40.125 27.992188 -39.59375 30.390625 -38.53125 C 32.796875 -37.46875 34.890625 -36.007812 36.671875 -34.15625 C 38.460938 -32.3125 39.878906 -30.160156 40.921875 -27.703125 C 41.960938 -25.242188 42.484375 -22.597656 42.484375 -19.765625 C 42.484375 -16.972656 41.960938 -14.347656 40.921875 -11.890625 C 39.878906 -9.429688 38.460938 -7.273438 36.671875 -5.421875 C 34.890625 -3.578125 32.796875 -2.113281 30.390625 -1.03125 C 27.992188 0.0507812 25.4375 0.59375 22.71875 0.59375 Z M 22.71875 -3.484375 C 24.882812 -3.484375 26.910156 -3.894531 28.796875 -4.71875 C 30.679688 -5.539062 32.300781 -6.679688 33.65625 -8.140625 C 35.019531 -9.597656 36.09375 -11.316406 36.875 -13.296875 C 37.664062 -15.285156 38.0625 -17.441406 38.0625 -19.765625 C 38.0625 -22.085938 37.664062 -24.242188 36.875 -26.234375 C 36.09375 -28.222656 35.019531 -29.941406 33.65625 -31.390625 C 32.300781 -32.847656 30.679688 -33.988281 28.796875 -34.8125 C 26.910156 -35.644531 24.882812 -36.0625 22.71875 -36.0625 C 20.519531 -36.0625 18.484375 -35.644531 16.609375 -34.8125 C 14.742188 -33.988281 13.128906 -32.847656 11.765625 -31.390625 C 10.410156 -29.941406 9.335938 -28.222656 8.546875 -26.234375 C 7.765625 -24.242188 7.375 -22.085938 7.375 -19.765625 C 7.375 -17.441406 7.765625 -15.285156 8.546875 -13.296875 C 9.335938 -11.316406 10.410156 -9.597656 11.765625 -8.140625 C 13.128906 -6.679688 14.742188 -5.539062 16.609375 -4.71875 C 18.484375 -3.894531 20.519531 -3.484375 22.71875 -3.484375 Z M 22.71875 -3.484375 "/></g></g></g><g fill="#38b6ff" fill-opacity="1"><g transform="translate(771.86914, 607.293506)"><g><path d="M 5.3125 -39.546875 L 14.75 -39.546875 C 16.71875 -39.546875 18.535156 -39.25 20.203125 -38.65625 C 21.878906 -38.0625 23.316406 -37.234375 24.515625 -36.171875 C 25.722656 -35.109375 26.660156 -33.847656 27.328125 -32.390625 C 27.992188 -30.941406 28.328125 -29.351562 28.328125 -27.625 C 28.328125 -25.882812 27.992188 -24.285156 27.328125 -22.828125 C 26.660156 -21.378906 25.722656 -20.125 24.515625 -19.0625 C 23.316406 -18 21.878906 -17.171875 20.203125 -16.578125 C 18.535156 -15.992188 16.71875 -15.703125 14.75 -15.703125 L 9.4375 -15.703125 L 9.4375 0 L 5.3125 0 Z M 14.75 -19.53125 C 17.582031 -19.53125 19.863281 -20.265625 21.59375 -21.734375 C 23.332031 -23.210938 24.203125 -25.191406 24.203125 -27.671875 C 24.203125 -30.117188 23.332031 -32.066406 21.59375 -33.515625 C 19.863281 -34.972656 17.582031 -35.703125 14.75 -35.703125 L 9.4375 -35.703125 L 9.4375 -19.53125 Z M 14.75 -19.53125 "/></g></g></g><g fill="#38b6ff" fill-opacity="1"><g transform="translate(815.127805, 607.293506)"><g><path d="M 5.3125 -39.546875 L 25.671875 -39.546875 L 25.671875 -35.703125 L 9.4375 -35.703125 L 9.4375 -22.421875 L 21.828125 -22.421875 L 21.828125 -18.59375 L 9.4375 -18.59375 L 9.4375 -3.84375 L 25.96875 -3.84375 L 25.96875 0 L 5.3125 0 Z M 5.3125 -39.546875 "/></g></g></g><g fill="#38b6ff" fill-opacity="1"><g transform="translate(856.911067, 607.293506)"><g><path d="M 5.3125 -39.546875 L 14.75 -39.546875 C 16.71875 -39.546875 18.535156 -39.257812 20.203125 -38.6875 C 21.878906 -38.113281 23.316406 -37.304688 24.515625 -36.265625 C 25.722656 -35.222656 26.660156 -33.992188 27.328125 -32.578125 C 27.992188 -31.160156 28.328125 -29.609375 28.328125 -27.921875 C 28.328125 -26.535156 28.109375 -25.242188 27.671875 -24.046875 C 27.242188 -22.847656 26.632812 -21.765625 25.84375 -20.796875 C 25.0625 -19.835938 24.117188 -19.015625 23.015625 -18.328125 C 21.910156 -17.640625 20.710938 -17.117188 19.421875 -16.765625 L 30.6875 0 L 25.734375 0 L 14.75 -16.28125 L 9.4375 -16.28125 L 9.4375 0 L 5.3125 0 Z M 14.75 -20.125 C 17.582031 -20.125 19.863281 -20.832031 21.59375 -22.25 C 23.332031 -23.664062 24.203125 -25.570312 24.203125 -27.96875 C 24.203125 -30.332031 23.332031 -32.210938 21.59375 -33.609375 C 19.863281 -35.003906 17.582031 -35.703125 14.75 -35.703125 L 9.4375 -35.703125 L 9.4375 -20.125 Z M 14.75 -20.125 "/></g></g></g><g clip-path="url(#68fd31d5aa)"><path fill="#38b6ff" d="M 750.0625 184.496094 L 683.140625 134.308594 C 683.140625 216.308594 683.140625 298.316406 683.140625 380.316406 L 750.0625 341.679688 Z M 750.0625 184.496094 " fill-opacity="1" fill-rule="evenodd"/></g><g clip-path="url(#5d56b108f7)"><path fill="#38b6ff" d="M 631.90625 263.472656 L 568.089844 263.472656 L 568.089844 380.316406 L 631.90625 343.46875 Z M 631.90625 263.472656 " fill-opacity="1" fill-rule="evenodd"/></g><g clip-path="url(#f6d6826958)"><path fill="#ffffff" d="M 516.851562 134.308594 C 516.851562 203.429688 516.851562 272.554688 516.851562 341.679688 L 449.933594 380.316406 L 449.933594 184.496094 L 516.851562 134.308594 L 631.90625 48.019531 C 631.90625 102.976562 631.90625 157.933594 631.90625 212.890625 L 568.089844 212.890625 L 568.089844 134.308594 Z M 516.851562 134.308594 " fill-opacity="1" fill-rule="evenodd"/></g></svg>