<svg xmlns="http://www.w3.org/2000/svg" xmlns:xlink="http://www.w3.org/1999/xlink" width="1024" zoomAndPan="magnify" viewBox="0 0 768 767.999994" height="1024" preserveAspectRatio="xMidYMid meet" version="1.0"><defs><clipPath id="39aace7c03"><path d="M 561 213 L 703.746094 213 L 703.746094 738.503906 L 561 738.503906 Z M 561 213 " clip-rule="nonzero"/></clipPath><clipPath id="36394a34c6"><path d="M 315 489 L 453 489 L 453 738.503906 L 315 738.503906 Z M 315 489 " clip-rule="nonzero"/></clipPath><clipPath id="724f6bdd1d"><path d="M 64 29.753906 L 453 29.753906 L 453 738.503906 L 64 738.503906 Z M 64 29.753906 " clip-rule="nonzero"/></clipPath></defs><g clip-path="url(#39aace7c03)"><path fill="#00afef" d="M 703.945312 320.738281 L 561.261719 213.730469 C 561.261719 388.5625 561.261719 563.410156 561.261719 738.246094 L 703.945312 655.863281 Z M 703.945312 320.738281 " fill-opacity="1" fill-rule="evenodd"/></g><g clip-path="url(#36394a34c6)"><path fill="#00afef" d="M 452.027344 489.117188 L 315.960938 489.117188 L 315.960938 738.246094 L 452.027344 659.683594 Z M 452.027344 489.117188 " fill-opacity="1" fill-rule="evenodd"/></g><g clip-path="url(#724f6bdd1d)"><path fill="#ffffff" d="M 206.714844 213.730469 C 206.714844 361.105469 206.714844 508.488281 206.714844 655.863281 L 64.042969 738.246094 L 64.042969 320.738281 L 206.714844 213.730469 L 452.027344 29.753906 C 452.027344 146.921875 452.027344 264.105469 452.027344 381.273438 L 315.960938 381.273438 L 315.960938 213.730469 Z M 206.714844 213.730469 " fill-opacity="1" fill-rule="evenodd"/></g></svg>